AlegreyaSans-BlackItalic.ufo
<glyph name="parenleft" format="2">
  <advance width="306.903"/>
  <unicode hex="0028"/>
  <outline>
    <contour>
      <point x="286" y="659" type="line"/>
      <point x="269" y="659" type="line"/>
      <point x="96" y="540"/>
      <point x="54" y="316"/>
      <point x="54" y="148" type="curve" smooth="yes"/>
      <point x="54" y="18"/>
      <point x="92" y="-73"/>
      <point x="171" y="-137" type="curve"/>
      <point x="188" y="-137" type="line"/>
      <point x="264" y="-80" type="line"/>
      <point x="266" y="-65" type="line"/>
      <point x="228" y="-17"/>
      <point x="209" y="49"/>
      <point x="209" y="140" type="curve" smooth="yes"/>
      <point x="209" y="258"/>
      <point x="235" y="480"/>
      <point x="346" y="587" type="curve"/>
      <point x="348" y="602" type="line"/>
    </contour>
  </outline>
</glyph>
<glyph name="comma" format="2">
  <advance width="228.912"/>
  <unicode hex="002C"/>
  <outline>
    <contour>
      <point x="147" y="183" type="curve"/>
      <point x="96" y="170"/>
      <point x="49" y="150"/>
      <point x="4" y="125" type="curve"/>
      <point x="3" y="109" type="line"/>
      <point x="26" y="86"/>
      <point x="36" y="63"/>
      <point x="36" y="34" type="curve" smooth="yes"/>
      <point x="36" y="-8"/>
      <point x="18" y="-42"/>
      <point x="-20" y="-75" type="curve"/>
      <point x="-18" y="-89" type="line"/>
      <point x="43" y="-142" type="line"/>
      <point x="147" y="-70"/>
      <point x="195" y="-1"/>
      <point x="195" y="77" type="curve" smooth="yes"/>
      <point x="195" y="119"/>
      <point x="180" y="152"/>
    </contour>
  </outline>
</glyph>
<glyph name="slash" format="2">
  <advance width="280"/>
  <unicode hex="002F"/>
  <outline>
    <contour>
      <point x="339" y="683" type="line"/>
      <point x="208" y="683" type="line"/>
      <point x="-55" y="-103" type="line"/>
      <point x="-45" y="-118" type="line"/>
      <point x="90" y="-118" type="line"/>
      <point x="353" y="667" type="line"/>
    </contour>
  </outline>
</glyph>
<glyph name="zero" format="2">
  <advance width="516.483"/>
  <unicode hex="0030"/>
  <outline>
    <contour>
      <point x="296" y="524" type="curve" smooth="yes"/>
      <point x="129" y="524"/>
      <point x="28" y="392"/>
      <point x="28" y="214" type="curve" smooth="yes"/>
      <point x="28" y="65"/>
      <point x="99" y="-12"/>
      <point x="226" y="-12" type="curve" smooth="yes"/>
      <point x="391" y="-12"/>
      <point x="493" y="117"/>
      <point x="493" y="299" type="curve" smooth="yes"/>
      <point x="493" y="451"/>
      <point x="421" y="524"/>
    </contour>
    <contour>
      <point x="269" y="342" type="curve" smooth="yes"/>
      <point x="322" y="342"/>
      <point x="339" y="321"/>
      <point x="339" y="263" type="curve" smooth="yes"/>
      <point x="339" y="195"/>
      <point x="315" y="159"/>
      <point x="250" y="159" type="curve" smooth="yes"/>
      <point x="194" y="159"/>
      <point x="182" y="185"/>
      <point x="182" y="240" type="curve" smooth="yes"/>
      <point x="182" y="307"/>
      <point x="200" y="342"/>
    </contour>
  </outline>
</glyph>
<glyph name="four" format="2">
  <advance width="528.84"/>
  <unicode hex="0034"/>
  <outline>
    <contour>
      <point x="465" y="514" type="line"/>
      <point x="285" y="514" type="line"/>
      <point x="6" y="167" type="line"/>
      <point x="-9" y="44" type="line"/>
      <point x="1" y="28" type="line"/>
      <point x="114" y="32" type="line"/>
      <point x="340" y="32" type="line"/>
      <point x="473" y="28" type="line"/>
      <point x="498" y="164" type="line"/>
      <point x="489" y="181" type="line"/>
      <point x="176" y="181" type="line"/>
      <point x="271" y="300" type="line"/>
      <point x="282" y="300" type="line"/>
      <point x="263" y="144" type="line"/>
      <point x="225" y="-83" type="line"/>
      <point x="233" y="-95" type="line"/>
      <point x="387" y="-86" type="line"/>
      <point x="399" y="-73" type="line"/>
      <point x="410" y="106" type="line"/>
    </contour>
  </outline>
</glyph>
<glyph name="six" format="2">
  <advance width="499.959"/>
  <unicode hex="0036"/>
  <outline>
    <contour>
      <point x="358" y="598" type="line"/>
      <point x="349" y="598" type="line"/>
      <point x="141" y="504"/>
      <point x="15" y="361"/>
      <point x="15" y="198" type="curve" smooth="yes"/>
      <point x="15" y="68"/>
      <point x="95" y="-12"/>
      <point x="232" y="-12" type="curve" smooth="yes"/>
      <point x="394" y="-12"/>
      <point x="475" y="99"/>
      <point x="475" y="202" type="curve" smooth="yes"/>
      <point x="475" y="290"/>
      <point x="417" y="376"/>
      <point x="311" y="376" type="curve" smooth="yes"/>
      <point x="291" y="376"/>
      <point x="274" y="373"/>
      <point x="253" y="366" type="curve"/>
      <point x="224" y="406" type="line"/>
      <point x="178" y="226" type="line"/>
      <point x="204" y="236"/>
      <point x="228" y="241"/>
      <point x="247" y="241" type="curve" smooth="yes"/>
      <point x="282" y="241"/>
      <point x="296" y="223"/>
      <point x="296" y="185" type="curve" smooth="yes"/>
      <point x="296" y="142"/>
      <point x="278" y="113"/>
      <point x="239" y="113" type="curve" smooth="yes"/>
      <point x="203" y="113"/>
      <point x="191" y="137"/>
      <point x="191" y="197" type="curve" smooth="yes"/>
      <point x="191" y="347"/>
      <point x="267" y="435"/>
      <point x="469" y="493" type="curve"/>
      <point x="471" y="512" type="line"/>
    </contour>
  </outline>
</glyph>
<glyph name="A" format="2">
  <advance width="627"/>
  <unicode hex="0041"/>
  <anchor x="285" y="0" name="bottom"/>
  <anchor x="588" y="0" name="ogonek"/>
  <anchor x="365" y="647" name="top"/>
  <outline>
    <contour>
      <point x="491" y="647" type="line"/>
      <point x="249" y="647" type="line"/>
      <point x="-27" y="0" type="line"/>
      <point x="169" y="0" type="line"/>
      <point x="203" y="119" type="line"/>
      <point x="338" y="468" type="line"/>
      <point x="350" y="468" type="line"/>
      <point x="381" y="107" type="line"/>
      <point x="385" y="0" type="line"/>
      <point x="588" y="0" type="line"/>
    </contour>
    <contour>
      <point x="415" y="257" type="line"/>
      <point x="312" y="255" type="line"/>
      <point x="190" y="258" type="line"/>
      <point x="172" y="107" type="line"/>
      <point x="282" y="112" type="line"/>
      <point x="397" y="110" type="line"/>
    </contour>
  </outline>
</glyph>
<glyph name="C" format="2">
  <advance width="516"/>
  <unicode hex="0043"/>
  <anchor x="327" y="0" name="bottom"/>
  <anchor x="344" y="647" name="top"/>
  <outline>
    <contour>
      <point x="396" y="658" type="curve" smooth="yes"/>
      <point x="156" y="658"/>
      <point x="25" y="509"/>
      <point x="25" y="263" type="curve" smooth="yes"/>
      <point x="25" y="87"/>
      <point x="129" y="-11"/>
      <point x="323" y="-11" type="curve" smooth="yes"/>
      <point x="367" y="-11"/>
      <point x="405" y="-7"/>
      <point x="454" y="8" type="curve"/>
      <point x="489" y="166" type="line"/>
      <point x="475" y="176" type="line"/>
      <point x="437" y="163"/>
      <point x="385" y="155"/>
      <point x="349" y="155" type="curve" smooth="yes"/>
      <point x="275" y="155"/>
      <point x="240" y="199"/>
      <point x="240" y="295" type="curve" smooth="yes"/>
      <point x="240" y="432"/>
      <point x="276" y="495"/>
      <point x="378" y="495" type="curve" smooth="yes"/>
      <point x="416" y="495"/>
      <point x="464" y="483"/>
      <point x="497" y="464" type="curve"/>
      <point x="511" y="472" type="line"/>
      <point x="564" y="631" type="line"/>
      <point x="518" y="648"/>
      <point x="456" y="658"/>
    </contour>
  </outline>
</glyph>
<glyph name="D" format="2">
  <advance width="668"/>
  <unicode hex="0044"/>
  <anchor x="305" y="0" name="bottom"/>
  <anchor x="327" y="324" name="center"/>
  <anchor x="352" y="647" name="top"/>
  <outline>
    <contour>
      <point x="394" y="651" type="curve"/>
      <point x="111" y="647" type="line"/>
      <point x="272" y="489" type="line"/>
      <point x="307" y="493"/>
      <point x="343" y="495"/>
      <point x="367" y="495" type="curve" smooth="yes"/>
      <point x="427" y="495"/>
      <point x="453" y="461"/>
      <point x="453" y="368" type="curve" smooth="yes"/>
      <point x="453" y="199"/>
      <point x="405" y="140"/>
      <point x="331" y="140" type="curve" smooth="yes"/>
      <point x="305" y="140"/>
      <point x="255" y="146"/>
      <point x="223" y="152" type="curve"/>
      <point x="32" y="0" type="line"/>
      <point x="109" y="-5"/>
      <point x="220" y="-9"/>
      <point x="285" y="-9" type="curve" smooth="yes"/>
      <point x="534" y="-9"/>
      <point x="666" y="145"/>
      <point x="666" y="397" type="curve" smooth="yes"/>
      <point x="666" y="560"/>
      <point x="565" y="651"/>
    </contour>
    <contour>
      <point x="315" y="647" type="line"/>
      <point x="111" y="647" type="line"/>
      <point x="65" y="190" type="line"/>
      <point x="32" y="0" type="line"/>
      <point x="233" y="0" type="line"/>
      <point x="250" y="210" type="line"/>
    </contour>
  </outline>
</glyph>
<glyph name="F" format="2">
  <advance width="481"/>
  <unicode hex="0046"/>
  <outline>
    <contour>
      <point x="315" y="647" type="line"/>
      <point x="111" y="647" type="line"/>
      <point x="64" y="190" type="line"/>
      <point x="31" y="0" type="line"/>
      <point x="232" y="0" type="line"/>
      <point x="250" y="210" type="line"/>
    </contour>
    <contour>
      <point x="459" y="380" type="line"/>
      <point x="342" y="377" type="line"/>
      <point x="221" y="377" type="line"/>
      <point x="203" y="223" type="line"/>
      <point x="310" y="223" type="line"/>
      <point x="438" y="220" type="line"/>
      <point x="468" y="366" type="line"/>
    </contour>
    <contour>
      <point x="543" y="647" type="line"/>
      <point x="245" y="647" type="line"/>
      <point x="227" y="504" type="line"/>
      <point x="226" y="493" type="line"/>
      <point x="362" y="493" type="line"/>
      <point x="521" y="487" type="line"/>
      <point x="552" y="633" type="line"/>
    </contour>
  </outline>
</glyph>
<glyph name="I" format="2">
  <advance width="328"/>
  <unicode hex="0049"/>
  <anchor x="135" y="0" name="bottom"/>
  <anchor x="232" y="0" name="ogonek"/>
  <anchor x="211" y="647" name="top"/>
  <anchor x="70" y="647" name="topleft"/>
  <outline>
    <contour>
      <point x="315" y="647" type="line"/>
      <point x="111" y="647" type="line"/>
      <point x="65" y="190" type="line"/>
      <point x="31" y="0" type="line"/>
      <point x="232" y="0" type="line"/>
      <point x="250" y="210" type="line"/>
    </contour>
  </outline>
</glyph>
<glyph name="J" format="2">
  <advance width="363"/>
  <unicode hex="004A"/>
  <anchor x="210" y="647" name="top"/>
  <outline>
    <contour>
      <point x="349" y="647" type="line"/>
      <point x="145" y="647" type="line"/>
      <point x="98" y="193" type="line"/>
      <point x="90" y="130" type="line"/>
      <point x="83" y="72"/>
      <point x="56" y="40"/>
      <point x="-15" y="7" type="curve"/>
      <point x="-17" y="-9" type="line"/>
      <point x="23" y="-112" type="line"/>
      <point x="198" y="-62"/>
      <point x="258" y="1"/>
      <point x="275" y="124" type="curve"/>
      <point x="283" y="213" type="line"/>
    </contour>
    <contour>
      <point x="167" y="647" type="line"/>
      <point x="63" y="647" type="line"/>
      <point x="39" y="516" type="line"/>
      <point x="48" y="503" type="line"/>
      <point x="151" y="507" type="line"/>
    </contour>
  </outline>
</glyph>
<glyph name="K" format="2">
  <advance width="631"/>
  <unicode hex="004B"/>
  <anchor x="314" y="0" name="bottom"/>
  <anchor x="378" y="647" name="top"/>
  <outline>
    <contour>
      <point x="678" y="647" type="line"/>
      <point x="466" y="647" type="line"/>
      <point x="423" y="577" type="line"/>
      <point x="251" y="344" type="line"/>
      <point x="249" y="332" type="line"/>
      <point x="294" y="218"/>
      <point x="343" y="109"/>
      <point x="393" y="0" type="curve"/>
      <point x="414" y="-12" type="line"/>
      <point x="482" y="-6"/>
      <point x="549" y="5"/>
      <point x="618" y="20" type="curve"/>
      <point x="623" y="42" type="line"/>
      <point x="561" y="136"/>
      <point x="503" y="231"/>
      <point x="450" y="330" type="curve"/>
    </contour>
    <contour>
      <point x="315" y="647" type="line"/>
      <point x="111" y="647" type="line"/>
      <point x="65" y="190" type="line"/>
      <point x="31" y="0" type="line"/>
      <point x="232" y="0" type="line"/>
      <point x="250" y="210" type="line"/>
    </contour>
  </outline>
</glyph>
<glyph name="L" format="2">
  <advance width="452"/>
  <unicode hex="004C"/>
  <anchor x="211" y="0" name="bottom"/>
  <anchor x="237" y="324" name="center"/>
  <anchor x="201" y="647" name="top"/>
  <anchor x="445" y="328" name="topright"/>
  <outline>
    <contour>
      <point x="309" y="647" type="line"/>
      <point x="105" y="647" type="line"/>
      <point x="59" y="190" type="line"/>
      <point x="26" y="0" type="line"/>
      <point x="227" y="0" type="line"/>
      <point x="245" y="210" type="line"/>
    </contour>
    <contour>
      <point x="432" y="164" type="line"/>
      <point x="170" y="164" type="line"/>
      <point x="151" y="11" type="line"/>
      <point x="150" y="0" type="line"/>
      <point x="411" y="0" type="line"/>
      <point x="441" y="150" type="line"/>
    </contour>
  </outline>
</glyph>
<glyph name="M" format="2">
  <advance width="807"/>
  <unicode hex="004D"/>
  <anchor x="375" y="0" name="bottom"/>
  <anchor x="454" y="647" name="top"/>
  <outline>
    <contour>
      <point x="774" y="647" type="line"/>
      <point x="546" y="647" type="line"/>
      <point x="510" y="548" type="line"/>
      <point x="419" y="320" type="line"/>
      <point x="407" y="320" type="line"/>
      <point x="379" y="555" type="line"/>
      <point x="371" y="647" type="line"/>
      <point x="139" y="647" type="line"/>
      <point x="-3" y="0" type="line"/>
      <point x="165" y="0" type="line"/>
      <point x="200" y="215" type="line"/>
      <point x="232" y="359" type="line"/>
      <point x="244" y="359" type="line"/>
      <point x="294" y="61" type="line"/>
      <point x="445" y="61" type="line"/>
      <point x="587" y="359" type="line"/>
      <point x="599" y="359" type="line"/>
      <point x="590" y="196" type="line"/>
      <point x="570" y="0" type="line"/>
      <point x="747" y="0" type="line"/>
    </contour>
  </outline>
</glyph>
<glyph name="N" format="2">
  <advance width="711"/>
  <unicode hex="004E"/>
  <anchor x="327" y="0" name="bottom"/>
  <anchor x="406" y="647" name="top"/>
  <outline>
    <contour>
      <point x="702" y="651" type="line"/>
      <point x="517" y="640" type="line"/>
      <point x="481" y="301" type="line"/>
      <point x="469" y="301" type="line"/>
      <point x="329" y="647" type="line"/>
      <point x="111" y="647" type="line"/>
      <point x="65" y="190" type="line"/>
      <point x="32" y="0" type="line"/>
      <point x="214" y="0" type="line"/>
      <point x="235" y="234" type="line"/>
      <point x="250" y="346" type="line"/>
      <point x="262" y="346" type="line"/>
      <point x="401" y="0" type="line"/>
      <point x="619" y="0" type="line"/>
      <point x="637" y="211" type="line"/>
    </contour>
  </outline>
</glyph>
<glyph name="P" format="2">
  <advance width="594"/>
  <unicode hex="0050"/>
  <outline>
    <contour>
      <point x="408" y="648" type="curve"/>
      <point x="111" y="647" type="line"/>
      <point x="211" y="500" type="line"/>
      <point x="330" y="509" type="line"/>
      <point x="383" y="506"/>
      <point x="408" y="485"/>
      <point x="408" y="438" type="curve" smooth="yes"/>
      <point x="408" y="383"/>
      <point x="390" y="348"/>
      <point x="342" y="323" type="curve"/>
      <point x="144" y="334" type="line"/>
      <point x="125" y="183" type="line"/>
      <point x="307" y="183" type="line"/>
      <point x="496" y="183"/>
      <point x="621" y="301"/>
      <point x="621" y="471" type="curve" smooth="yes"/>
      <point x="621" y="584"/>
      <point x="540" y="648"/>
    </contour>
    <contour>
      <point x="315" y="647" type="line"/>
      <point x="111" y="647" type="line"/>
      <point x="65" y="190" type="line"/>
      <point x="32" y="0" type="line"/>
      <point x="233" y="0" type="line"/>
      <point x="251" y="210" type="line"/>
    </contour>
  </outline>
</glyph>
<glyph name="S" format="2">
  <advance width="529"/>
  <unicode hex="0053"/>
  <anchor x="236" y="0" name="bottom"/>
  <anchor x="319" y="647" name="top"/>
  <outline>
    <contour>
      <point x="351" y="659" type="curve" smooth="yes"/>
      <point x="182" y="659"/>
      <point x="59" y="554"/>
      <point x="59" y="420" type="curve" smooth="yes"/>
      <point x="59" y="244"/>
      <point x="300" y="247"/>
      <point x="300" y="171" type="curve" smooth="yes"/>
      <point x="300" y="154"/>
      <point x="288" y="136"/>
      <point x="245" y="136" type="curve" smooth="yes"/>
      <point x="202" y="136"/>
      <point x="126" y="162"/>
      <point x="66" y="212" type="curve"/>
      <point x="45" y="200" type="line"/>
      <point x="-3" y="26" type="line"/>
      <point x="68" y="1"/>
      <point x="140" y="-12"/>
      <point x="208" y="-12" type="curve" smooth="yes"/>
      <point x="386" y="-12"/>
      <point x="505" y="95"/>
      <point x="505" y="222" type="curve" smooth="yes"/>
      <point x="505" y="396"/>
      <point x="261" y="399"/>
      <point x="261" y="470" type="curve" smooth="yes"/>
      <point x="261" y="490"/>
      <point x="281" y="505"/>
      <point x="314" y="505" type="curve" smooth="yes"/>
      <point x="347" y="505"/>
      <point x="404" y="484"/>
      <point x="457" y="449" type="curve"/>
      <point x="486" y="461" type="line"/>
      <point x="536" y="624" type="line"/>
      <point x="470" y="650"/>
      <point x="404" y="659"/>
    </contour>
  </outline>
</glyph>
<glyph name="T" format="2">
  <advance width="518"/>
  <unicode hex="0054"/>
  <anchor x="230" y="0" name="bottom"/>
  <anchor x="277" y="324" name="center"/>
  <anchor x="309" y="647" name="top"/>
  <outline>
    <contour>
      <point x="408" y="627" type="line"/>
      <point x="211" y="627" type="line"/>
      <point x="165" y="190" type="line"/>
      <point x="131" y="0" type="line"/>
      <point x="331" y="0" type="line"/>
      <point x="349" y="210" type="line"/>
    </contour>
    <contour>
      <point x="552" y="647" type="line"/>
      <point x="69" y="647" type="line"/>
      <point x="40" y="501" type="line"/>
      <point x="50" y="487" type="line"/>
      <point x="184" y="493" type="line"/>
      <point x="401" y="493" type="line"/>
      <point x="532" y="487" type="line"/>
      <point x="561" y="633" type="line"/>
    </contour>
  </outline>
</glyph>
<glyph name="X" format="2">
  <advance width="635"/>
  <unicode hex="0058"/>
  <outline>
    <contour>
      <point x="683" y="647" type="line"/>
      <point x="474" y="647" type="line"/>
      <point x="435" y="577" type="line"/>
      <point x="356" y="464" type="line"/>
      <point x="312" y="566" type="line"/>
      <point x="287" y="647" type="line"/>
      <point x="50" y="647" type="line"/>
      <point x="203" y="321" type="line"/>
      <point x="-27" y="0" type="line"/>
      <point x="176" y="0" type="line"/>
      <point x="217" y="69" type="line"/>
      <point x="305" y="184" type="line"/>
      <point x="350" y="79" type="line"/>
      <point x="374" y="0" type="line"/>
      <point x="610" y="0" type="line"/>
      <point x="460" y="332" type="line"/>
    </contour>
  </outline>
</glyph>
<glyph name="Z" format="2">
  <advance width="570"/>
  <unicode hex="005A"/>
  <anchor x="256" y="0" name="bottom"/>
  <anchor x="289" y="647" name="top"/>
  <outline>
    <contour>
      <point x="589" y="648" type="line"/>
      <point x="513" y="647" type="line"/>
      <point x="239" y="647" type="line"/>
      <point x="89" y="650" type="line"/>
      <point x="56" y="497" type="line"/>
      <point x="62" y="489" type="line"/>
      <point x="183" y="499" type="line"/>
      <point x="340" y="499" type="line"/>
      <point x="16" y="137" type="line"/>
      <point x="-2" y="-6" type="line"/>
      <point x="100" y="0" type="line"/>
      <point x="330" y="0" type="line"/>
      <point x="507" y="-5" type="line"/>
      <point x="542" y="148" type="line"/>
      <point x="537" y="157" type="line"/>
      <point x="413" y="148" type="line"/>
      <point x="252" y="148" type="line"/>
      <point x="571" y="504" type="line"/>
    </contour>
  </outline>
</glyph>
<glyph name="backslash" format="2">
  <advance width="456.624"/>
  <unicode hex="005C"/>
  <outline>
    <contour>
      <point x="266" y="-118" type="line"/>
      <point x="401" y="-118" type="line"/>
      <point x="412" y="-103" type="line"/>
      <point x="204" y="683" type="line"/>
      <point x="73" y="683" type="line"/>
      <point x="58" y="667" type="line"/>
    </contour>
  </outline>
</glyph>
<glyph name="asciicircum" format="2">
  <advance width="460.209"/>
  <unicode hex="005E"/>
  <outline>
    <contour>
      <point x="348" y="502" type="line"/>
      <point x="192" y="502" type="line"/>
      <point x="174" y="491" type="line"/>
      <point x="2" y="151" type="line"/>
      <point x="108" y="111" type="line"/>
      <point x="122" y="118" type="line"/>
      <point x="245" y="370" type="line"/>
      <point x="254" y="370" type="line"/>
      <point x="314" y="119" type="line"/>
      <point x="425" y="145" type="line"/>
      <point x="440" y="161" type="line"/>
    </contour>
  </outline>
</glyph>
<glyph name="underscore" format="2">
  <advance width="437.747"/>
  <unicode hex="005F"/>
  <outline>
    <contour>
      <point x="401" y="-91" type="line"/>
      <point x="-46" y="-91" type="line"/>
      <point x="-68" y="-198" type="line"/>
      <point x="-58" y="-211" type="line"/>
      <point x="389" y="-211" type="line"/>
      <point x="411" y="-104" type="line"/>
    </contour>
  </outline>
</glyph>
<glyph name="b" format="2">
  <advance width="490"/>
  <unicode hex="0062"/>
  <anchor x="216" y="0" name="bottom"/>
  <anchor x="274" y="472" name="top"/>
  <outline>
    <contour>
      <point x="345" y="478" type="curve"/>
      <point x="322" y="478" type="line"/>
      <point x="292" y="441"/>
      <point x="266" y="400"/>
      <point x="244" y="358" type="curve"/>
      <point x="215" y="358" type="line"/>
      <point x="184" y="123" type="line"/>
      <point x="238" y="253"/>
      <point x="274" y="320"/>
      <point x="298" y="320" type="curve" smooth="yes"/>
      <point x="309" y="320"/>
      <point x="318" y="297"/>
      <point x="318" y="238" type="curve" smooth="yes"/>
      <point x="318" y="165"/>
      <point x="304" y="119"/>
      <point x="274" y="119" type="curve"/>
      <point x="145" y="153" type="line"/>
      <point x="49" y="23" type="line"/>
      <point x="240" y="-11" type="line"/>
      <point x="247" y="-11" type="line"/>
      <point x="405" y="42"/>
      <point x="482" y="184"/>
      <point x="482" y="311" type="curve" smooth="yes"/>
      <point x="482" y="397"/>
      <point x="450" y="452"/>
    </contour>
    <contour>
      <point x="274" y="704" type="line"/>
      <point x="96" y="693" type="line"/>
      <point x="92" y="580" type="line"/>
      <point x="19" y="27" type="line"/>
      <point x="188" y="-1" type="line"/>
      <point x="196" y="115" type="line"/>
      <point x="211" y="228" type="line"/>
    </contour>
  </outline>
</glyph>
<glyph name="g" format="2">
  <advance width="480"/>
  <unicode hex="0067"/>
  <anchor x="275" y="472" name="top"/>
  <outline>
    <contour>
      <point x="456" y="484" type="line"/>
      <point x="302" y="451" type="line"/>
      <point x="298" y="358" type="line"/>
      <point x="250" y="-1" type="line" smooth="yes"/>
      <point x="246" y="-51"/>
      <point x="216" y="-72"/>
      <point x="178" y="-72" type="curve" smooth="yes"/>
      <point x="141" y="-72"/>
      <point x="129" y="-51"/>
      <point x="129" y="-32" type="curve" smooth="yes"/>
      <point x="129" y="-23"/>
      <point x="132" y="-14"/>
      <point x="145" y="-3" type="curve" smooth="yes"/>
      <point x="167" y="17" type="line"/>
      <point x="88" y="76" type="line"/>
      <point x="84" y="35" type="line"/>
      <point x="-48" y="-20" type="line"/>
      <point x="-52" y="-31" type="line"/>
      <point x="-39" y="-121"/>
      <point x="19" y="-196"/>
      <point x="147" y="-196" type="curve" smooth="yes"/>
      <point x="281" y="-196"/>
      <point x="397" y="-113"/>
      <point x="418" y="50" type="curve"/>
      <point x="421" y="133" type="line"/>
      <point x="467" y="476" type="line"/>
    </contour>
    <contour>
      <point x="264" y="479" type="line"/>
      <point x="258" y="479" type="line"/>
      <point x="104" y="429"/>
      <point x="27" y="303"/>
      <point x="27" y="179" type="curve" smooth="yes"/>
      <point x="27" y="105"/>
      <point x="54" y="43"/>
      <point x="154" y="17" type="curve"/>
      <point x="167" y="17" type="line"/>
      <point x="200" y="51"/>
      <point x="229" y="90"/>
      <point x="255" y="133" type="curve"/>
      <point x="273" y="133" type="line"/>
      <point x="309" y="357" type="line"/>
      <point x="257" y="228"/>
      <point x="221" y="168"/>
      <point x="199" y="168" type="curve" smooth="yes"/>
      <point x="186" y="168"/>
      <point x="177" y="187"/>
      <point x="177" y="240" type="curve" smooth="yes"/>
      <point x="177" y="317"/>
      <point x="196" y="358"/>
      <point x="233" y="358" type="curve"/>
      <point x="347" y="331" type="line"/>
      <point x="434" y="449" type="line"/>
    </contour>
  </outline>
</glyph>
<glyph name="k" format="2">
  <advance width="541"/>
  <unicode hex="006B"/>
  <anchor x="242" y="0" name="bottom"/>
  <anchor x="178" y="660" name="top"/>
  <anchor x="252" y="472" name="topright"/>
  <outline>
    <contour>
      <point x="382" y="474" type="curve"/>
      <point x="369" y="473" type="line"/>
      <point x="326" y="435"/>
      <point x="283" y="393"/>
      <point x="244" y="346" type="curve"/>
      <point x="224" y="346" type="line"/>
      <point x="189" y="156" type="line"/>
      <point x="245" y="255"/>
      <point x="293" y="294"/>
      <point x="319" y="294" type="curve" smooth="yes"/>
      <point x="328" y="294"/>
      <point x="335" y="287"/>
      <point x="335" y="277" type="curve" smooth="yes"/>
      <point x="335" y="255"/>
      <point x="302" y="218"/>
      <point x="260" y="193" type="curve"/>
      <point x="254" y="170" type="line"/>
      <point x="270" y="112"/>
      <point x="292" y="54"/>
      <point x="314" y="-4" type="curve"/>
      <point x="331" y="-12" type="line"/>
      <point x="481" y="7" type="line"/>
      <point x="490" y="20" type="line"/>
      <point x="462" y="72"/>
      <point x="434" y="126"/>
      <point x="410" y="180" type="curve"/>
      <point x="469" y="224"/>
      <point x="516" y="281"/>
      <point x="516" y="349" type="curve" smooth="yes"/>
      <point x="516" y="422"/>
      <point x="461" y="460"/>
    </contour>
    <contour>
      <point x="275" y="704" type="line"/>
      <point x="96" y="693" type="line"/>
      <point x="93" y="580" type="line"/>
      <point x="14" y="-4" type="line"/>
      <point x="193" y="7" type="line"/>
      <point x="196" y="116" type="line"/>
    </contour>
  </outline>
</glyph>
<glyph name="l" format="2">
  <advance width="267"/>
  <unicode hex="006C"/>
  <anchor x="105" y="0" name="bottom"/>
  <anchor x="183" y="700" name="top"/>
  <anchor x="393" y="352" name="topright"/>
  <outline>
    <contour>
      <point x="278" y="704" type="line"/>
      <point x="99" y="693" type="line"/>
      <point x="96" y="580" type="line"/>
      <point x="17" y="-4" type="line"/>
      <point x="196" y="7" type="line"/>
      <point x="199" y="116" type="line"/>
    </contour>
  </outline>
</glyph>
<glyph name="n" format="2">
  <advance width="526"/>
  <unicode hex="006E"/>
  <anchor x="234" y="0" name="bottom"/>
  <anchor x="292" y="472" name="top"/>
  <outline>
    <contour>
      <point x="277" y="-4" type="line"/>
      <point x="460" y="7" type="line"/>
      <point x="464" y="119" type="line"/>
      <point x="502" y="349" type="line"/>
      <point x="503" y="363" type="line"/>
      <point x="504" y="418"/>
      <point x="441" y="460"/>
      <point x="368" y="474" type="curve"/>
      <point x="355" y="473" type="line"/>
      <point x="315" y="435"/>
      <point x="279" y="393"/>
      <point x="242" y="346" type="curve"/>
      <point x="222" y="346" type="line"/>
      <point x="187" y="156" type="line"/>
      <point x="242" y="252"/>
      <point x="284" y="291"/>
      <point x="305" y="291" type="curve" smooth="yes"/>
      <point x="316" y="291"/>
      <point x="322" y="285"/>
      <point x="322" y="269" type="curve"/>
      <point x="321" y="259" type="line"/>
    </contour>
    <contour>
      <point x="15" y="-4" type="line"/>
      <point x="193" y="7" type="line"/>
      <point x="197" y="116" type="line"/>
      <point x="244" y="476" type="line"/>
      <point x="66" y="465" type="line"/>
      <point x="62" y="352" type="line"/>
    </contour>
  </outline>
</glyph>
<glyph name="p" format="2">
  <advance width="491"/>
  <unicode hex="0070"/>
  <anchor x="217" y="0" name="bottom"/>
  <anchor x="275" y="472" name="top"/>
  <outline>
    <contour>
      <point x="347" y="478" type="curve"/>
      <point x="324" y="478" type="line"/>
      <point x="293" y="441"/>
      <point x="268" y="400"/>
      <point x="246" y="358" type="curve"/>
      <point x="217" y="358" type="line"/>
      <point x="186" y="123" type="line"/>
      <point x="240" y="253"/>
      <point x="275" y="320"/>
      <point x="299" y="320" type="curve" smooth="yes"/>
      <point x="311" y="320"/>
      <point x="320" y="297"/>
      <point x="320" y="238" type="curve" smooth="yes"/>
      <point x="320" y="165"/>
      <point x="305" y="119"/>
      <point x="276" y="119" type="curve"/>
      <point x="147" y="153" type="line"/>
      <point x="51" y="23" type="line"/>
      <point x="241" y="-11" type="line"/>
      <point x="248" y="-11" type="line"/>
      <point x="406" y="42"/>
      <point x="483" y="184"/>
      <point x="483" y="311" type="curve" smooth="yes"/>
      <point x="483" y="397"/>
      <point x="451" y="452"/>
    </contour>
    <contour>
      <point x="244" y="476" type="line"/>
      <point x="66" y="465" type="line"/>
      <point x="62" y="352" type="line"/>
      <point x="-10" y="-196" type="line"/>
      <point x="168" y="-185" type="line"/>
      <point x="172" y="-76" type="line"/>
    </contour>
  </outline>
</glyph>
<glyph name="q" format="2">
  <advance width="490"/>
  <unicode hex="0071"/>
  <outline>
    <contour>
      <point x="258" y="478" type="line"/>
      <point x="251" y="478" type="line"/>
      <point x="82" y="422"/>
      <point x="7" y="277"/>
      <point x="7" y="155" type="curve" smooth="yes"/>
      <point x="7" y="75"/>
      <point x="34" y="16"/>
      <point x="144" y="-11" type="curve"/>
      <point x="167" y="-11" type="line"/>
      <point x="197" y="25"/>
      <point x="222" y="66"/>
      <point x="244" y="107" type="curve"/>
      <point x="263" y="107" type="line"/>
      <point x="304" y="348" type="line"/>
      <point x="250" y="214"/>
      <point x="215" y="151"/>
      <point x="192" y="151" type="curve" smooth="yes"/>
      <point x="180" y="151"/>
      <point x="171" y="175"/>
      <point x="171" y="228" type="curve" smooth="yes"/>
      <point x="171" y="307"/>
      <point x="188" y="348"/>
      <point x="224" y="348" type="curve"/>
      <point x="344" y="318" type="line"/>
      <point x="439" y="447" type="line"/>
    </contour>
    <contour>
      <point x="464" y="484" type="line"/>
      <point x="300" y="450" type="line"/>
      <point x="293" y="349" type="line"/>
      <point x="221" y="-196" type="line"/>
      <point x="399" y="-185" type="line"/>
      <point x="403" y="-76" type="line"/>
      <point x="475" y="476" type="line"/>
    </contour>
  </outline>
</glyph>
<glyph name="v" format="2">
  <advance width="472"/>
  <unicode hex="0076"/>
  <outline>
    <contour>
      <point x="463" y="479" type="curve"/>
      <point x="300" y="459" type="line"/>
      <point x="292" y="442" type="line"/>
      <point x="301" y="424"/>
      <point x="305" y="405"/>
      <point x="305" y="386" type="curve" smooth="yes"/>
      <point x="305" y="358"/>
      <point x="296" y="328"/>
      <point x="280" y="291" type="curve" smooth="yes"/>
      <point x="233" y="183" type="line"/>
      <point x="219" y="183" type="line"/>
      <point x="209" y="385" type="line"/>
      <point x="209" y="476" type="line"/>
      <point x="31" y="466" type="line"/>
      <point x="91" y="0" type="line"/>
      <point x="296" y="0" type="line"/>
      <point x="430" y="247" type="line" smooth="yes"/>
      <point x="461" y="304"/>
      <point x="477" y="353"/>
      <point x="477" y="401" type="curve" smooth="yes"/>
      <point x="477" y="427"/>
      <point x="472" y="453"/>
    </contour>
  </outline>
</glyph>
<glyph name="w" format="2">
  <advance width="747"/>
  <unicode hex="0077"/>
  <anchor x="401" y="472" name="top"/>
  <outline>
    <contour>
      <point x="706" y="247" type="line" smooth="yes"/>
      <point x="735" y="304"/>
      <point x="752" y="353"/>
      <point x="752" y="401" type="curve" smooth="yes"/>
      <point x="752" y="427"/>
      <point x="747" y="453"/>
      <point x="738" y="479" type="curve"/>
      <point x="575" y="459" type="line"/>
      <point x="567" y="442" type="line"/>
      <point x="576" y="424"/>
      <point x="580" y="405"/>
      <point x="580" y="386" type="curve" smooth="yes"/>
      <point x="580" y="358"/>
      <point x="570" y="328"/>
      <point x="555" y="291" type="curve" smooth="yes"/>
      <point x="519" y="200" type="line"/>
      <point x="505" y="200" type="line"/>
      <point x="501" y="389" type="line"/>
      <point x="500" y="472" type="line"/>
      <point x="311" y="472" type="line"/>
      <point x="284" y="377" type="line"/>
      <point x="224" y="199" type="line"/>
      <point x="209" y="199" type="line"/>
      <point x="207" y="389" type="line"/>
      <point x="207" y="476" type="line"/>
      <point x="31" y="466" type="line"/>
      <point x="85" y="0" type="line"/>
      <point x="280" y="0" type="line"/>
      <point x="357" y="233" type="line"/>
      <point x="372" y="233" type="line"/>
      <point x="383" y="0" type="line"/>
      <point x="581" y="0" type="line"/>
    </contour>
  </outline>
</glyph>
<glyph name="asciitilde" format="2">
  <advance width="480"/>
  <unicode hex="007E"/>
  <outline>
    <contour>
      <point x="148" y="212" type="curve" smooth="yes"/>
      <point x="181" y="212"/>
      <point x="298" y="165"/>
      <point x="357" y="156" type="curve"/>
      <point x="374" y="162" type="line"/>
      <point x="479" y="277" type="line"/>
      <point x="481" y="293" type="line"/>
      <point x="439" y="356" type="line"/>
      <point x="423" y="356" type="line"/>
      <point x="391" y="325"/>
      <point x="364" y="295"/>
      <point x="338" y="295" type="curve" smooth="yes"/>
      <point x="304" y="295"/>
      <point x="187" y="341"/>
      <point x="128" y="352" type="curve"/>
      <point x="112" y="345" type="line"/>
      <point x="5" y="230" type="line"/>
      <point x="3" y="214" type="line"/>
      <point x="47" y="151" type="line"/>
      <point x="63" y="151" type="line"/>
      <point x="93" y="181"/>
      <point x="121" y="212"/>
    </contour>
  </outline>
</glyph>
<glyph name="sterling" format="2">
  <advance width="480"/>
  <unicode hex="00A3"/>
  <outline>
    <contour>
      <point x="382" y="597" type="curve" smooth="yes"/>
      <point x="225" y="597"/>
      <point x="125" y="525"/>
      <point x="110" y="392" type="curve" smooth="yes"/>
      <point x="89" y="208" type="line" smooth="yes"/>
      <point x="83" y="157"/>
      <point x="59" y="131"/>
      <point x="5" y="117" type="curve"/>
      <point x="-15" y="9" type="line"/>
      <point x="-10" y="0" type="line"/>
      <point x="262" y="0" type="line" smooth="yes"/>
      <point x="417" y="-5" type="line"/>
      <point x="445" y="127" type="line"/>
      <point x="441" y="135" type="line"/>
      <point x="330" y="127" type="line"/>
      <point x="210" y="127" type="line"/>
      <point x="210" y="132" type="line"/>
      <point x="240" y="153"/>
      <point x="252" y="173"/>
      <point x="257" y="217" type="curve" smooth="yes"/>
      <point x="286" y="423" type="line" smooth="yes"/>
      <point x="291" y="461"/>
      <point x="316" y="473"/>
      <point x="350" y="473" type="curve" smooth="yes"/>
      <point x="379" y="473"/>
      <point x="413" y="464"/>
      <point x="462" y="441" type="curve"/>
      <point x="476" y="449" type="line"/>
      <point x="501" y="584" type="line"/>
      <point x="460" y="593"/>
      <point x="422" y="597"/>
    </contour>
    <contour>
      <point x="402" y="353" type="line"/>
      <point x="35" y="353" type="line"/>
      <point x="17" y="258" type="line"/>
      <point x="20" y="249" type="line"/>
      <point x="387" y="249" type="line"/>
      <point x="406" y="344" type="line"/>
    </contour>
  </outline>
</glyph>
<glyph name="currency" format="2">
  <advance width="434"/>
  <unicode hex="00A4"/>
  <outline>
    <contour>
      <point x="396" y="574" type="line"/>
      <point x="378" y="571" type="line"/>
      <point x="312" y="499" type="line"/>
      <point x="293" y="507"/>
      <point x="272" y="512"/>
      <point x="249" y="512" type="curve" smooth="yes"/>
      <point x="223" y="512"/>
      <point x="198" y="506"/>
      <point x="175" y="496" type="curve"/>
      <point x="124" y="567" type="line"/>
      <point x="108" y="568" type="line"/>
      <point x="13" y="479" type="line"/>
      <point x="14" y="462" type="line"/>
      <point x="77" y="407" type="line"/>
      <point x="62" y="380"/>
      <point x="54" y="353"/>
      <point x="54" y="322" type="curve" smooth="yes"/>
      <point x="54" y="303"/>
      <point x="57" y="282"/>
      <point x="63" y="266" type="curve"/>
      <point x="-14" y="207" type="line"/>
      <point x="-17" y="191" type="line"/>
      <point x="61" y="107" type="line"/>
      <point x="79" y="110" type="line"/>
      <point x="141" y="180" type="line"/>
      <point x="161" y="171"/>
      <point x="184" y="166"/>
      <point x="207" y="166" type="curve" smooth="yes"/>
      <point x="234" y="166"/>
      <point x="260" y="172"/>
      <point x="285" y="184" type="curve"/>
      <point x="335" y="113" type="line"/>
      <point x="351" y="113" type="line"/>
      <point x="446" y="202" type="line"/>
      <point x="445" y="219" type="line"/>
      <point x="380" y="274" type="line"/>
      <point x="393" y="299"/>
      <point x="402" y="325"/>
      <point x="402" y="356" type="curve" smooth="yes"/>
      <point x="402" y="375"/>
      <point x="399" y="396"/>
      <point x="393" y="413" type="curve"/>
      <point x="472" y="474" type="line"/>
      <point x="474" y="490" type="line"/>
    </contour>
    <contour>
      <point x="237" y="411" type="curve" smooth="yes"/>
      <point x="277" y="411"/>
      <point x="301" y="388"/>
      <point x="301" y="349" type="curve" smooth="yes"/>
      <point x="301" y="299"/>
      <point x="269" y="267"/>
      <point x="219" y="267" type="curve" smooth="yes"/>
      <point x="178" y="267"/>
      <point x="155" y="290"/>
      <point x="155" y="329" type="curve" smooth="yes"/>
      <point x="155" y="379"/>
      <point x="187" y="411"/>
    </contour>
  </outline>
</glyph>
<glyph name="yen" format="2">
  <advance width="586"/>
  <unicode hex="00A5"/>
  <anchor x="328" y="513" name="top"/>
  <outline>
    <contour>
      <point x="536" y="185" type="line"/>
      <point x="34" y="185" type="line"/>
      <point x="20" y="108" type="line"/>
      <point x="25" y="99" type="line"/>
      <point x="529" y="99" type="line"/>
      <point x="543" y="178" type="line"/>
    </contour>
    <contour>
      <point x="234" y="326" type="line"/>
      <point x="52" y="326" type="line"/>
      <point x="37" y="249" type="line"/>
      <point x="42" y="240" type="line"/>
      <point x="225" y="240" type="line"/>
    </contour>
    <contour>
      <point x="554" y="326" type="line"/>
      <point x="366" y="326" type="line"/>
      <point x="353" y="240" type="line"/>
      <point x="545" y="240" type="line"/>
      <point x="561" y="319" type="line"/>
    </contour>
    <contour>
      <point x="601" y="511" type="line"/>
      <point x="427" y="511" type="line"/>
      <point x="401" y="460" type="line"/>
      <point x="305" y="322" type="line"/>
      <point x="295" y="322" type="line"/>
      <point x="245" y="466" type="line"/>
      <point x="236" y="511" type="line"/>
      <point x="57" y="511" type="line"/>
      <point x="234" y="54" type="line"/>
      <point x="288" y="54" type="line"/>
    </contour>
    <contour>
      <point x="366" y="224" type="line"/>
      <point x="202" y="224" type="line"/>
      <point x="195" y="133" type="line"/>
      <point x="170" y="0" type="line"/>
      <point x="340" y="0" type="line"/>
      <point x="349" y="133" type="line"/>
    </contour>
  </outline>
</glyph>
<glyph name="section" format="2">
  <advance width="459"/>
  <unicode hex="00A7"/>
  <outline>
    <contour>
      <point x="247" y="422" type="line"/>
      <point x="116" y="420"/>
      <point x="15" y="332"/>
      <point x="15" y="234" type="curve" smooth="yes"/>
      <point x="15" y="94"/>
      <point x="223" y="87"/>
      <point x="223" y="41" type="curve" smooth="yes"/>
      <point x="223" y="30"/>
      <point x="211" y="17"/>
      <point x="181" y="17" type="curve" smooth="yes"/>
      <point x="142" y="17"/>
      <point x="82" y="41"/>
      <point x="37" y="79" type="curve"/>
      <point x="20" y="68" type="line"/>
      <point x="-17" y="-68" type="line"/>
      <point x="33" y="-85"/>
      <point x="104" y="-96"/>
      <point x="152" y="-96" type="curve" smooth="yes"/>
      <point x="281" y="-96"/>
      <point x="382" y="-22"/>
      <point x="382" y="72" type="curve" smooth="yes"/>
      <point x="382" y="205"/>
      <point x="175" y="203"/>
      <point x="175" y="281" type="curve" smooth="yes"/>
      <point x="175" y="311"/>
      <point x="207" y="341"/>
      <point x="265" y="356" type="curve"/>
    </contour>
    <contour>
      <point x="313" y="658" type="curve" smooth="yes"/>
      <point x="182" y="658"/>
      <point x="80" y="581"/>
      <point x="80" y="487" type="curve" smooth="yes"/>
      <point x="80" y="352"/>
      <point x="287" y="356"/>
      <point x="287" y="277" type="curve" smooth="yes"/>
      <point x="287" y="247"/>
      <point x="256" y="218"/>
      <point x="192" y="202" type="curve"/>
      <point x="217" y="141" type="line"/>
      <point x="348" y="143"/>
      <point x="448" y="229"/>
      <point x="448" y="324" type="curve" smooth="yes"/>
      <point x="448" y="463"/>
      <point x="240" y="471"/>
      <point x="240" y="517" type="curve" smooth="yes"/>
      <point x="240" y="528"/>
      <point x="254" y="540"/>
      <point x="279" y="540" type="curve" smooth="yes"/>
      <point x="307" y="540"/>
      <point x="353" y="525"/>
      <point x="397" y="496" type="curve"/>
      <point x="419" y="503" type="line"/>
      <point x="454" y="633" type="line"/>
      <point x="416" y="648"/>
      <point x="359" y="658"/>
    </contour>
  </outline>
</glyph>
<glyph name="logicalnot" format="2">
  <advance width="480.791"/>
  <unicode hex="00AC"/>
  <outline>
    <contour>
      <point x="445" y="320" type="line"/>
      <point x="35" y="320" type="line"/>
      <point x="11" y="203" type="line"/>
      <point x="22" y="190" type="line"/>
      <point x="305" y="190" type="line"/>
      <point x="286" y="41" type="line"/>
      <point x="298" y="29" type="line"/>
      <point x="416" y="38" type="line"/>
      <point x="450" y="311" type="line"/>
    </contour>
  </outline>
</glyph>
<glyph name="softhyphen" format="2">
  <advance width="299.684"/>
  <unicode hex="00AD"/>
  <outline>
    <contour>
      <point x="272" y="340" type="line"/>
      <point x="33" y="302" type="line"/>
      <point x="19" y="182" type="line"/>
      <point x="31" y="168" type="line"/>
      <point x="271" y="206" type="line"/>
      <point x="284" y="326" type="line"/>
    </contour>
  </outline>
</glyph>
<glyph name="Eth" format="2">
  <advance width="699"/>
  <unicode hex="00D0"/>
  <outline>
    <contour>
      <point x="425" y="651" type="curve"/>
      <point x="142" y="647" type="line"/>
      <point x="303" y="489" type="line"/>
      <point x="338" y="493"/>
      <point x="374" y="495"/>
      <point x="398" y="495" type="curve" smooth="yes"/>
      <point x="458" y="495"/>
      <point x="484" y="461"/>
      <point x="484" y="368" type="curve" smooth="yes"/>
      <point x="484" y="199"/>
      <point x="436" y="140"/>
      <point x="362" y="140" type="curve" smooth="yes"/>
      <point x="336" y="140"/>
      <point x="286" y="146"/>
      <point x="254" y="152" type="curve"/>
      <point x="63" y="0" type="line"/>
      <point x="140" y="-5"/>
      <point x="251" y="-9"/>
      <point x="316" y="-9" type="curve" smooth="yes"/>
      <point x="565" y="-9"/>
      <point x="697" y="145"/>
      <point x="697" y="397" type="curve" smooth="yes"/>
      <point x="697" y="560"/>
      <point x="596" y="651"/>
    </contour>
    <contour>
      <point x="346" y="647" type="line"/>
      <point x="142" y="647" type="line"/>
      <point x="96" y="190" type="line"/>
      <point x="63" y="0" type="line"/>
      <point x="264" y="0" type="line"/>
      <point x="281" y="210" type="line"/>
    </contour>
    <contour>
      <point x="377.75" y="379" type="line"/>
      <point x="32.75" y="379" type="line"/>
      <point x="14.75" y="262" type="line"/>
      <point x="23.0" y="249" type="line"/>
      <point x="368.0" y="249" type="line"/>
      <point x="385.25" y="366" type="line"/>
    </contour>
  </outline>
</glyph>
<glyph name="eth" format="2">
  <advance width="493"/>
  <unicode hex="00F0"/>
  <outline>
    <contour>
      <point x="207" y="712" type="curve"/>
      <point x="198" y="712" type="line"/>
      <point x="70" y="626" type="line"/>
      <point x="67" y="606" type="line"/>
      <point x="247" y="517"/>
      <point x="304" y="447"/>
      <point x="304" y="291" type="curve"/>
      <point x="304" y="167"/>
      <point x="293" y="116"/>
      <point x="229" y="116" type="curve" smooth="yes"/>
      <point x="205" y="116"/>
      <point x="196" y="130"/>
      <point x="196" y="176" type="curve" smooth="yes"/>
      <point x="196" y="301"/>
      <point x="208" y="349"/>
      <point x="272" y="349" type="curve" smooth="yes"/>
      <point x="288" y="349"/>
      <point x="298" y="342"/>
      <point x="305" y="324" type="curve"/>
      <point x="427" y="421" type="line"/>
      <point x="397" y="445"/>
      <point x="355" y="461"/>
      <point x="306" y="469" type="curve"/>
      <point x="290" y="471" type="line"/>
      <point x="132" y="461"/>
      <point x="32" y="353"/>
      <point x="32" y="180" type="curve" smooth="yes"/>
      <point x="32" y="71"/>
      <point x="89" y="11"/>
      <point x="179" y="-10" type="curve"/>
      <point x="195" y="-12" type="line"/>
      <point x="365" y="-3"/>
      <point x="470" y="110"/>
      <point x="470" y="301" type="curve"/>
      <point x="475" y="459"/>
      <point x="390" y="606"/>
    </contour>
    <contour>
      <point x="402" y="720" type="line"/>
      <point x="48" y="513" type="line"/>
      <point x="76" y="446" type="line"/>
      <point x="89" y="442" type="line"/>
      <point x="445" y="648" type="line" smooth="yes"/>
      <point x="416" y="716" type="line"/>
    </contour>
  </outline>
</glyph>
<glyph name="divide" format="2">
  <advance width="478"/>
  <unicode hex="00F7"/>
  <outline>
    <contour>
      <point x="456" y="320" type="line"/>
      <point x="26" y="320" type="line"/>
      <point x="17" y="203" type="line"/>
      <point x="29" y="190" type="line"/>
      <point x="459" y="190" type="line"/>
      <point x="468" y="307" type="line"/>
    </contour>
    <contour>
      <point x="224.618" y="172.42" type="curve" smooth="yes"/>
      <point x="173.084" y="172.42"/>
      <point x="141.182" y="139.7"/>
      <point x="141.182" y="87.348" type="curve" smooth="yes"/>
      <point x="141.182" y="37.45"/>
      <point x="168.176" y="9.638000000000002"/>
      <point x="218.074" y="9.638000000000002" type="curve" smooth="yes"/>
      <point x="268.78999999999996" y="9.638000000000002"/>
      <point x="300.692" y="42.358"/>
      <point x="300.692" y="94.71" type="curve" smooth="yes"/>
      <point x="300.692" y="143.79"/>
      <point x="272.88" y="172.42"/>
    </contour>
    <contour>
      <point x="264.618" y="497.41999999999996" type="curve" smooth="yes"/>
      <point x="213.084" y="497.41999999999996"/>
      <point x="181.182" y="464.7"/>
      <point x="181.182" y="412.348" type="curve" smooth="yes"/>
      <point x="181.182" y="362.45"/>
      <point x="208.176" y="334.638"/>
      <point x="258.074" y="334.638" type="curve" smooth="yes"/>
      <point x="308.78999999999996" y="334.638"/>
      <point x="340.692" y="367.358"/>
      <point x="340.692" y="419.71" type="curve" smooth="yes"/>
      <point x="340.692" y="468.78999999999996"/>
      <point x="312.88" y="497.41999999999996"/>
    </contour>
  </outline>
</glyph>
<glyph name="oslash" format="2">
  <advance width="473.515"/>
  <unicode hex="00F8"/>
  <anchor x="207" y="0" name="bottom"/>
  <anchor x="236" y="236" name="center"/>
  <anchor x="343" y="45" name="ogonek"/>
  <anchor x="238" y="472" name="top"/>
  <anchor x="479" y="472" name="topright"/>
  <outline>
    <contour>
      <point x="472" y="542" type="line"/>
      <point x="387" y="594" type="line"/>
      <point x="-14" y="-63" type="line"/>
      <point x="-10" y="-79" type="line"/>
      <point x="80" y="-132" type="line"/>
      <point x="481" y="525" type="line"/>
    </contour>
    <contour>
      <point x="291" y="484" type="line"/>
      <point x="120" y="474"/>
      <point x="13" y="361"/>
      <point x="13" y="183" type="curve" smooth="yes"/>
      <point x="13" y="72"/>
      <point x="71" y="11"/>
      <point x="163" y="-10" type="curve"/>
      <point x="179" y="-12" type="line"/>
      <point x="351" y="-3"/>
      <point x="458" y="109"/>
      <point x="458" y="301" type="curve" smooth="yes"/>
      <point x="458" y="404"/>
      <point x="397" y="462"/>
      <point x="307" y="482" type="curve"/>
    </contour>
    <contour>
      <point x="256" y="347" type="curve" smooth="yes"/>
      <point x="279" y="347"/>
      <point x="285" y="334"/>
      <point x="285" y="290" type="curve" smooth="yes"/>
      <point x="285" y="168"/>
      <point x="277" y="121"/>
      <point x="215" y="121" type="curve" smooth="yes"/>
      <point x="191" y="121"/>
      <point x="184" y="134"/>
      <point x="184" y="179" type="curve" smooth="yes"/>
      <point x="184" y="300"/>
      <point x="192" y="347"/>
    </contour>
  </outline>
</glyph>
<glyph name="dcroat" format="2">
  <advance width="497.638"/>
  <unicode hex="0111"/>
  <anchor x="214" y="0" name="bottom"/>
  <anchor x="481" y="236" name="center"/>
  <anchor x="357" y="472" name="top"/>
  <anchor x="618" y="352" name="topright"/>
  <outline>
    <contour>
      <point x="549" y="625" type="line"/>
      <point x="200" y="625" type="line"/>
      <point x="193" y="537" type="line"/>
      <point x="205" y="524" type="line"/>
      <point x="554" y="524" type="line"/>
      <point x="561" y="612" type="line"/>
    </contour>
    <contour>
      <point x="258" y="478" type="line"/>
      <point x="251" y="478" type="line"/>
      <point x="82" y="422"/>
      <point x="7" y="277"/>
      <point x="7" y="155" type="curve" smooth="yes"/>
      <point x="7" y="75"/>
      <point x="34" y="16"/>
      <point x="144" y="-11" type="curve"/>
      <point x="167" y="-11" type="line"/>
      <point x="197" y="25"/>
      <point x="222" y="66"/>
      <point x="244" y="107" type="curve"/>
      <point x="263" y="107" type="line"/>
      <point x="304" y="348" type="line"/>
      <point x="250" y="214"/>
      <point x="215" y="151"/>
      <point x="192" y="151" type="curve" smooth="yes"/>
      <point x="180" y="151"/>
      <point x="171" y="173"/>
      <point x="171" y="228" type="curve" smooth="yes"/>
      <point x="171" y="307"/>
      <point x="188" y="348"/>
      <point x="223" y="348" type="curve"/>
      <point x="343" y="318" type="line"/>
      <point x="439" y="447" type="line"/>
    </contour>
    <contour>
      <point x="502" y="704" type="line"/>
      <point x="324" y="693" type="line"/>
      <point x="320" y="580" type="line"/>
      <point x="242" y="-4" type="line"/>
      <point x="420" y="7" type="line"/>
      <point x="424" y="116" type="line"/>
    </contour>
  </outline>
</glyph>
<glyph name="gcommaaccent" format="2">
  <advance width="481"/>
  <unicode hex="0123"/>
  <outline>
    <contour>
      <point x="456" y="484" type="line"/>
      <point x="302" y="451" type="line"/>
      <point x="298" y="358" type="line"/>
      <point x="250" y="-1" type="line" smooth="yes"/>
      <point x="246" y="-51"/>
      <point x="216" y="-72"/>
      <point x="178" y="-72" type="curve" smooth="yes"/>
      <point x="141" y="-72"/>
      <point x="129" y="-51"/>
      <point x="129" y="-32" type="curve" smooth="yes"/>
      <point x="129" y="-23"/>
      <point x="132" y="-14"/>
      <point x="145" y="-3" type="curve" smooth="yes"/>
      <point x="167" y="17" type="line"/>
      <point x="88" y="76" type="line"/>
      <point x="84" y="35" type="line"/>
      <point x="-48" y="-20" type="line"/>
      <point x="-52" y="-31" type="line"/>
      <point x="-39" y="-121"/>
      <point x="19" y="-196"/>
      <point x="147" y="-196" type="curve" smooth="yes"/>
      <point x="281" y="-196"/>
      <point x="397" y="-113"/>
      <point x="418" y="50" type="curve"/>
      <point x="421" y="133" type="line"/>
      <point x="467" y="476" type="line"/>
    </contour>
    <contour>
      <point x="264" y="479" type="line"/>
      <point x="258" y="479" type="line"/>
      <point x="104" y="429"/>
      <point x="27" y="303"/>
      <point x="27" y="179" type="curve" smooth="yes"/>
      <point x="27" y="105"/>
      <point x="54" y="43"/>
      <point x="154" y="17" type="curve"/>
      <point x="167" y="17" type="line"/>
      <point x="200" y="51"/>
      <point x="229" y="90"/>
      <point x="255" y="133" type="curve"/>
      <point x="273" y="133" type="line"/>
      <point x="309" y="357" type="line"/>
      <point x="257" y="228"/>
      <point x="221" y="168"/>
      <point x="199" y="168" type="curve" smooth="yes"/>
      <point x="186" y="168"/>
      <point x="177" y="187"/>
      <point x="177" y="240" type="curve" smooth="yes"/>
      <point x="177" y="317"/>
      <point x="196" y="358"/>
      <point x="233" y="358" type="curve"/>
      <point x="347" y="331" type="line"/>
      <point x="434" y="449" type="line"/>
    </contour>
    <contour>
      <point x="294.75" y="516.6919999999999" type="curve"/>
      <point x="336.42" y="532.4339999999999"/>
      <point x="375.312" y="556.5099999999999"/>
      <point x="410.5" y="582.4379999999999" type="curve"/>
      <point x="410.5" y="596.3279999999999" type="line"/>
      <point x="380.868" y="618.5519999999999"/>
      <point x="371.608" y="642.6279999999999"/>
      <point x="371.608" y="677.8159999999999" type="curve" smooth="yes"/>
      <point x="371.608" y="705.5959999999999"/>
      <point x="383.646" y="732.4499999999999"/>
      <point x="407.722" y="759.3039999999999" type="curve"/>
      <point x="404.944" y="770.4159999999999" type="line"/>
      <point x="344.754" y="809.308" type="line"/>
      <point x="273.452" y="743.5619999999999"/>
      <point x="239.19" y="685.2239999999999"/>
      <point x="239.19" y="624.108" type="curve" smooth="yes"/>
      <point x="239.19" y="575.9559999999999"/>
      <point x="255.858" y="542.6199999999999"/>
    </contour>
  </outline>
</glyph>
<glyph name="kgreenlandic" format="2">
  <advance width="541"/>
  <unicode hex="0138"/>
  <anchor x="204" y="10" name="ogonek"/>
  <anchor x="156" y="472" name="top"/>
  <outline>
    <contour>
      <point x="381" y="474" type="curve"/>
      <point x="368" y="473" type="line"/>
      <point x="324" y="435"/>
      <point x="281" y="393"/>
      <point x="241" y="346" type="curve"/>
      <point x="221" y="346" type="line"/>
      <point x="186" y="156" type="line"/>
      <point x="243" y="255"/>
      <point x="292" y="294"/>
      <point x="318" y="294" type="curve" smooth="yes"/>
      <point x="328" y="294"/>
      <point x="335" y="287"/>
      <point x="335" y="277" type="curve" smooth="yes"/>
      <point x="335" y="255"/>
      <point x="301" y="218"/>
      <point x="258" y="193" type="curve"/>
      <point x="252" y="170" type="line"/>
      <point x="269" y="112"/>
      <point x="291" y="54"/>
      <point x="314" y="-4" type="curve"/>
      <point x="331" y="-12" type="line"/>
      <point x="481" y="7" type="line"/>
      <point x="490" y="20" type="line"/>
      <point x="461" y="72"/>
      <point x="433" y="126"/>
      <point x="408" y="180" type="curve"/>
      <point x="468" y="224"/>
      <point x="516" y="281"/>
      <point x="516" y="349" type="curve" smooth="yes"/>
      <point x="516" y="422"/>
      <point x="461" y="460"/>
    </contour>
    <contour>
      <point x="244" y="476" type="line"/>
      <point x="66" y="465" type="line"/>
      <point x="62" y="352" type="line"/>
      <point x="15" y="-4" type="line"/>
      <point x="193" y="7" type="line"/>
      <point x="198" y="116" type="line"/>
    </contour>
  </outline>
</glyph>
<glyph name="Eng" format="2">
  <advance width="715.509"/>
  <unicode hex="014A"/>
  <outline>
    <contour>
      <point x="702" y="651" type="line"/>
      <point x="517" y="640" type="line"/>
      <point x="484" y="321" type="line"/>
      <point x="472" y="321" type="line"/>
      <point x="330" y="647" type="line"/>
      <point x="112" y="647" type="line"/>
      <point x="66" y="190" type="line"/>
      <point x="32" y="0" type="line"/>
      <point x="214" y="0" type="line"/>
      <point x="235" y="234" type="line"/>
      <point x="250" y="346" type="line"/>
      <point x="262" y="346" type="line"/>
      <point x="419" y="0" type="line"/>
      <point x="402" y="-25"/>
      <point x="375" y="-44"/>
      <point x="332" y="-63" type="curve"/>
      <point x="331" y="-79" type="line"/>
      <point x="370" y="-182" type="line"/>
      <point x="547" y="-132"/>
      <point x="609" y="-69"/>
      <point x="624" y="54" type="curve"/>
      <point x="637" y="211" type="line"/>
    </contour>
  </outline>
</glyph>
<glyph name="eng" format="2">
  <advance width="537"/>
  <unicode hex="014B"/>
  <outline>
    <contour>
      <point x="231" y="117" type="move"/>
    </contour>
    <contour>
      <point x="66" y="465" type="line"/>
      <point x="62" y="352" type="line"/>
      <point x="15" y="-4" type="line"/>
      <point x="193" y="7" type="line"/>
      <point x="197" y="116" type="line"/>
      <point x="244" y="476" type="line"/>
    </contour>
    <contour>
      <point x="368" y="474" type="curve"/>
      <point x="355" y="473" type="line"/>
      <point x="315" y="435"/>
      <point x="279" y="393"/>
      <point x="242" y="346" type="curve"/>
      <point x="222" y="346" type="line"/>
      <point x="187" y="156" type="line"/>
      <point x="242" y="252"/>
      <point x="284" y="291"/>
      <point x="305" y="291" type="curve" smooth="yes"/>
      <point x="316" y="291"/>
      <point x="322" y="285"/>
      <point x="322" y="269" type="curve"/>
      <point x="321" y="259" type="line"/>
      <point x="283" y="24" type="line"/>
      <point x="463" y="116" type="line"/>
      <point x="502" y="349" type="line"/>
      <point x="503" y="363" type="line"/>
      <point x="504" y="418"/>
      <point x="441" y="460"/>
    </contour>
    <contour>
      <point x="463" y="116" type="line"/>
      <point x="283" y="24" type="line"/>
      <point x="274" y="-37"/>
      <point x="245" y="-76"/>
      <point x="196" y="-101" type="curve"/>
      <point x="194" y="-117" type="line"/>
      <point x="247" y="-197" type="line"/>
      <point x="374" y="-145"/>
      <point x="438" y="-73"/>
      <point x="453" y="34" type="curve"/>
    </contour>
  </outline>
</glyph>
<glyph name="OE" format="2">
  <advance width="891"/>
  <unicode hex="0152"/>
  <anchor x="656" y="647" name="top"/>
  <outline>
    <contour>
      <point x="402" y="659" type="curve" smooth="yes"/>
      <point x="171" y="659"/>
      <point x="24" y="509"/>
      <point x="24" y="262" type="curve" smooth="yes"/>
      <point x="24" y="88"/>
      <point x="120" y="-12"/>
      <point x="293" y="-12" type="curve" smooth="yes"/>
      <point x="377" y="-12"/>
      <point x="459" y="3"/>
      <point x="523" y="0" type="curve"/>
      <point x="837" y="0" type="line"/>
      <point x="867" y="146" type="line"/>
      <point x="858" y="160" type="line"/>
      <point x="691" y="154" type="line"/>
      <point x="595" y="154" type="line"/>
      <point x="600" y="210" type="line"/>
      <point x="604" y="248" type="line"/>
      <point x="695" y="248" type="line"/>
      <point x="811" y="245" type="line"/>
      <point x="841" y="391" type="line"/>
      <point x="832" y="405" type="line"/>
      <point x="727" y="402" type="line"/>
      <point x="628" y="402" type="line"/>
      <point x="641" y="493" type="line"/>
      <point x="744" y="493" type="line"/>
      <point x="903" y="487" type="line"/>
      <point x="934" y="633" type="line"/>
      <point x="924" y="647" type="line"/>
      <point x="602" y="647" type="line" smooth="yes"/>
      <point x="543" y="647"/>
      <point x="481" y="659"/>
    </contour>
    <contour>
      <point x="365" y="499" type="curve" smooth="yes"/>
      <point x="404" y="499"/>
      <point x="424" y="494"/>
      <point x="433" y="483" type="curve" smooth="yes"/>
      <point x="439" y="475"/>
      <point x="440" y="460"/>
      <point x="438" y="434" type="curve" smooth="yes"/>
      <point x="415" y="205" type="line" smooth="yes"/>
      <point x="413" y="177"/>
      <point x="406" y="160"/>
      <point x="396" y="151" type="curve" smooth="yes"/>
      <point x="385" y="141"/>
      <point x="364" y="136"/>
      <point x="328" y="136" type="curve" smooth="yes"/>
      <point x="261" y="136"/>
      <point x="235" y="172"/>
      <point x="235" y="264" type="curve" smooth="yes"/>
      <point x="235" y="459"/>
      <point x="282" y="499"/>
    </contour>
  </outline>
</glyph>
<glyph name="oe" format="2">
  <advance width="713"/>
  <unicode hex="0153"/>
  <anchor x="683" y="0" name="bottom"/>
  <anchor x="857" y="10" name="ogonek"/>
  <anchor x="495" y="472" name="top"/>
  <outline>
    <contour>
      <point x="291" y="484" type="line"/>
      <point x="119" y="474"/>
      <point x="12" y="361"/>
      <point x="12" y="183" type="curve" smooth="yes"/>
      <point x="12" y="72"/>
      <point x="70" y="11"/>
      <point x="163" y="-10" type="curve"/>
      <point x="179" y="-12" type="line"/>
      <point x="336" y="-4"/>
      <point x="439" y="117"/>
      <point x="439" y="301" type="curve" smooth="yes"/>
      <point x="439" y="401"/>
      <point x="394" y="463"/>
      <point x="307" y="482" type="curve"/>
    </contour>
    <contour>
      <point x="256" y="348" type="curve" smooth="yes"/>
      <point x="279" y="348"/>
      <point x="286" y="335"/>
      <point x="286" y="291" type="curve" smooth="yes"/>
      <point x="286" y="167"/>
      <point x="277" y="120"/>
      <point x="215" y="120" type="curve" smooth="yes"/>
      <point x="191" y="120"/>
      <point x="183" y="133"/>
      <point x="183" y="178" type="curve" smooth="yes"/>
      <point x="183" y="301"/>
      <point x="192" y="348"/>
    </contour>
    <contour>
      <point x="426" y="270" type="curve"/>
      <point x="426" y="170" type="line"/>
      <point x="628" y="216"/>
      <point x="701" y="270"/>
      <point x="701" y="354" type="curve" smooth="yes"/>
      <point x="701" y="427"/>
      <point x="652" y="468"/>
      <point x="579" y="482" type="curve"/>
      <point x="563" y="484" type="line"/>
      <point x="411" y="475"/>
      <point x="308" y="367"/>
      <point x="308" y="191" type="curve"/>
      <point x="308" y="90"/>
      <point x="358" y="2"/>
      <point x="478" y="-11" type="curve"/>
      <point x="494" y="-11" type="line"/>
      <point x="561" y="8"/>
      <point x="628" y="48"/>
      <point x="681" y="112" type="curve"/>
      <point x="624" y="184" type="line"/>
      <point x="602" y="187" type="line"/>
      <point x="573" y="144"/>
      <point x="544" y="125"/>
      <point x="510" y="125" type="curve" smooth="yes"/>
      <point x="469" y="125"/>
      <point x="454" y="151"/>
      <point x="454" y="234" type="curve" smooth="yes"/>
      <point x="454" y="330"/>
      <point x="474" y="371"/>
      <point x="517" y="371" type="curve" smooth="yes"/>
      <point x="536" y="371"/>
      <point x="544" y="363"/>
      <point x="544" y="343" type="curve" smooth="yes"/>
      <point x="544" y="301"/>
      <point x="509" y="285"/>
    </contour>
  </outline>
</glyph>
<glyph name="Tcedilla" format="2">
  <advance width="518"/>
  <unicode hex="0162"/>
  <anchor x="230" y="0" name="bottom"/>
  <anchor x="277" y="324" name="center"/>
  <anchor x="309" y="647" name="top"/>
  <outline>
    <contour>
      <point x="408" y="627" type="line"/>
      <point x="211" y="627" type="line"/>
      <point x="165" y="190" type="line"/>
      <point x="131" y="0" type="line"/>
      <point x="331" y="0" type="line"/>
      <point x="349" y="210" type="line"/>
    </contour>
    <contour>
      <point x="552" y="647" type="line"/>
      <point x="69" y="647" type="line"/>
      <point x="40" y="501" type="line"/>
      <point x="50" y="487" type="line"/>
      <point x="184" y="493" type="line"/>
      <point x="401" y="493" type="line"/>
      <point x="532" y="487" type="line"/>
      <point x="561" y="633" type="line"/>
    </contour>
    <contour>
      <point x="271" y="0" type="line"/>
      <point x="188" y="0" type="line"/>
      <point x="172" y="-78" type="line"/>
      <point x="222" y="-105" type="line" smooth="yes"/>
      <point x="230" y="-109"/>
      <point x="234" y="-113"/>
      <point x="234" y="-120" type="curve" smooth="yes"/>
      <point x="234" y="-129"/>
      <point x="229" y="-134"/>
      <point x="218" y="-134" type="curve" smooth="yes"/>
      <point x="204" y="-134"/>
      <point x="179" y="-124"/>
      <point x="158" y="-106" type="curve"/>
      <point x="150" y="-109" type="line"/>
      <point x="139" y="-184" type="line"/>
      <point x="166" y="-199"/>
      <point x="196" y="-208"/>
      <point x="231" y="-208" type="curve" smooth="yes"/>
      <point x="300" y="-208"/>
      <point x="341" y="-172"/>
      <point x="341" y="-124" type="curve" smooth="yes"/>
      <point x="341" y="-100"/>
      <point x="331" y="-79"/>
      <point x="297" y="-61" type="curve" smooth="yes"/>
      <point x="263" y="-42" type="line"/>
    </contour>
  </outline>
</glyph>
<glyph name="tbar" format="2">
  <advance width="371"/>
  <unicode hex="0167"/>
  <outline>
    <contour>
      <point x="196" y="-10" type="curve"/>
      <point x="259" y="9"/>
      <point x="307" y="50"/>
      <point x="347" y="120" type="curve"/>
      <point x="296" y="183" type="line"/>
      <point x="283" y="182" type="line"/>
      <point x="254" y="151"/>
      <point x="251" y="149"/>
      <point x="243" y="149" type="curve" smooth="yes"/>
      <point x="237" y="149"/>
      <point x="234" y="152"/>
      <point x="234" y="158" type="curve"/>
      <point x="235" y="166" type="line"/>
      <point x="299" y="588" type="line"/>
      <point x="287" y="598" type="line"/>
      <point x="117" y="560" type="line"/>
      <point x="96" y="355" type="line"/>
      <point x="64" y="137" type="line"/>
      <point x="61" y="107" type="line"/>
      <point x="58" y="36"/>
      <point x="111" y="-10"/>
    </contour>
    <contour>
      <point x="23" y="209" type="line"/>
      <point x="354" y="209" type="line"/>
      <point x="364" y="296" type="line"/>
      <point x="353" y="309" type="line"/>
      <point x="22" y="309" type="line"/>
      <point x="12" y="222" type="line"/>
    </contour>
    <contour>
      <point x="35" y="362" type="line"/>
      <point x="379" y="362" type="line"/>
      <point x="390" y="449" type="line"/>
      <point x="378" y="463" type="line"/>
      <point x="37" y="463" type="line"/>
      <point x="26" y="373" type="line"/>
    </contour>
  </outline>
</glyph>
<glyph name="longs" format="2">
  <advance width="300"/>
  <unicode hex="017F"/>
  <outline>
    <contour>
      <point x="370" y="702" type="line"/>
      <point x="218" y="702"/>
      <point x="123" y="624"/>
      <point x="106" y="466" type="curve" smooth="yes"/>
      <point x="77" y="190" type="line"/>
      <point x="38" y="-108" type="line"/>
      <point x="216" y="-97" type="line"/>
      <point x="220" y="12" type="line"/>
      <point x="245" y="210" type="line"/>
      <point x="288" y="508" type="line" smooth="yes"/>
      <point x="295" y="555"/>
      <point x="311" y="574"/>
      <point x="339" y="574" type="curve" smooth="yes"/>
      <point x="358" y="574"/>
      <point x="382" y="566"/>
      <point x="422" y="545" type="curve"/>
      <point x="445" y="553" type="line"/>
      <point x="493" y="674" type="line"/>
      <point x="484" y="688" type="line"/>
    </contour>
    <contour>
      <point x="161" y="362" type="line"/>
      <point x="161" y="463" type="line"/>
      <point x="37" y="463" type="line"/>
      <point x="25" y="373" type="line"/>
      <point x="33" y="362" type="line"/>
    </contour>
  </outline>
</glyph>
<glyph name="florin" format="2">
  <advance width="361"/>
  <unicode hex="0192"/>
  <outline>
    <contour>
      <point x="357" y="626" type="curve" smooth="yes"/>
      <point x="209" y="626"/>
      <point x="113" y="556"/>
      <point x="98" y="429" type="curve" smooth="yes"/>
      <point x="94" y="397" type="line"/>
      <point x="23" y="397" type="line"/>
      <point x="13" y="299" type="line"/>
      <point x="17" y="290" type="line"/>
      <point x="83" y="290" type="line"/>
      <point x="71" y="167" type="line"/>
      <point x="59" y="60" type="line" smooth="yes"/>
      <point x="50" y="2"/>
      <point x="30" y="-32"/>
      <point x="-14" y="-58" type="curve"/>
      <point x="-16" y="-72" type="line"/>
      <point x="64" y="-151" type="line"/>
      <point x="172" y="-99"/>
      <point x="215" y="-36"/>
      <point x="227" y="64" type="curve"/>
      <point x="240" y="186" type="line"/>
      <point x="253" y="290" type="line"/>
      <point x="353" y="290" type="line"/>
      <point x="363" y="387" type="line"/>
      <point x="359" y="397" type="line"/>
      <point x="268" y="397" type="line"/>
      <point x="277" y="461" type="line" smooth="yes"/>
      <point x="281" y="491"/>
      <point x="299" y="500"/>
      <point x="324" y="500" type="curve" smooth="yes"/>
      <point x="343" y="500"/>
      <point x="369" y="494"/>
      <point x="407" y="478" type="curve"/>
      <point x="420" y="486" type="line"/>
      <point x="446" y="617" type="line"/>
      <point x="416" y="623"/>
      <point x="387" y="626"/>
    </contour>
  </outline>
</glyph>
<glyph name="Ohorn" format="2">
  <advance width="699"/>
  <unicode hex="01A0"/>
  <anchor x="379" y="647" name="top"/>
  <outline>
    <contour>
      <point x="297" y="-12" type="curve" smooth="yes"/>
      <point x="514" y="-12"/>
      <point x="654" y="142"/>
      <point x="654" y="380" type="curve" smooth="yes"/>
      <point x="654" y="467"/>
      <point x="635" y="526"/>
      <point x="589" y="588" type="curve"/>
      <point x="547" y="527" type="line"/>
      <point x="660" y="534"/>
      <point x="749" y="602"/>
      <point x="749" y="691" type="curve" smooth="yes"/>
      <point x="749" y="747"/>
      <point x="714" y="785"/>
      <point x="667" y="785" type="curve" smooth="yes"/>
      <point x="639" y="785"/>
      <point x="607" y="772"/>
      <point x="572" y="748" type="curve"/>
      <point x="569" y="734" type="line"/>
      <point x="588" y="718"/>
      <point x="598" y="698"/>
      <point x="598" y="674" type="curve" smooth="yes"/>
      <point x="598" y="645"/>
      <point x="583" y="631"/>
      <point x="552" y="631" type="curve" smooth="yes"/>
      <point x="507" y="631"/>
      <point x="461" y="659"/>
      <point x="373" y="659" type="curve" smooth="yes"/>
      <point x="167" y="659"/>
      <point x="24" y="503"/>
      <point x="24" y="277" type="curve" smooth="yes"/>
      <point x="24" y="90"/>
      <point x="121" y="-12"/>
    </contour>
    <contour>
      <point x="318" y="136" type="curve" smooth="yes"/>
      <point x="251" y="136"/>
      <point x="234" y="171"/>
      <point x="234" y="279" type="curve" smooth="yes"/>
      <point x="234" y="433"/>
      <point x="269" y="499"/>
      <point x="360" y="499" type="curve" smooth="yes"/>
      <point x="427" y="499"/>
      <point x="444" y="464"/>
      <point x="444" y="356" type="curve" smooth="yes"/>
      <point x="444" y="201"/>
      <point x="409" y="136"/>
    </contour>
  </outline>
</glyph>
<glyph name="ohorn" format="2">
  <advance width="513"/>
  <unicode hex="01A1"/>
  <anchor x="211" y="0" name="bottom"/>
  <anchor x="236" y="472" name="top"/>
  <outline>
    <contour>
      <point x="479" y="628" type="curve" smooth="yes"/>
      <point x="450" y="628"/>
      <point x="417" y="613"/>
      <point x="384" y="584" type="curve"/>
      <point x="381" y="570" type="line"/>
      <point x="402" y="552"/>
      <point x="410" y="538"/>
      <point x="410" y="518" type="curve" smooth="yes"/>
      <point x="410" y="491"/>
      <point x="395" y="476"/>
      <point x="369" y="476" type="curve" smooth="yes"/>
      <point x="351" y="476"/>
      <point x="325" y="479"/>
      <point x="307" y="482" type="curve"/>
      <point x="415" y="405" type="line"/>
      <point x="486" y="403"/>
      <point x="561" y="472"/>
      <point x="561" y="540" type="curve" smooth="yes"/>
      <point x="561" y="591"/>
      <point x="526" y="628"/>
    </contour>
    <contour>
      <point x="291" y="484" type="line"/>
      <point x="118" y="474"/>
      <point x="12" y="360"/>
      <point x="12" y="183" type="curve" smooth="yes"/>
      <point x="12" y="79"/>
      <point x="64" y="12"/>
      <point x="163" y="-10" type="curve"/>
      <point x="179" y="-12" type="line"/>
      <point x="356" y="-3"/>
      <point x="459" y="113"/>
      <point x="459" y="301" type="curve" smooth="yes"/>
      <point x="459" y="353"/>
      <point x="443" y="396"/>
      <point x="412" y="428" type="curve"/>
      <point x="307" y="482" type="line"/>
    </contour>
    <contour>
      <point x="256" y="348" type="curve" smooth="yes"/>
      <point x="279" y="348"/>
      <point x="286" y="335"/>
      <point x="286" y="291" type="curve" smooth="yes"/>
      <point x="286" y="154"/>
      <point x="272" y="120"/>
      <point x="215" y="120" type="curve" smooth="yes"/>
      <point x="191" y="120"/>
      <point x="183" y="134"/>
      <point x="183" y="178" type="curve" smooth="yes"/>
      <point x="183" y="314"/>
      <point x="198" y="348"/>
    </contour>
  </outline>
</glyph>
<glyph name="Gstroke" format="2">
  <advance width="629"/>
  <unicode hex="01E4"/>
  <anchor x="270" y="0" name="bottom"/>
  <anchor x="379" y="647" name="top"/>
  <outline>
    <contour>
      <point x="316" y="-12" type="curve" smooth="yes"/>
      <point x="389" y="-12"/>
      <point x="460" y="2"/>
      <point x="542" y="32" type="curve"/>
      <point x="564" y="209" type="line"/>
      <point x="581" y="327" type="line"/>
      <point x="396" y="314" type="line"/>
      <point x="383" y="175" type="line"/>
      <point x="379" y="143" type="line"/>
      <point x="368" y="141"/>
      <point x="359" y="139"/>
      <point x="343" y="139" type="curve" smooth="yes"/>
      <point x="265" y="139"/>
      <point x="234" y="167"/>
      <point x="234" y="260" type="curve" smooth="yes"/>
      <point x="234" y="463"/>
      <point x="291" y="498"/>
      <point x="379" y="498" type="curve" smooth="yes"/>
      <point x="439" y="498"/>
      <point x="481" y="482"/>
      <point x="539" y="451" type="curve"/>
      <point x="555" y="451" type="line"/>
      <point x="620" y="628" type="line"/>
      <point x="572" y="647"/>
      <point x="496" y="658"/>
      <point x="426" y="658" type="curve" smooth="yes"/>
      <point x="165" y="658"/>
      <point x="24" y="514"/>
      <point x="24" y="258" type="curve" smooth="yes"/>
      <point x="24" y="88"/>
      <point x="127" y="-12"/>
    </contour>
    <contour>
      <point x="288" y="173" type="line"/>
      <point x="606" y="173" type="line"/>
      <point x="621" y="264" type="line"/>
      <point x="617" y="274" type="line"/>
      <point x="300" y="274" type="line"/>
      <point x="283" y="183" type="line"/>
    </contour>
  </outline>
</glyph>
<glyph name="gstroke" format="2">
  <advance width="542"/>
  <unicode hex="01E5"/>
  <anchor x="313" y="460" name="top"/>
  <outline>
    <contour>
      <point x="502" y="484" type="line"/>
      <point x="348" y="451" type="line"/>
      <point x="344" y="358" type="line"/>
      <point x="296" y="-1" type="line" smooth="yes"/>
      <point x="292" y="-51"/>
      <point x="262" y="-72"/>
      <point x="224" y="-72" type="curve" smooth="yes"/>
      <point x="187" y="-72"/>
      <point x="175" y="-51"/>
      <point x="175" y="-32" type="curve" smooth="yes"/>
      <point x="175" y="-23"/>
      <point x="178" y="-14"/>
      <point x="191" y="-3" type="curve" smooth="yes"/>
      <point x="213" y="17" type="line"/>
      <point x="134" y="76" type="line"/>
      <point x="130" y="35" type="line"/>
      <point x="-2" y="-20" type="line"/>
      <point x="-6" y="-31" type="line"/>
      <point x="7" y="-121"/>
      <point x="65" y="-196"/>
      <point x="193" y="-196" type="curve" smooth="yes"/>
      <point x="327" y="-196"/>
      <point x="443" y="-113"/>
      <point x="464" y="50" type="curve"/>
      <point x="467" y="133" type="line"/>
      <point x="513" y="476" type="line"/>
    </contour>
    <contour>
      <point x="310" y="479" type="line"/>
      <point x="304" y="479" type="line"/>
      <point x="150" y="429"/>
      <point x="73" y="303"/>
      <point x="73" y="179" type="curve" smooth="yes"/>
      <point x="73" y="105"/>
      <point x="100" y="43"/>
      <point x="200" y="17" type="curve"/>
      <point x="213" y="17" type="line"/>
      <point x="246" y="51"/>
      <point x="275" y="90"/>
      <point x="301" y="133" type="curve"/>
      <point x="319" y="133" type="line"/>
      <point x="355" y="357" type="line"/>
      <point x="303" y="228"/>
      <point x="267" y="168"/>
      <point x="245" y="168" type="curve" smooth="yes"/>
      <point x="232" y="168"/>
      <point x="223" y="187"/>
      <point x="223" y="240" type="curve" smooth="yes"/>
      <point x="223" y="317"/>
      <point x="242" y="358"/>
      <point x="279" y="358" type="curve"/>
      <point x="393" y="331" type="line"/>
      <point x="480" y="449" type="line"/>
    </contour>
    <contour>
      <point x="-31" y="0" type="line"/>
      <point x="516" y="0" type="line"/>
      <point x="522" y="42" type="line"/>
      <point x="516" y="46" type="line"/>
      <point x="-30" y="46" type="line"/>
      <point x="-36" y="5" type="line"/>
    </contour>
  </outline>
</glyph>
<glyph name="Aringacute" format="2">
  <advance width="658"/>
  <unicode hex="01FA"/>
  <anchor x="376" y="526" name="_top"/>
  <anchor x="411" y="810" name="top"/>
  <outline>
    <contour>
      <point x="501" y="647" type="line"/>
      <point x="300" y="647" type="line"/>
      <point x="4" y="0" type="line"/>
      <point x="200" y="0" type="line"/>
      <point x="233" y="115" type="line"/>
      <point x="366" y="450" type="line"/>
      <point x="378" y="450" type="line"/>
      <point x="411" y="103" type="line"/>
      <point x="416" y="0" type="line"/>
      <point x="619" y="0" type="line"/>
    </contour>
    <contour>
      <point x="444" y="248" type="line"/>
      <point x="341" y="246" type="line"/>
      <point x="219" y="248" type="line"/>
      <point x="202" y="103" type="line"/>
      <point x="312" y="108" type="line"/>
      <point x="427" y="106" type="line"/>
    </contour>
    <contour>
      <point x="311" y="288" type="move"/>
    </contour>
    <contour>
      <point x="406" y="810" type="curve" smooth="yes"/>
      <point x="331" y="810"/>
      <point x="292" y="772"/>
      <point x="292" y="699" type="curve" smooth="yes"/>
      <point x="292" y="628"/>
      <point x="328" y="592"/>
      <point x="398" y="592" type="curve" smooth="yes"/>
      <point x="473" y="592"/>
      <point x="512" y="633"/>
      <point x="512" y="706" type="curve" smooth="yes"/>
      <point x="512" y="775"/>
      <point x="477" y="810"/>
    </contour>
    <contour>
      <point x="401" y="732" type="curve" smooth="yes"/>
      <point x="427" y="732"/>
      <point x="437" y="723"/>
      <point x="437" y="699" type="curve" smooth="yes"/>
      <point x="437" y="676"/>
      <point x="428" y="668"/>
      <point x="403" y="668" type="curve" smooth="yes"/>
      <point x="377" y="668"/>
      <point x="367" y="677"/>
      <point x="367" y="702" type="curve" smooth="yes"/>
      <point x="367" y="724"/>
      <point x="376" y="732"/>
    </contour>
    <contour>
      <point x="527.187" y="1007.663" type="line"/>
      <point x="451.599" y="974.633"/>
      <point x="376.378" y="944.581"/>
      <point x="288.881" y="913.013" type="curve"/>
      <point x="309.025" y="830.949" type="line"/>
      <point x="325.41" y="824.907" type="line"/>
      <point x="404.271" y="835.37"/>
      <point x="481.39" y="848.063"/>
      <point x="570.036" y="864.377" type="curve"/>
      <point x="577.942" y="879.525" type="line"/>
      <point x="543.572" y="1001.621" type="line"/>
    </contour>
  </outline>
</glyph>
<glyph name="jdotless" format="2">
  <advance width="287"/>
  <unicode hex="0237"/>
  <anchor x="160" y="472" name="top"/>
  <outline>
    <contour>
      <point x="263" y="476" type="line"/>
      <point x="97" y="463" type="line"/>
      <point x="24" y="463" type="line"/>
      <point x="11" y="373" type="line"/>
      <point x="18" y="362" type="line"/>
      <point x="81" y="362" type="line"/>
      <point x="83" y="347" type="line"/>
      <point x="40" y="26" type="line" smooth="yes"/>
      <point x="31" y="-35"/>
      <point x="2" y="-74"/>
      <point x="-51" y="-99" type="curve"/>
      <point x="-53" y="-115" type="line"/>
      <point x="3" y="-195" type="line"/>
      <point x="133" y="-143"/>
      <point x="197" y="-71"/>
      <point x="210" y="36" type="curve"/>
      <point x="218" y="118" type="line"/>
      <point x="267" y="472" type="line"/>
    </contour>
  </outline>
</glyph>
<glyph name="apostrophemod" format="2">
  <advance width="260"/>
  <unicode hex="02BC"/>
  <outline>
    <contour>
      <point x="202" y="659" type="curve"/>
      <point x="157" y="642"/>
      <point x="115" y="616"/>
      <point x="77" y="588" type="curve"/>
      <point x="77" y="573" type="line"/>
      <point x="109" y="549"/>
      <point x="119" y="523"/>
      <point x="119" y="485" type="curve" smooth="yes"/>
      <point x="119" y="455"/>
      <point x="106" y="426"/>
      <point x="80" y="397" type="curve"/>
      <point x="83" y="385" type="line"/>
      <point x="148" y="343" type="line"/>
      <point x="225" y="414"/>
      <point x="262" y="477"/>
      <point x="262" y="543" type="curve" smooth="yes"/>
      <point x="262" y="595"/>
      <point x="244" y="631"/>
    </contour>
  </outline>
</glyph>
<glyph name="verticallinelowmod" format="2">
  <advance width="234"/>
  <unicode hex="02CC"/>
  <outline>
    <contour>
      <point x="-10" y="-230" type="line"/>
      <point x="130" y="-230" type="line"/>
      <point x="152" y="-46" type="line"/>
      <point x="12" y="-46" type="line"/>
    </contour>
  </outline>
</glyph>
<glyph name="gravecomb" format="2">
  <unicode hex="0300"/>
  <anchor x="265" y="472" name="_top"/>
  <anchor x="259" y="755" name="top"/>
  <outline>
    <contour>
      <point x="187" y="755" type="curve"/>
      <point x="170" y="754" type="line"/>
      <point x="101" y="647" type="line"/>
      <point x="104" y="630" type="line"/>
      <point x="185" y="589"/>
      <point x="255" y="554"/>
      <point x="327" y="521" type="curve"/>
      <point x="344" y="522" type="line"/>
      <point x="388" y="594" type="line"/>
      <point x="313" y="650"/>
      <point x="250" y="701"/>
    </contour>
  </outline>
</glyph>
<glyph name="acutecomb" format="2">
  <unicode hex="0301"/>
  <anchor x="218" y="472" name="_top"/>
  <anchor x="253" y="755" name="top"/>
  <outline>
    <contour>
      <point x="296" y="755" type="line"/>
      <point x="233" y="701"/>
      <point x="170" y="650"/>
      <point x="95" y="594" type="curve"/>
      <point x="139" y="522" type="line"/>
      <point x="156" y="521" type="line"/>
      <point x="228" y="554"/>
      <point x="298" y="589"/>
      <point x="379" y="630" type="curve"/>
      <point x="382" y="647" type="line"/>
      <point x="313" y="754" type="line"/>
    </contour>
  </outline>
</glyph>
<glyph name="tildecomb" format="2">
  <unicode hex="0303"/>
  <anchor x="217" y="472" name="_top"/>
  <anchor x="250" y="741" name="top"/>
  <outline>
    <contour>
      <point x="376" y="741" type="line"/>
      <point x="360" y="741" type="line"/>
      <point x="337" y="712"/>
      <point x="317" y="683"/>
      <point x="291" y="683" type="curve" smooth="yes"/>
      <point x="265" y="683"/>
      <point x="190" y="710"/>
      <point x="138" y="717" type="curve"/>
      <point x="122" y="711" type="line"/>
      <point x="41" y="598" type="line"/>
      <point x="41" y="582" type="line"/>
      <point x="98" y="527" type="line"/>
      <point x="114" y="527" type="line"/>
      <point x="137" y="556"/>
      <point x="157" y="585"/>
      <point x="183" y="585" type="curve" smooth="yes"/>
      <point x="209" y="585"/>
      <point x="284" y="558"/>
      <point x="336" y="551" type="curve"/>
      <point x="352" y="557" type="line"/>
      <point x="433" y="670" type="line"/>
      <point x="433" y="686" type="line"/>
    </contour>
  </outline>
</glyph>
<glyph name="macroncomb" format="2">
  <unicode hex="0304"/>
  <anchor x="222" y="472" name="_top"/>
  <anchor x="249" y="691" name="top"/>
  <outline>
    <contour>
      <point x="378" y="691" type="line"/>
      <point x="102" y="691" type="line"/>
      <point x="93" y="584" type="line"/>
      <point x="105" y="571" type="line"/>
      <point x="381" y="571" type="line"/>
      <point x="390" y="678" type="line"/>
    </contour>
  </outline>
</glyph>
<glyph name="brevecomb" format="2">
  <unicode hex="0306"/>
  <anchor x="227" y="472" name="_top"/>
  <anchor x="259" y="733" name="top"/>
  <outline>
    <contour>
      <point x="392" y="733" type="line"/>
      <point x="365" y="733" type="line"/>
      <point x="341" y="693"/>
      <point x="296" y="670"/>
      <point x="247" y="670" type="curve" smooth="yes"/>
      <point x="199" y="670"/>
      <point x="159" y="693"/>
      <point x="143" y="733" type="curve"/>
      <point x="116" y="733" type="line"/>
      <point x="69" y="671" type="line"/>
      <point x="81" y="607"/>
      <point x="126" y="535"/>
      <point x="235" y="535" type="curve" smooth="yes"/>
      <point x="334" y="535"/>
      <point x="396" y="603"/>
      <point x="424" y="671" type="curve" smooth="yes"/>
    </contour>
  </outline>
</glyph>
<glyph name="dieresiscomb" format="2">
  <unicode hex="0308"/>
  <anchor x="225" y="472" name="_top"/>
  <anchor x="235" y="636" name="top"/>
  <outline>
    <contour>
      <point x="151" y="716" type="curve" smooth="yes"/>
      <point x="96" y="716"/>
      <point x="62" y="682"/>
      <point x="62" y="626" type="curve" smooth="yes"/>
      <point x="62" y="573"/>
      <point x="91" y="543"/>
      <point x="144" y="543" type="curve" smooth="yes"/>
      <point x="198" y="543"/>
      <point x="232" y="578"/>
      <point x="232" y="634" type="curve" smooth="yes"/>
      <point x="232" y="686"/>
      <point x="202" y="716"/>
    </contour>
    <contour>
      <point x="345" y="716" type="curve" smooth="yes"/>
      <point x="290" y="716"/>
      <point x="256" y="682"/>
      <point x="256" y="626" type="curve" smooth="yes"/>
      <point x="256" y="573"/>
      <point x="285" y="543"/>
      <point x="338" y="543" type="curve" smooth="yes"/>
      <point x="392" y="543"/>
      <point x="426" y="578"/>
      <point x="426" y="634" type="curve" smooth="yes"/>
      <point x="426" y="686"/>
      <point x="396" y="716"/>
    </contour>
  </outline>
</glyph>
<glyph name="hookabovecomb" format="2">
  <unicode hex="0309"/>
  <anchor x="223" y="501" name="_custom1"/>
  <anchor x="215" y="472" name="_top"/>
  <anchor x="208" y="773" name="top"/>
  <outline>
    <contour>
      <point x="223" y="501" type="line"/>
      <point x="287" y="540" type="line"/>
      <point x="260" y="583" type="line"/>
      <point x="307" y="625"/>
      <point x="321" y="646"/>
      <point x="321" y="675" type="curve" smooth="yes"/>
      <point x="321" y="728"/>
      <point x="277" y="763"/>
      <point x="221" y="763" type="curve" smooth="yes"/>
      <point x="175" y="763"/>
      <point x="128" y="739"/>
      <point x="94" y="702" type="curve"/>
      <point x="123" y="655" type="line"/>
      <point x="144" y="671"/>
      <point x="172" y="681"/>
      <point x="193" y="681" type="curve" smooth="yes"/>
      <point x="210" y="681"/>
      <point x="223" y="674"/>
      <point x="223" y="657" type="curve" smooth="yes"/>
      <point x="223" y="636"/>
      <point x="203" y="605"/>
      <point x="169" y="581" type="curve"/>
    </contour>
  </outline>
</glyph>
<glyph name="hungarumlautcomb" format="2">
  <unicode hex="030B"/>
  <anchor x="219" y="472" name="_top"/>
  <anchor x="274" y="763" name="top"/>
  <outline>
    <contour>
      <point x="251" y="568" type="curve"/>
      <point x="309" y="522" type="line"/>
      <point x="324" y="527" type="line"/>
      <point x="373" y="578"/>
      <point x="422" y="631"/>
      <point x="469" y="686" type="curve"/>
      <point x="466" y="700" type="line"/>
      <point x="376" y="763" type="line"/>
      <point x="363" y="759" type="line"/>
      <point x="327" y="694"/>
      <point x="290" y="631"/>
    </contour>
    <contour>
      <point x="86" y="568" type="curve"/>
      <point x="144" y="522" type="line"/>
      <point x="159" y="527" type="line"/>
      <point x="208" y="578"/>
      <point x="257" y="631"/>
      <point x="304" y="686" type="curve"/>
      <point x="301" y="700" type="line"/>
      <point x="211" y="763" type="line"/>
      <point x="198" y="759" type="line"/>
      <point x="162" y="694"/>
      <point x="125" y="631"/>
    </contour>
  </outline>
</glyph>
<glyph name="dblgravecomb" format="2">
  <unicode hex="030F"/>
  <anchor x="294" y="472" name="_top"/>
  <anchor x="239" y="763" name="top"/>
  <outline>
    <contour>
      <point x="419" y="522" type="line"/>
      <point x="477" y="568" type="line"/>
      <point x="438" y="631"/>
      <point x="401" y="694"/>
      <point x="365" y="759" type="curve"/>
      <point x="352" y="763" type="line"/>
      <point x="262" y="700" type="line"/>
      <point x="259" y="686" type="line"/>
      <point x="306" y="631"/>
      <point x="355" y="578"/>
      <point x="404" y="527" type="curve"/>
    </contour>
    <contour>
      <point x="254" y="522" type="line"/>
      <point x="312" y="568" type="line"/>
      <point x="273" y="631"/>
      <point x="236" y="694"/>
      <point x="200" y="759" type="curve"/>
      <point x="187" y="763" type="line"/>
      <point x="97" y="700" type="line"/>
      <point x="94" y="686" type="line"/>
      <point x="141" y="631"/>
      <point x="190" y="578"/>
      <point x="239" y="527" type="curve"/>
    </contour>
  </outline>
</glyph>
<glyph name="horncomb" format="2">
  <unicode hex="031B"/>
  <anchor x="29" y="472" name="_topright"/>
  <anchor x="29" y="472" name="topright"/>
  <outline>
    <contour>
      <point x="56" y="376" type="line"/>
      <point x="173" y="376"/>
      <point x="253" y="437"/>
      <point x="253" y="527" type="curve" smooth="yes"/>
      <point x="253" y="587"/>
      <point x="218" y="630"/>
      <point x="169" y="630" type="curve" smooth="yes"/>
      <point x="136" y="630"/>
      <point x="101" y="611"/>
      <point x="76" y="593" type="curve"/>
      <point x="73" y="579" type="line"/>
      <point x="91" y="563"/>
      <point x="102" y="540"/>
      <point x="102" y="517" type="curve" smooth="yes"/>
      <point x="102" y="489"/>
      <point x="87" y="472"/>
      <point x="56" y="472" type="curve"/>
    </contour>
  </outline>
</glyph>
<glyph name="commaaccentcomb" format="2">
  <unicode hex="0326"/>
  <anchor x="30" y="0" name="_bottom"/>
  <anchor x="13" y="-142" name="bottom"/>
  <outline>
    <contour>
      <point x="86.6377" y="-16.63470000000001" type="curve"/>
      <point x="40.2736" y="-28.453000000000003"/>
      <point x="-2.454099999999997" y="-46.63499999999999"/>
      <point x="-43.3636" y="-69.3625" type="curve"/>
      <point x="-44.2727" y="-83.9081" type="line"/>
      <point x="-23.3634" y="-104.81739999999999"/>
      <point x="-14.272399999999998" y="-125.7267"/>
      <point x="-14.272399999999998" y="-152.0906" type="curve" smooth="yes"/>
      <point x="-14.272399999999998" y="-190.2728"/>
      <point x="-30.6362" y="-221.1822"/>
      <point x="-65.182" y="-251.1825" type="curve"/>
      <point x="-63.3638" y="-263.9099" type="line"/>
      <point x="-7.908699999999996" y="-312.0922" type="line"/>
      <point x="86.6377" y="-246.637"/>
      <point x="130.27450000000002" y="-183.9091"/>
      <point x="130.27450000000002" y="-112.9993" type="curve" smooth="yes"/>
      <point x="130.27450000000002" y="-74.8171"/>
      <point x="116.638" y="-44.8168"/>
    </contour>
  </outline>
</glyph>
<glyph name="ogonekcomb" format="2">
  <unicode hex="0328"/>
  <anchor x="245" y="43" name="_ogonek"/>
  <outline>
    <contour>
      <point x="128" y="-197" type="curve" smooth="yes"/>
      <point x="164" y="-197"/>
      <point x="205" y="-184"/>
      <point x="245" y="-161" type="curve"/>
      <point x="231" y="-77" type="line"/>
      <point x="222" y="-75" type="line"/>
      <point x="191" y="-88"/>
      <point x="167" y="-94"/>
      <point x="151" y="-94" type="curve" smooth="yes"/>
      <point x="135" y="-94"/>
      <point x="128" y="-88"/>
      <point x="128" y="-77" type="curve" smooth="yes"/>
      <point x="128" y="-64"/>
      <point x="133" y="-59"/>
      <point x="245" y="43" type="curve"/>
      <point x="151" y="43" type="line"/>
      <point x="33" y="-37"/>
      <point x="14" y="-60"/>
      <point x="14" y="-107" type="curve" smooth="yes"/>
      <point x="14" y="-161"/>
      <point x="59" y="-197"/>
    </contour>
  </outline>
</glyph>
<glyph name="macronbelowcomb" format="2">
  <unicode hex="0331"/>
  <anchor x="148" y="0" name="_bottom"/>
  <anchor x="125" y="-185" name="bottom"/>
  <outline>
    <contour>
      <point x="253" y="-65" type="line"/>
      <point x="9" y="-65" type="line"/>
      <point x="0" y="-172" type="line"/>
      <point x="12" y="-185" type="line"/>
      <point x="256" y="-185" type="line"/>
      <point x="265" y="-78" type="line"/>
    </contour>
  </outline>
</glyph>
<glyph name="lowernumeral-greek" format="2">
  <advance width="250"/>
  <unicode hex="0375"/>
  <outline>
    <contour>
      <point x="-4" y="-172" type="line"/>
      <point x="148" y="-163" type="line"/>
      <point x="171" y="105" type="line"/>
      <point x="157" y="116" type="line"/>
      <point x="67" y="102" type="line"/>
      <point x="-13" y="-160" type="line"/>
    </contour>
  </outline>
</glyph>
<glyph name="dieresistonos" format="2">
  <advance width="485"/>
  <unicode hex="0385"/>
  <anchor x="272" y="472" name="top"/>
  <outline>
    <contour>
      <point x="278" y="541" type="line"/>
      <point x="300" y="547" type="line"/>
      <point x="397" y="727" type="line"/>
      <point x="390" y="740" type="line"/>
      <point x="282" y="783" type="line"/>
      <point x="271" y="774" type="line"/>
      <point x="255" y="704"/>
      <point x="236" y="636"/>
      <point x="216" y="569" type="curve"/>
    </contour>
    <contour>
      <point x="128" y="554" type="curve" smooth="yes"/>
      <point x="176" y="554"/>
      <point x="206" y="585"/>
      <point x="206" y="633" type="curve" smooth="yes"/>
      <point x="206" y="679"/>
      <point x="180" y="705"/>
      <point x="135" y="705" type="curve" smooth="yes"/>
      <point x="87" y="705"/>
      <point x="57" y="674"/>
      <point x="57" y="626" type="curve" smooth="yes"/>
      <point x="57" y="579"/>
      <point x="82" y="554"/>
    </contour>
    <contour>
      <point x="448" y="554" type="curve" smooth="yes"/>
      <point x="496" y="554"/>
      <point x="525" y="585"/>
      <point x="525" y="633" type="curve" smooth="yes"/>
      <point x="525" y="679"/>
      <point x="499" y="705"/>
      <point x="454" y="705" type="curve" smooth="yes"/>
      <point x="406" y="705"/>
      <point x="376" y="674"/>
      <point x="376" y="626" type="curve" smooth="yes"/>
      <point x="376" y="579"/>
      <point x="401" y="554"/>
    </contour>
  </outline>
</glyph>
<glyph name="Delta" format="2">
  <advance width="578"/>
  <unicode hex="0394"/>
  <outline>
    <contour>
      <point x="-11" y="0" type="line"/>
      <point x="529" y="0" type="line"/>
      <point x="546" y="128" type="line"/>
      <point x="465" y="647" type="line"/>
      <point x="222" y="647" type="line"/>
      <point x="6" y="128" type="line"/>
    </contour>
    <contour>
      <point x="195" y="154" type="line"/>
      <point x="311" y="468" type="line"/>
      <point x="323" y="468" type="line"/>
      <point x="353" y="154" type="line"/>
    </contour>
  </outline>
</glyph>
<glyph name="Theta" format="2">
  <advance width="685"/>
  <unicode hex="0398"/>
  <outline>
    <contour>
      <point x="273" y="249" type="line"/>
      <point x="422" y="254" type="line"/>
      <point x="442" y="379" type="line"/>
      <point x="431" y="391" type="line"/>
      <point x="283" y="386" type="line"/>
      <point x="262" y="261" type="line"/>
    </contour>
    <contour>
      <point x="408" y="659" type="curve" smooth="yes"/>
      <point x="173" y="659"/>
      <point x="23" y="506"/>
      <point x="23" y="264" type="curve" smooth="yes"/>
      <point x="23" y="92"/>
      <point x="122" y="-12"/>
      <point x="297" y="-12" type="curve" smooth="yes"/>
      <point x="533" y="-12"/>
      <point x="683" y="144"/>
      <point x="683" y="386" type="curve" smooth="yes"/>
      <point x="683" y="556"/>
      <point x="583" y="659"/>
    </contour>
    <contour>
      <point x="371" y="499" type="curve" smooth="yes"/>
      <point x="446" y="499"/>
      <point x="477" y="465"/>
      <point x="477" y="364" type="curve" smooth="yes"/>
      <point x="477" y="211"/>
      <point x="453" y="136"/>
      <point x="333" y="136" type="curve" smooth="yes"/>
      <point x="257" y="136"/>
      <point x="227" y="170"/>
      <point x="227" y="270" type="curve" smooth="yes"/>
      <point x="227" y="459"/>
      <point x="283" y="499"/>
    </contour>
  </outline>
</glyph>
<glyph name="Lambda" format="2">
  <advance width="627"/>
  <unicode hex="039B"/>
  <outline>
    <contour>
      <point x="-27" y="0" type="line"/>
      <point x="169" y="0" type="line"/>
      <point x="205" y="119" type="line"/>
      <point x="339" y="468" type="line"/>
      <point x="351" y="468" type="line"/>
      <point x="382" y="107" type="line"/>
      <point x="387" y="0" type="line"/>
      <point x="588" y="0" type="line"/>
      <point x="490" y="647" type="line"/>
      <point x="248" y="647" type="line"/>
    </contour>
  </outline>
</glyph>
<glyph name="Xi" format="2">
  <advance width="550"/>
  <unicode hex="039E"/>
  <outline>
    <contour>
      <point x="19" y="0" type="line"/>
      <point x="472" y="0" type="line"/>
      <point x="509" y="161" type="line"/>
      <point x="498" y="176" type="line"/>
      <point x="266" y="169" type="line"/>
      <point x="43" y="176" type="line"/>
      <point x="29" y="161" type="line"/>
    </contour>
    <contour>
      <point x="97" y="237" type="line"/>
      <point x="288" y="240" type="line"/>
      <point x="446" y="237" type="line"/>
      <point x="482" y="397" type="line"/>
      <point x="473" y="412" type="line"/>
      <point x="311" y="408" type="line"/>
      <point x="122" y="412" type="line"/>
      <point x="86" y="252" type="line"/>
    </contour>
    <contour>
      <point x="74" y="471" type="line"/>
      <point x="319" y="478" type="line"/>
      <point x="531" y="471" type="line"/>
      <point x="567" y="632" type="line"/>
      <point x="557" y="647" type="line"/>
      <point x="100" y="647" type="line"/>
      <point x="64" y="487" type="line"/>
    </contour>
  </outline>
</glyph>
<glyph name="Pi" format="2">
  <advance width="694"/>
  <unicode hex="03A0"/>
  <anchor x="397" y="0" name="bottomright"/>
  <outline>
    <contour>
      <point x="397" y="0" type="line"/>
      <point x="599" y="0" type="line"/>
      <point x="617" y="210" type="line"/>
      <point x="681" y="647" type="line"/>
      <point x="476" y="647" type="line"/>
      <point x="430" y="190" type="line"/>
    </contour>
    <contour>
      <point x="31" y="0" type="line"/>
      <point x="232" y="0" type="line"/>
      <point x="250" y="210" type="line"/>
      <point x="314" y="647" type="line"/>
      <point x="110" y="647" type="line"/>
      <point x="64" y="190" type="line"/>
    </contour>
    <contour>
      <point x="263" y="482" type="line"/>
      <point x="369" y="489" type="line"/>
      <point x="480" y="485" type="line"/>
      <point x="500" y="647" type="line"/>
      <point x="284" y="647" type="line"/>
    </contour>
  </outline>
</glyph>
<glyph name="alpha" format="2">
  <advance width="482"/>
  <unicode hex="03B1"/>
  <anchor x="214" y="0" name="bottom"/>
  <anchor x="285" y="472" name="top"/>
  <outline>
    <contour>
      <point x="141" y="-11" type="curve"/>
      <point x="164" y="-11" type="line"/>
      <point x="194" y="25"/>
      <point x="217" y="64"/>
      <point x="238" y="105" type="curve"/>
      <point x="257" y="105" type="line"/>
      <point x="296" y="348" type="line"/>
      <point x="245" y="215"/>
      <point x="210" y="147"/>
      <point x="187" y="147" type="curve" smooth="yes"/>
      <point x="174" y="147"/>
      <point x="166" y="169"/>
      <point x="166" y="226" type="curve" smooth="yes"/>
      <point x="166" y="302"/>
      <point x="183" y="347"/>
      <point x="216" y="347" type="curve"/>
      <point x="334" y="308" type="line"/>
      <point x="354" y="395" type="line"/>
      <point x="231" y="472" type="line"/>
      <point x="224" y="472" type="line"/>
      <point x="88" y="414"/>
      <point x="3" y="294"/>
      <point x="3" y="157" type="curve" smooth="yes"/>
      <point x="3" y="76"/>
      <point x="30" y="16"/>
    </contour>
    <contour>
      <point x="212" y="244" type="move"/>
    </contour>
    <contour>
      <point x="238" y="-4" type="line"/>
      <point x="416" y="7" type="line"/>
      <point x="421" y="116" type="line"/>
      <point x="467" y="476" type="line"/>
      <point x="300" y="466" type="line"/>
    </contour>
  </outline>
</glyph>
<glyph name="beta" format="2">
  <advance width="507"/>
  <unicode hex="03B2"/>
  <outline>
    <contour>
      <point x="-8" y="-196" type="line"/>
      <point x="170" y="-185" type="line"/>
      <point x="174" y="-76" type="line"/>
      <point x="245" y="509" type="line" smooth="yes"/>
      <point x="249" y="544"/>
      <point x="265" y="561"/>
      <point x="296" y="561" type="curve" smooth="yes"/>
      <point x="323" y="561"/>
      <point x="335" y="549"/>
      <point x="335" y="520" type="curve" smooth="yes"/>
      <point x="335" y="469"/>
      <point x="314" y="444"/>
      <point x="260" y="430" type="curve"/>
      <point x="244" y="307" type="line"/>
      <point x="250" y="295" type="line"/>
      <point x="301" y="295"/>
      <point x="322" y="274"/>
      <point x="322" y="224" type="curve" smooth="yes"/>
      <point x="322" y="160"/>
      <point x="290" y="118"/>
      <point x="242" y="118" type="curve" smooth="yes"/>
      <point x="195" y="118"/>
      <point x="124" y="156"/>
      <point x="74" y="208" type="curve"/>
      <point x="53" y="40" type="line"/>
      <point x="112" y="6"/>
      <point x="173" y="-11"/>
      <point x="233" y="-11" type="curve" smooth="yes"/>
      <point x="381" y="-11"/>
      <point x="493" y="95"/>
      <point x="493" y="235" type="curve" smooth="yes"/>
      <point x="493" y="323"/>
      <point x="441" y="384"/>
      <point x="346" y="408" type="curve"/>
      <point x="352" y="370" type="line"/>
      <point x="447" y="399"/>
      <point x="507" y="470"/>
      <point x="507" y="552" type="curve" smooth="yes"/>
      <point x="507" y="646"/>
      <point x="441" y="704"/>
      <point x="335" y="704" type="curve" smooth="yes"/>
      <point x="193" y="704"/>
      <point x="96" y="604"/>
      <point x="74" y="435" type="curve" smooth="yes"/>
    </contour>
  </outline>
</glyph>
<glyph name="gamma" format="2">
  <advance width="462"/>
  <unicode hex="03B3"/>
  <outline>
    <contour>
      <point x="459" y="479" type="curve"/>
      <point x="296" y="459" type="line"/>
      <point x="288" y="442" type="line"/>
      <point x="297" y="424"/>
      <point x="301" y="405"/>
      <point x="301" y="386" type="curve" smooth="yes"/>
      <point x="301" y="358"/>
      <point x="292" y="328"/>
      <point x="276" y="291" type="curve" smooth="yes"/>
      <point x="229" y="183" type="line"/>
      <point x="215" y="183" type="line"/>
      <point x="205" y="385" type="line"/>
      <point x="205" y="476" type="line"/>
      <point x="27" y="466" type="line"/>
      <point x="114" y="-120" type="line"/>
      <point x="217" y="-120" type="line"/>
      <point x="426" y="247" type="line" smooth="yes"/>
      <point x="458" y="303"/>
      <point x="473" y="353"/>
      <point x="473" y="401" type="curve" smooth="yes"/>
      <point x="473" y="427"/>
      <point x="468" y="453"/>
    </contour>
    <contour>
      <point x="279" y="65" type="line"/>
      <point x="113" y="65" type="line"/>
      <point x="79" y="-196" type="line"/>
      <point x="257" y="-185" type="line"/>
      <point x="261" y="-76" type="line"/>
    </contour>
  </outline>
</glyph>
<glyph name="epsilon" format="2">
  <advance width="411"/>
  <unicode hex="03B5"/>
  <anchor x="235" y="472" name="top"/>
  <outline>
    <contour>
      <point x="200" y="-11" type="curve"/>
      <point x="274" y="0"/>
      <point x="338" y="29"/>
      <point x="388" y="74" type="curve"/>
      <point x="347" y="162" type="line"/>
      <point x="327" y="162" type="line"/>
      <point x="289" y="135"/>
      <point x="251" y="119"/>
      <point x="225" y="119" type="curve" smooth="yes"/>
      <point x="199" y="119"/>
      <point x="186" y="129"/>
      <point x="186" y="148" type="curve" smooth="yes"/>
      <point x="186" y="167"/>
      <point x="199" y="179"/>
      <point x="222" y="179" type="curve" smooth="yes"/>
      <point x="302" y="179" type="line"/>
      <point x="323" y="282" type="line"/>
      <point x="319" y="292" type="line"/>
      <point x="247" y="292" type="line"/>
      <point x="225" y="296"/>
      <point x="212" y="309"/>
      <point x="212" y="327" type="curve" smooth="yes"/>
      <point x="212" y="345"/>
      <point x="224" y="353"/>
      <point x="252" y="353" type="curve" smooth="yes"/>
      <point x="281" y="353"/>
      <point x="314" y="342"/>
      <point x="347" y="322" type="curve"/>
      <point x="374" y="322" type="line"/>
      <point x="417" y="454" type="line"/>
      <point x="369" y="467"/>
      <point x="329" y="476"/>
      <point x="284" y="484" type="curve"/>
      <point x="130" y="484"/>
      <point x="38" y="429"/>
      <point x="38" y="336" type="curve" smooth="yes"/>
      <point x="38" y="270"/>
      <point x="99" y="227"/>
      <point x="209" y="217" type="curve"/>
      <point x="221" y="265" type="line"/>
      <point x="83" y="265"/>
      <point x="0" y="206"/>
      <point x="0" y="109" type="curve" smooth="yes"/>
      <point x="0" y="25"/>
      <point x="61" y="-11"/>
    </contour>
  </outline>
</glyph>
<glyph name="zeta" format="2">
  <advance width="398"/>
  <unicode hex="03B6"/>
  <outline>
    <contour>
      <point x="183" y="177" type="curve" smooth="yes"/>
      <point x="183" y="245"/>
      <point x="252" y="381"/>
      <point x="445" y="575" type="curve"/>
      <point x="458" y="701" type="line"/>
      <point x="398" y="700" type="line"/>
      <point x="220" y="700" type="line"/>
      <point x="107" y="701" type="line"/>
      <point x="79" y="568" type="line"/>
      <point x="82" y="563" type="line"/>
      <point x="175" y="572" type="line"/>
      <point x="263" y="572" type="line"/>
      <point x="81" y="416"/>
      <point x="2" y="263"/>
      <point x="2" y="144" type="curve" smooth="yes"/>
      <point x="2" y="52"/>
      <point x="45" y="0"/>
      <point x="123" y="0" type="curve" smooth="yes"/>
      <point x="155" y="0"/>
      <point x="195" y="7"/>
      <point x="211" y="7" type="curve" smooth="yes"/>
      <point x="214" y="7"/>
      <point x="216" y="6"/>
      <point x="216" y="3" type="curve" smooth="yes"/>
      <point x="216" y="-5"/>
      <point x="164" y="-70"/>
      <point x="124" y="-112" type="curve"/>
      <point x="124" y="-123" type="line"/>
      <point x="228" y="-189" type="line"/>
      <point x="338" y="-61"/>
      <point x="375" y="6"/>
      <point x="375" y="81" type="curve" smooth="yes"/>
      <point x="375" y="131"/>
      <point x="355" y="159"/>
      <point x="318" y="159" type="curve" smooth="yes"/>
      <point x="300" y="159"/>
      <point x="229" y="151"/>
      <point x="207" y="151" type="curve" smooth="yes"/>
      <point x="191" y="151"/>
      <point x="183" y="160"/>
    </contour>
  </outline>
</glyph>
<glyph name="lambda" format="2">
  <advance width="479"/>
  <unicode hex="03BB"/>
  <outline>
    <contour>
      <point x="356" y="-12" type="curve"/>
      <point x="386" y="-7"/>
      <point x="422" y="5"/>
      <point x="440" y="16" type="curve"/>
      <point x="468" y="121" type="line"/>
      <point x="458" y="131" type="line"/>
      <point x="427" y="124"/>
      <point x="416" y="129"/>
      <point x="412" y="154" type="curve" smooth="yes"/>
      <point x="352" y="529" type="line" smooth="yes"/>
      <point x="329" y="672"/>
      <point x="258" y="719"/>
      <point x="103" y="700" type="curve"/>
      <point x="62" y="558" type="line"/>
      <point x="68" y="542" type="line"/>
      <point x="163" y="552"/>
      <point x="189" y="530"/>
      <point x="202" y="442" type="curve" smooth="yes"/>
      <point x="253" y="95" type="line" smooth="yes"/>
      <point x="265" y="13"/>
      <point x="293" y="-8"/>
    </contour>
    <contour>
      <point x="139" y="-9" type="line"/>
      <point x="171" y="87" type="line"/>
      <point x="225" y="216" type="line"/>
      <point x="276" y="216" type="line"/>
      <point x="237" y="558" type="line"/>
      <point x="-33" y="7" type="line"/>
    </contour>
  </outline>
</glyph>
<glyph name="xi" format="2">
  <advance width="407"/>
  <unicode hex="03BE"/>
  <outline>
    <contour>
      <point x="230" y="-189" type="line"/>
      <point x="339" y="-62"/>
      <point x="377" y="7"/>
      <point x="377" y="78" type="curve" smooth="yes"/>
      <point x="377" y="130"/>
      <point x="358" y="159"/>
      <point x="323" y="159" type="curve" smooth="yes"/>
      <point x="302" y="159"/>
      <point x="218" y="148"/>
      <point x="202" y="148" type="curve" smooth="yes"/>
      <point x="187" y="148"/>
      <point x="177" y="160"/>
      <point x="177" y="177" type="curve" smooth="yes"/>
      <point x="177" y="224"/>
      <point x="235" y="276"/>
      <point x="328" y="309" type="curve"/>
      <point x="260" y="381" type="line"/>
      <point x="105" y="351"/>
      <point x="5" y="251"/>
      <point x="5" y="129" type="curve" smooth="yes"/>
      <point x="5" y="49"/>
      <point x="47" y="-3"/>
      <point x="110" y="-3" type="curve" smooth="yes"/>
      <point x="138" y="-3"/>
      <point x="205" y="7"/>
      <point x="213" y="7" type="curve" smooth="yes"/>
      <point x="216" y="7"/>
      <point x="218" y="6"/>
      <point x="218" y="4" type="curve" smooth="yes"/>
      <point x="218" y="-4"/>
      <point x="170" y="-62"/>
      <point x="122" y="-112" type="curve"/>
      <point x="122" y="-123" type="line"/>
    </contour>
    <contour>
      <point x="321" y="300" type="curve" smooth="yes"/>
      <point x="355" y="300" type="line"/>
      <point x="378" y="410" type="line"/>
      <point x="370" y="422" type="line"/>
      <point x="305" y="422" type="line" smooth="yes"/>
      <point x="261" y="422"/>
      <point x="234" y="449"/>
      <point x="234" y="496" type="curve" smooth="yes"/>
      <point x="234" y="542"/>
      <point x="254" y="565"/>
      <point x="285" y="565" type="curve" smooth="yes"/>
      <point x="309" y="565"/>
      <point x="340" y="551"/>
      <point x="374" y="522" type="curve"/>
      <point x="408" y="522" type="line"/>
      <point x="455" y="664" type="line"/>
      <point x="450" y="674" type="line"/>
      <point x="419" y="689"/>
      <point x="381" y="700"/>
      <point x="335" y="707" type="curve"/>
      <point x="191" y="707"/>
      <point x="64" y="597"/>
      <point x="64" y="472" type="curve" smooth="yes"/>
      <point x="64" y="365"/>
      <point x="163" y="300"/>
    </contour>
  </outline>
</glyph>
<glyph name="sigmafinal" format="2">
  <advance width="382"/>
  <unicode hex="03C2"/>
  <outline>
    <contour>
      <point x="191" y="-189" type="line"/>
      <point x="301" y="-61"/>
      <point x="338" y="7"/>
      <point x="338" y="81" type="curve" smooth="yes"/>
      <point x="338" y="131"/>
      <point x="318" y="159"/>
      <point x="281" y="159" type="curve" smooth="yes"/>
      <point x="267" y="159"/>
      <point x="216" y="151"/>
      <point x="203" y="151" type="curve" smooth="yes"/>
      <point x="185" y="151"/>
      <point x="179" y="163"/>
      <point x="179" y="198" type="curve" smooth="yes"/>
      <point x="179" y="280"/>
      <point x="209" y="345"/>
      <point x="246" y="345" type="curve" smooth="yes"/>
      <point x="265" y="345"/>
      <point x="274" y="338"/>
      <point x="299" y="306" type="curve"/>
      <point x="338" y="307" type="line"/>
      <point x="389" y="437" type="line"/>
      <point x="385" y="455" type="line"/>
      <point x="293" y="481" type="line"/>
      <point x="131" y="481"/>
      <point x="7" y="343"/>
      <point x="7" y="163" type="curve" smooth="yes"/>
      <point x="7" y="66"/>
      <point x="47" y="0"/>
      <point x="106" y="0" type="curve" smooth="yes"/>
      <point x="121" y="0"/>
      <point x="166" y="7"/>
      <point x="174" y="7" type="curve" smooth="yes"/>
      <point x="177" y="7"/>
      <point x="179" y="6"/>
      <point x="179" y="3" type="curve" smooth="yes"/>
      <point x="179" y="-5"/>
      <point x="127" y="-70"/>
      <point x="87" y="-112" type="curve"/>
      <point x="87" y="-123" type="line"/>
    </contour>
  </outline>
</glyph>
<glyph name="sigma" format="2">
  <advance width="495"/>
  <unicode hex="03C3"/>
  <outline>
    <contour>
      <point x="186" y="-12" type="curve" smooth="yes"/>
      <point x="324" y="-12"/>
      <point x="439" y="101"/>
      <point x="439" y="235" type="curve" smooth="yes"/>
      <point x="439" y="276"/>
      <point x="432" y="306"/>
      <point x="415" y="335" type="curve"/>
      <point x="437" y="386" type="line"/>
      <point x="265" y="432" type="line"/>
      <point x="273" y="388"/>
      <point x="277" y="333"/>
      <point x="277" y="280" type="curve" smooth="yes"/>
      <point x="277" y="162"/>
      <point x="261" y="122"/>
      <point x="214" y="122" type="curve" smooth="yes"/>
      <point x="185" y="122"/>
      <point x="180" y="132"/>
      <point x="180" y="187" type="curve" smooth="yes"/>
      <point x="180" y="318"/>
      <point x="193" y="344"/>
      <point x="258" y="344" type="curve" smooth="yes"/>
      <point x="494" y="344" type="line"/>
      <point x="518" y="463" type="line"/>
      <point x="515" y="472" type="line"/>
      <point x="283" y="472" type="line" smooth="yes"/>
      <point x="109" y="472"/>
      <point x="10" y="369"/>
      <point x="10" y="189" type="curve" smooth="yes"/>
      <point x="10" y="64"/>
      <point x="78" y="-12"/>
    </contour>
  </outline>
</glyph>
<glyph name="chi" format="2">
  <advance width="504"/>
  <unicode hex="03C7"/>
  <outline>
    <contour>
      <point x="347" y="-197" type="curve"/>
      <point x="378" y="-192"/>
      <point x="406" y="-183"/>
      <point x="435" y="-169" type="curve"/>
      <point x="468" y="-63" type="line"/>
      <point x="458" y="-53" type="line"/>
      <point x="437" y="-60"/>
      <point x="426" y="-55"/>
      <point x="419" y="-35" type="curve" smooth="yes"/>
      <point x="361" y="140" type="line"/>
      <point x="538" y="472" type="line"/>
      <point x="357" y="472" type="line"/>
      <point x="335" y="407" type="line"/>
      <point x="223" y="159" type="line"/>
      <point x="201" y="111" type="line"/>
      <point x="251" y="-92" type="line" smooth="yes"/>
      <point x="272" y="-177"/>
      <point x="290" y="-193"/>
    </contour>
    <contour>
      <point x="-50" y="-185" type="line"/>
      <point x="131" y="-185" type="line"/>
      <point x="153" y="-120" type="line"/>
      <point x="266" y="128" type="line"/>
      <point x="289" y="176" type="line"/>
      <point x="238" y="370" type="line" smooth="yes"/>
      <point x="213" y="464"/>
      <point x="170" y="488"/>
      <point x="52" y="473" type="curve"/>
      <point x="13" y="348" type="line"/>
      <point x="19" y="333" type="line"/>
      <point x="55" y="341"/>
      <point x="64" y="334"/>
      <point x="80" y="287" type="curve" smooth="yes"/>
      <point x="127" y="147" type="line"/>
    </contour>
  </outline>
</glyph>
<glyph name="psi" format="2">
  <advance width="662"/>
  <unicode hex="03C8"/>
  <outline>
    <contour>
      <point x="209" y="-11" type="curve" smooth="yes"/>
      <point x="369" y="-11" type="line"/>
      <point x="498" y="-11"/>
      <point x="610" y="75"/>
      <point x="625" y="187" type="curve" smooth="yes"/>
      <point x="663" y="476" type="line"/>
      <point x="484" y="465" type="line"/>
      <point x="480" y="352" type="line"/>
      <point x="459" y="194" type="line" smooth="yes"/>
      <point x="452" y="139"/>
      <point x="438" y="125"/>
      <point x="396" y="125" type="curve" smooth="yes"/>
      <point x="237" y="125" type="line" smooth="yes"/>
      <point x="199" y="125"/>
      <point x="186" y="145"/>
      <point x="193" y="196" type="curve" smooth="yes"/>
      <point x="233" y="476" type="line"/>
      <point x="53" y="465" type="line"/>
      <point x="49" y="352" type="line"/>
      <point x="25" y="168" type="line" smooth="yes"/>
      <point x="11" y="63"/>
      <point x="87" y="-11"/>
    </contour>
    <contour>
      <point x="193" y="-196" type="line"/>
      <point x="371" y="-185" type="line"/>
      <point x="375" y="-76" type="line"/>
      <point x="458" y="557" type="line"/>
      <point x="280" y="546" type="line"/>
      <point x="276" y="433" type="line"/>
    </contour>
  </outline>
</glyph>
<glyph name="KaiSymbol" format="2">
  <advance width="653"/>
  <unicode hex="03CF"/>
  <outline>
    <contour>
      <point x="385" y="-12" type="line"/>
      <point x="570" y="24" type="line"/>
      <point x="569" y="38" type="line"/>
      <point x="500" y="143"/>
      <point x="444" y="242"/>
      <point x="396" y="337" type="curve"/>
      <point x="627" y="647" type="line"/>
      <point x="413" y="647" type="line"/>
      <point x="369" y="577" type="line"/>
      <point x="198" y="344" type="line"/>
      <point x="200" y="336" type="line"/>
      <point x="245" y="223"/>
      <point x="290" y="125"/>
      <point x="345" y="13" type="curve"/>
    </contour>
    <contour>
      <point x="258" y="-231" type="curve"/>
      <point x="390" y="-239"/>
      <point x="492" y="-158"/>
      <point x="570" y="20" type="curve"/>
      <point x="383" y="-8" type="line"/>
      <point x="347" y="-55"/>
      <point x="296" y="-75"/>
      <point x="203" y="-70" type="curve"/>
      <point x="188" y="-81" type="line"/>
      <point x="192" y="-141"/>
      <point x="214" y="-191"/>
    </contour>
    <contour>
      <point x="-21" y="0" type="line"/>
      <point x="180" y="0" type="line"/>
      <point x="198" y="210" type="line"/>
      <point x="263" y="647" type="line"/>
      <point x="59" y="647" type="line"/>
      <point x="13" y="190" type="line"/>
    </contour>
  </outline>
</glyph>
<glyph name="piSymbol" format="2">
  <advance width="593"/>
  <unicode hex="03D6"/>
  <outline>
    <contour>
      <point x="305" y="-4" type="line"/>
      <point x="483" y="7" type="line"/>
      <point x="488" y="116" type="line"/>
      <point x="527" y="422" type="line"/>
      <point x="362" y="422" type="line"/>
    </contour>
    <contour>
      <point x="57" y="-4" type="line"/>
      <point x="235" y="7" type="line"/>
      <point x="240" y="116" type="line"/>
      <point x="279" y="422" type="line"/>
      <point x="114" y="422" type="line"/>
    </contour>
    <contour>
      <point x="26" y="350" type="line"/>
      <point x="606" y="350" type="line"/>
      <point x="619" y="461" type="line"/>
      <point x="607" y="472" type="line"/>
      <point x="30" y="472" type="line"/>
      <point x="17" y="361" type="line"/>
    </contour>
  </outline>
</glyph>
<glyph name="E-cy" format="2">
  <advance width="564"/>
  <unicode hex="0404"/>
  <outline>
    <contour>
      <point x="442" y="245" type="line"/>
      <point x="470" y="391" type="line"/>
      <point x="462" y="405" type="line"/>
      <point x="340" y="402" type="line"/>
      <point x="178" y="402" type="line"/>
      <point x="160" y="259" type="line"/>
      <point x="159" y="248" type="line"/>
      <point x="308" y="248" type="line"/>
    </contour>
    <contour>
      <point x="416" y="658" type="curve" smooth="yes"/>
      <point x="188" y="658"/>
      <point x="55" y="541"/>
      <point x="27" y="317" type="curve" smooth="yes"/>
      <point x="-1" y="96"/>
      <point x="96" y="-11"/>
      <point x="323" y="-11" type="curve" smooth="yes"/>
      <point x="374" y="-11"/>
      <point x="429" y="-6"/>
      <point x="487" y="7" type="curve"/>
      <point x="519" y="166" type="line"/>
      <point x="500" y="177" type="line"/>
      <point x="435" y="163"/>
      <point x="387" y="156"/>
      <point x="346" y="156" type="curve" smooth="yes"/>
      <point x="246" y="156"/>
      <point x="223" y="194"/>
      <point x="239" y="322" type="curve" smooth="yes"/>
      <point x="255" y="448"/>
      <point x="293" y="495"/>
      <point x="390" y="495" type="curve" smooth="yes"/>
      <point x="433" y="495"/>
      <point x="489" y="485"/>
      <point x="528" y="466" type="curve"/>
      <point x="541" y="472" type="line"/>
      <point x="591" y="630" type="line"/>
      <point x="538" y="648"/>
      <point x="479" y="658"/>
    </contour>
  </outline>
</glyph>
<glyph name="Lje-cy" format="2">
  <advance width="945"/>
  <unicode hex="0409"/>
  <outline>
    <contour>
      <point x="446" y="0" type="line"/>
      <point x="609" y="0" type="line"/>
      <point x="794" y="0"/>
      <point x="915" y="89"/>
      <point x="932" y="232" type="curve" smooth="yes"/>
      <point x="947" y="354"/>
      <point x="881" y="422"/>
      <point x="744" y="422" type="curve" smooth="yes"/>
      <point x="489" y="422" type="line"/>
      <point x="471" y="278" type="line"/>
      <point x="667" y="284" type="line" smooth="yes"/>
      <point x="712" y="285"/>
      <point x="731" y="261"/>
      <point x="727" y="223" type="curve" smooth="yes"/>
      <point x="721" y="181"/>
      <point x="696" y="149"/>
      <point x="660" y="137" type="curve"/>
      <point x="464" y="150" type="line"/>
    </contour>
    <contour>
      <point x="9" y="-17" type="line"/>
      <point x="58" y="-17" type="line" smooth="yes"/>
      <point x="198" y="-17"/>
      <point x="260" y="85"/>
      <point x="359" y="472" type="curve" smooth="yes"/>
      <point x="404" y="647" type="line"/>
      <point x="227" y="647" type="line"/>
      <point x="194" y="509" type="line" smooth="yes"/>
      <point x="128" y="231"/>
      <point x="92" y="164"/>
      <point x="-3" y="148" type="curve"/>
    </contour>
    <contour>
      <point x="371" y="0" type="line"/>
      <point x="572" y="0" type="line"/>
      <point x="590" y="210" type="line"/>
      <point x="654" y="647" type="line"/>
      <point x="450" y="647" type="line"/>
      <point x="404" y="190" type="line"/>
    </contour>
    <contour>
      <point x="289" y="499" type="line"/>
      <point x="537" y="499" type="line"/>
      <point x="555" y="647" type="line"/>
      <point x="227" y="647" type="line"/>
    </contour>
  </outline>
</glyph>
<glyph name="Nje-cy" format="2">
  <advance width="970"/>
  <unicode hex="040A"/>
  <outline>
    <contour>
      <point x="474" y="0" type="line"/>
      <point x="637" y="0" type="line"/>
      <point x="823" y="0"/>
      <point x="943" y="89"/>
      <point x="961" y="232" type="curve" smooth="yes"/>
      <point x="975" y="354"/>
      <point x="909" y="419"/>
      <point x="772" y="419" type="curve" smooth="yes"/>
      <point x="517" y="419" type="line"/>
      <point x="499" y="270" type="line"/>
      <point x="694" y="275" type="line" smooth="yes"/>
      <point x="739" y="277"/>
      <point x="759" y="258"/>
      <point x="754" y="220" type="curve" smooth="yes"/>
      <point x="749" y="179"/>
      <point x="724" y="149"/>
      <point x="688" y="137" type="curve"/>
      <point x="493" y="149" type="line"/>
    </contour>
    <contour>
      <point x="31" y="0" type="line"/>
      <point x="226" y="0" type="line"/>
      <point x="244" y="210" type="line"/>
      <point x="308" y="647" type="line"/>
      <point x="110" y="647" type="line"/>
      <point x="64" y="190" type="line"/>
    </contour>
    <contour>
      <point x="231" y="260" type="line"/>
      <point x="342" y="264" type="line"/>
      <point x="459" y="264" type="line"/>
      <point x="477" y="412" type="line"/>
      <point x="371" y="410" type="line"/>
      <point x="249" y="413" type="line"/>
    </contour>
    <contour>
      <point x="405" y="0" type="line"/>
      <point x="599" y="0" type="line"/>
      <point x="617" y="209" type="line"/>
      <point x="682" y="648" type="line"/>
      <point x="485" y="648" type="line"/>
      <point x="439" y="189" type="line"/>
    </contour>
  </outline>
</glyph>
<glyph name="Tshe-cy" format="2">
  <advance width="696"/>
  <unicode hex="040B"/>
  <outline>
    <contour>
      <point x="453" y="-16" type="line"/>
      <point x="656" y="-16" type="line"/>
      <point x="675" y="198" type="line"/>
      <point x="696" y="363"/>
      <point x="640" y="440"/>
      <point x="490" y="442" type="curve"/>
      <point x="445" y="424"/>
      <point x="403" y="399"/>
      <point x="369" y="365" type="curve"/>
      <point x="343" y="362" type="line"/>
      <point x="331" y="224" type="line"/>
      <point x="370" y="248"/>
      <point x="403" y="262"/>
      <point x="437" y="262" type="curve" smooth="yes"/>
      <point x="481" y="262"/>
      <point x="495" y="238"/>
      <point x="486" y="171" type="curve"/>
    </contour>
    <contour>
      <point x="113" y="-16" type="line"/>
      <point x="317" y="-16" type="line"/>
      <point x="336" y="204" type="line"/>
      <point x="404" y="663" type="line"/>
      <point x="197" y="663" type="line"/>
      <point x="147" y="183" type="line"/>
    </contour>
    <contour>
      <point x="35" y="495" type="line"/>
      <point x="150" y="501" type="line"/>
      <point x="442" y="501" type="line"/>
      <point x="576" y="495" type="line"/>
      <point x="605" y="648" type="line"/>
      <point x="596" y="663" type="line"/>
      <point x="54" y="663" type="line"/>
      <point x="24" y="510" type="line"/>
    </contour>
  </outline>
</glyph>
<glyph name="Dzhe-cy" format="2">
  <advance width="662"/>
  <unicode hex="040F"/>
  <outline>
    <contour>
      <point x="371" y="0" type="line"/>
      <point x="566" y="0" type="line"/>
      <point x="584" y="210" type="line"/>
      <point x="649" y="647" type="line"/>
      <point x="451" y="647" type="line"/>
      <point x="404" y="190" type="line"/>
    </contour>
    <contour>
      <point x="31" y="0" type="line"/>
      <point x="226" y="0" type="line"/>
      <point x="244" y="210" type="line"/>
      <point x="308" y="647" type="line"/>
      <point x="110" y="647" type="line"/>
      <point x="64" y="190" type="line"/>
    </contour>
    <contour>
      <point x="190" y="0" type="line"/>
      <point x="395" y="0" type="line"/>
      <point x="415" y="152" type="line"/>
      <point x="209" y="152" type="line"/>
    </contour>
    <contour>
      <point x="209" y="-167" type="line"/>
      <point x="351" y="-157" type="line"/>
      <point x="407" y="102" type="line"/>
      <point x="215" y="102" type="line"/>
    </contour>
  </outline>
</glyph>
<glyph name="Be-cy" format="2">
  <advance width="630"/>
  <unicode hex="0411"/>
  <outline>
    <contour>
      <point x="91" y="-16" type="line"/>
      <point x="265" y="-16" type="line"/>
      <point x="482" y="-16"/>
      <point x="621" y="88"/>
      <point x="621" y="254" type="curve" smooth="yes"/>
      <point x="621" y="358"/>
      <point x="551" y="412"/>
      <point x="414" y="412" type="curve" smooth="yes"/>
      <point x="134" y="412" type="line"/>
      <point x="116" y="264" type="line"/>
      <point x="326" y="269" type="line" smooth="yes"/>
      <point x="371" y="270"/>
      <point x="395" y="248"/>
      <point x="395" y="211" type="curve" smooth="yes"/>
      <point x="395" y="169"/>
      <point x="370" y="137"/>
      <point x="325" y="123" type="curve"/>
      <point x="110" y="138" type="line"/>
    </contour>
    <contour>
      <point x="15" y="-16" type="line"/>
      <point x="225" y="-16" type="line"/>
      <point x="244" y="203" type="line"/>
      <point x="311" y="663" type="line"/>
      <point x="98" y="663" type="line"/>
      <point x="51" y="182" type="line"/>
    </contour>
    <contour>
      <point x="225" y="501" type="line"/>
      <point x="437" y="501" type="line"/>
      <point x="611" y="495" type="line"/>
      <point x="643" y="648" type="line"/>
      <point x="633" y="663" type="line"/>
      <point x="244" y="663" type="line"/>
    </contour>
  </outline>
</glyph>
<glyph name="De-cy" format="2">
  <advance width="738"/>
  <unicode hex="0414"/>
  <anchor x="437" y="-12" name="_bottomright"/>
  <outline>
    <contour>
      <point x="124" y="81" type="line"/>
      <point x="280" y="125"/>
      <point x="334" y="173"/>
      <point x="409" y="483" type="curve" smooth="yes"/>
      <point x="454" y="667" type="line"/>
      <point x="270" y="667" type="line"/>
      <point x="235" y="522" type="line" smooth="yes"/>
      <point x="173" y="263"/>
      <point x="140" y="195"/>
      <point x="42" y="158" type="curve"/>
    </contour>
    <contour>
      <point x="-52" y="-167" type="line"/>
      <point x="105" y="-156" type="line"/>
      <point x="196" y="158" type="line"/>
      <point x="-12" y="158" type="line"/>
    </contour>
    <contour>
      <point x="-31" y="-12" type="line"/>
      <point x="278" y="-12" type="line"/>
      <point x="245" y="158" type="line"/>
      <point x="-12" y="158" type="line"/>
    </contour>
    <contour>
      <point x="22" y="-12" type="line"/>
      <point x="527" y="-12" type="line"/>
      <point x="547" y="158" type="line"/>
      <point x="42" y="158" type="line"/>
    </contour>
    <contour>
      <point x="543" y="-167" type="line"/>
      <point x="696" y="-156" type="line"/>
      <point x="735" y="158" type="line"/>
      <point x="527" y="158" type="line"/>
    </contour>
    <contour>
      <point x="416" y="-12" type="line"/>
      <point x="704" y="-12" type="line"/>
      <point x="735" y="158" type="line"/>
      <point x="488" y="158" type="line"/>
    </contour>
    <contour>
      <point x="418" y="-12" type="line"/>
      <point x="629" y="-12" type="line"/>
      <point x="647" y="208" type="line"/>
      <point x="715" y="667" type="line"/>
      <point x="501" y="667" type="line"/>
      <point x="452" y="187" type="line"/>
    </contour>
    <contour>
      <point x="335" y="511" type="line"/>
      <point x="592" y="511" type="line"/>
      <point x="611" y="667" type="line"/>
      <point x="270" y="667" type="line"/>
    </contour>
  </outline>
</glyph>
<glyph name="Ze-cy" format="2">
  <advance width="547"/>
  <unicode hex="0417"/>
  <anchor x="241" y="0" name="bottom"/>
  <anchor x="323" y="647" name="top"/>
  <outline>
    <contour>
      <point x="190" y="-12" type="curve" smooth="yes"/>
      <point x="401" y="-12"/>
      <point x="521" y="67"/>
      <point x="521" y="207" type="curve" smooth="yes"/>
      <point x="521" y="290"/>
      <point x="465" y="333"/>
      <point x="340" y="347" type="curve"/>
      <point x="351" y="313" type="line"/>
      <point x="466" y="335"/>
      <point x="536" y="404"/>
      <point x="536" y="500" type="curve" smooth="yes"/>
      <point x="536" y="601"/>
      <point x="444" y="658"/>
      <point x="275" y="658" type="curve" smooth="yes"/>
      <point x="215" y="658"/>
      <point x="157" y="652"/>
      <point x="103" y="639" type="curve"/>
      <point x="68" y="481" type="line"/>
      <point x="84" y="471" type="line"/>
      <point x="152" y="485"/>
      <point x="200" y="491"/>
      <point x="248" y="491" type="curve" smooth="yes"/>
      <point x="306" y="491"/>
      <point x="327" y="482"/>
      <point x="327" y="455" type="curve" smooth="yes"/>
      <point x="327" y="434"/>
      <point x="317" y="413"/>
      <point x="292" y="398" type="curve"/>
      <point x="148" y="400" type="line"/>
      <point x="120" y="266" type="line"/>
      <point x="129" y="252" type="line"/>
      <point x="289" y="252" type="line"/>
      <point x="309" y="242"/>
      <point x="319" y="229"/>
      <point x="319" y="212" type="curve" smooth="yes"/>
      <point x="319" y="174"/>
      <point x="278" y="152"/>
      <point x="209" y="152" type="curve" smooth="yes"/>
      <point x="159" y="152"/>
      <point x="101" y="164"/>
      <point x="61" y="183" type="curve"/>
      <point x="46" y="175" type="line"/>
      <point x="-8" y="16" type="line"/>
      <point x="41" y="-2"/>
      <point x="114" y="-12"/>
    </contour>
  </outline>
</glyph>
<glyph name="Ii-cy" format="2">
  <advance width="718"/>
  <unicode hex="0418"/>
  <anchor x="667" y="0" name="bottomright"/>
  <anchor x="409" y="647" name="top"/>
  <outline>
    <contour>
      <point x="31" y="0" type="line"/>
      <point x="242" y="0" type="line"/>
      <point x="463" y="350" type="line"/>
      <point x="474" y="350" type="line"/>
      <point x="454" y="190" type="line"/>
      <point x="421" y="0" type="line"/>
      <point x="622" y="0" type="line"/>
      <point x="640" y="210" type="line"/>
      <point x="705" y="647" type="line"/>
      <point x="489" y="647" type="line"/>
      <point x="269" y="299" type="line"/>
      <point x="258" y="299" type="line"/>
      <point x="315" y="652" type="line"/>
      <point x="110" y="642" type="line"/>
      <point x="64" y="190" type="line"/>
    </contour>
  </outline>
</glyph>
<glyph name="El-cy" format="2">
  <advance width="658"/>
  <unicode hex="041B"/>
  <outline>
    <contour>
      <point x="-7" y="-34" type="line"/>
      <point x="45" y="-34" type="line" smooth="yes"/>
      <point x="192" y="-34"/>
      <point x="257" y="74"/>
      <point x="361" y="480" type="curve" smooth="yes"/>
      <point x="408" y="664" type="line"/>
      <point x="222" y="664" type="line"/>
      <point x="187" y="519" type="line" smooth="yes"/>
      <point x="118" y="227"/>
      <point x="80" y="156"/>
      <point x="-19" y="140" type="curve"/>
    </contour>
    <contour>
      <point x="373" y="-16" type="line"/>
      <point x="584" y="-16" type="line"/>
      <point x="603" y="205" type="line"/>
      <point x="670" y="664" type="line"/>
      <point x="456" y="664" type="line"/>
      <point x="408" y="184" type="line"/>
    </contour>
    <contour>
      <point x="287" y="508" type="line"/>
      <point x="548" y="508" type="line"/>
      <point x="566" y="664" type="line"/>
      <point x="222" y="664" type="line"/>
    </contour>
  </outline>
</glyph>
<glyph name="U-cy" format="2">
  <advance width="603"/>
  <unicode hex="0423"/>
  <anchor x="351" y="647" name="top"/>
  <outline>
    <contour>
      <point x="64" y="153" type="line"/>
      <point x="64" y="99"/>
      <point x="68" y="47"/>
      <point x="78" y="-5" type="curve"/>
      <point x="93" y="-11" type="line"/>
      <point x="267" y="-11"/>
      <point x="334" y="31"/>
      <point x="437" y="213" type="curve" smooth="yes"/>
      <point x="649" y="647" type="line"/>
      <point x="459" y="647" type="line"/>
      <point x="431" y="575" type="line"/>
      <point x="301" y="266" type="line" smooth="yes"/>
      <point x="273" y="197"/>
      <point x="232" y="177"/>
      <point x="70" y="166" type="curve"/>
    </contour>
    <contour>
      <point x="244" y="90" type="line"/>
      <point x="353" y="344" type="line"/>
      <point x="324" y="344" type="line"/>
      <point x="272" y="563" type="line"/>
      <point x="256" y="647" type="line"/>
      <point x="52" y="647" type="line"/>
    </contour>
  </outline>
</glyph>
<glyph name="Che-cy" format="2">
  <advance width="649"/>
  <unicode hex="0427"/>
  <anchor x="352" y="-16" name="bottomright"/>
  <anchor x="350" y="663" name="top"/>
  <outline>
    <contour>
      <point x="651" y="663" type="line"/>
      <point x="436" y="663" type="line"/>
      <point x="387" y="183" type="line"/>
      <point x="352" y="-16" type="line"/>
      <point x="563" y="-16" type="line"/>
      <point x="582" y="204" type="line"/>
    </contour>
    <contour>
      <point x="422" y="386" type="line"/>
      <point x="373" y="361"/>
      <point x="336" y="347"/>
      <point x="303" y="347" type="curve" smooth="yes"/>
      <point x="259" y="347"/>
      <point x="240" y="375"/>
      <point x="248" y="437" type="curve" smooth="yes"/>
      <point x="280" y="663" type="line"/>
      <point x="65" y="663" type="line"/>
      <point x="37" y="391" type="line" smooth="yes"/>
      <point x="23" y="245"/>
      <point x="93" y="171"/>
      <point x="252" y="169" type="curve"/>
      <point x="300" y="186"/>
      <point x="345" y="212"/>
      <point x="384" y="245" type="curve"/>
      <point x="411" y="248" type="line"/>
    </contour>
  </outline>
</glyph>
<glyph name="Hardsign-cy" format="2">
  <advance width="704"/>
  <unicode hex="042A"/>
  <outline>
    <contour>
      <point x="195" y="0" type="line"/>
      <point x="359" y="0" type="line"/>
      <point x="563" y="0"/>
      <point x="694" y="105"/>
      <point x="694" y="266" type="curve" smooth="yes"/>
      <point x="694" y="366"/>
      <point x="629" y="422"/>
      <point x="502" y="422" type="curve" smooth="yes"/>
      <point x="238" y="422" type="line"/>
      <point x="221" y="278" type="line"/>
      <point x="417" y="284" type="line" smooth="yes"/>
      <point x="457" y="285"/>
      <point x="479" y="261"/>
      <point x="479" y="224" type="curve" smooth="yes"/>
      <point x="479" y="183"/>
      <point x="456" y="150"/>
      <point x="416" y="136" type="curve"/>
      <point x="214" y="150" type="line"/>
    </contour>
    <contour>
      <point x="131" y="0" type="line"/>
      <point x="331" y="0" type="line"/>
      <point x="349" y="209" type="line"/>
      <point x="414" y="647" type="line"/>
      <point x="211" y="647" type="line"/>
      <point x="166" y="189" type="line"/>
    </contour>
    <contour>
      <point x="52" y="487" type="line"/>
      <point x="149" y="493" type="line"/>
      <point x="290" y="493" type="line"/>
      <point x="309" y="647" type="line"/>
      <point x="71" y="647" type="line"/>
      <point x="42" y="501" type="line"/>
    </contour>
  </outline>
</glyph>
<glyph name="Softsign-cy" format="2">
  <advance width="612"/>
  <unicode hex="042C"/>
  <outline>
    <contour>
      <point x="90" y="-16" type="line"/>
      <point x="262" y="-16" type="line"/>
      <point x="479" y="-16"/>
      <point x="616" y="94"/>
      <point x="616" y="263" type="curve" smooth="yes"/>
      <point x="616" y="368"/>
      <point x="547" y="427"/>
      <point x="414" y="427" type="curve" smooth="yes"/>
      <point x="135" y="427" type="line"/>
      <point x="117" y="276" type="line"/>
      <point x="323" y="282" type="line" smooth="yes"/>
      <point x="366" y="283"/>
      <point x="389" y="258"/>
      <point x="389" y="219" type="curve" smooth="yes"/>
      <point x="389" y="176"/>
      <point x="366" y="141"/>
      <point x="323" y="127" type="curve"/>
      <point x="109" y="141" type="line"/>
    </contour>
    <contour>
      <point x="16" y="-16" type="line"/>
      <point x="226" y="-16" type="line"/>
      <point x="245" y="203" type="line"/>
      <point x="313" y="664" type="line"/>
      <point x="100" y="664" type="line"/>
      <point x="51" y="182" type="line"/>
    </contour>
  </outline>
</glyph>
<glyph name="Iu-cy" format="2">
  <advance width="911"/>
  <unicode hex="042E"/>
  <outline>
    <contour>
      <point x="315" y="647" type="line"/>
      <point x="111" y="647" type="line"/>
      <point x="64" y="190" type="line"/>
      <point x="31" y="0" type="line"/>
      <point x="232" y="0" type="line"/>
      <point x="250" y="210" type="line"/>
    </contour>
    <contour>
      <point x="227" y="403" type="line"/>
      <point x="206" y="238" type="line"/>
      <point x="286" y="242" type="line"/>
      <point x="388" y="240" type="line"/>
      <point x="408" y="402" type="line"/>
      <point x="315" y="400" type="line"/>
    </contour>
    <contour>
      <point x="669" y="659" type="curve" smooth="yes"/>
      <point x="481" y="659"/>
      <point x="360" y="536"/>
      <point x="334" y="321" type="curve" smooth="yes"/>
      <point x="308" y="111"/>
      <point x="395" y="-12"/>
      <point x="570" y="-12" type="curve" smooth="yes"/>
      <point x="758" y="-12"/>
      <point x="880" y="112"/>
      <point x="907" y="331" type="curve" smooth="yes"/>
      <point x="932" y="538"/>
      <point x="844" y="659"/>
    </contour>
    <contour>
      <point x="644" y="499" type="curve" smooth="yes"/>
      <point x="704" y="499"/>
      <point x="712" y="463"/>
      <point x="693" y="306" type="curve" smooth="yes"/>
      <point x="676" y="171"/>
      <point x="656" y="136"/>
      <point x="593" y="136" type="curve" smooth="yes"/>
      <point x="533" y="136"/>
      <point x="525" y="173"/>
      <point x="545" y="330" type="curve" smooth="yes"/>
      <point x="561" y="463"/>
      <point x="582" y="499"/>
    </contour>
  </outline>
</glyph>
<glyph name="be-cy" format="2">
  <advance width="477"/>
  <unicode hex="0431"/>
  <outline>
    <contour>
      <point x="210" y="-9" type="curve" smooth="yes"/>
      <point x="365" y="-9"/>
      <point x="469" y="112"/>
      <point x="469" y="292" type="curve" smooth="yes"/>
      <point x="469" y="390"/>
      <point x="428" y="440"/>
      <point x="333" y="458" type="curve"/>
      <point x="311" y="458" type="line"/>
      <point x="284" y="429"/>
      <point x="258" y="394"/>
      <point x="222" y="338" type="curve"/>
      <point x="188" y="338" type="line"/>
      <point x="177" y="120" type="line"/>
      <point x="220" y="231"/>
      <point x="263" y="304"/>
      <point x="286" y="304" type="curve" smooth="yes"/>
      <point x="298" y="304"/>
      <point x="305" y="274"/>
      <point x="305" y="220" type="curve" smooth="yes"/>
      <point x="305" y="154"/>
      <point x="278" y="114"/>
      <point x="235" y="114" type="curve" smooth="yes"/>
      <point x="199" y="114"/>
      <point x="185" y="136"/>
      <point x="185" y="194" type="curve"/>
      <point x="217" y="385" type="line" smooth="yes"/>
      <point x="232" y="471"/>
      <point x="268" y="515"/>
      <point x="331" y="522" type="curve" smooth="yes"/>
      <point x="427" y="533" type="line"/>
      <point x="453" y="577"/>
      <point x="475" y="626"/>
      <point x="495" y="684" type="curve"/>
      <point x="444" y="720" type="line"/>
      <point x="413" y="702"/>
      <point x="396" y="695"/>
      <point x="379" y="688" type="curve" smooth="yes"/>
      <point x="283" y="648" type="line" smooth="yes"/>
      <point x="117" y="582"/>
      <point x="22" y="418"/>
      <point x="22" y="199" type="curve" smooth="yes"/>
      <point x="22" y="68"/>
      <point x="92" y="-9"/>
    </contour>
  </outline>
</glyph>
<glyph name="ve-cy" format="2">
  <advance width="436"/>
  <unicode hex="0432"/>
  <outline>
    <contour>
      <point x="196" y="-11" type="curve" smooth="yes"/>
      <point x="313" y="-11"/>
      <point x="397" y="47"/>
      <point x="420" y="144" type="curve"/>
      <point x="420" y="151" type="line"/>
      <point x="393" y="203"/>
      <point x="351" y="242"/>
      <point x="294" y="267" type="curve"/>
      <point x="238" y="215" type="line"/>
      <point x="258" y="195"/>
      <point x="270" y="169"/>
      <point x="270" y="146" type="curve" smooth="yes"/>
      <point x="270" y="123"/>
      <point x="254" y="109"/>
      <point x="228" y="109" type="curve" smooth="yes"/>
      <point x="190" y="109"/>
      <point x="174" y="146"/>
      <point x="174" y="234" type="curve" smooth="yes"/>
      <point x="174" y="329"/>
      <point x="193" y="371"/>
      <point x="237" y="371" type="curve" smooth="yes"/>
      <point x="256" y="371"/>
      <point x="264" y="363"/>
      <point x="264" y="343" type="curve" smooth="yes"/>
      <point x="264" y="304"/>
      <point x="235" y="286"/>
      <point x="146" y="270" type="curve"/>
      <point x="146" y="170" type="line"/>
      <point x="344" y="215"/>
      <point x="421" y="267"/>
      <point x="421" y="355" type="curve" smooth="yes"/>
      <point x="421" y="422"/>
      <point x="377" y="467"/>
      <point x="299" y="482" type="curve"/>
      <point x="283" y="484" type="line"/>
      <point x="114" y="474"/>
      <point x="8" y="358"/>
      <point x="8" y="183" type="curve"/>
      <point x="8" y="60"/>
      <point x="76" y="-11"/>
    </contour>
  </outline>
</glyph>
<glyph name="ge-cy" format="2">
  <advance width="367"/>
  <unicode hex="0433"/>
  <anchor x="158" y="0" name="bottom"/>
  <anchor x="312" y="0" name="bottomright"/>
  <anchor x="185" y="244" name="center"/>
  <anchor x="214" y="473" name="top"/>
  <outline>
    <contour>
      <point x="168" y="-12" type="curve"/>
      <point x="235" y="14"/>
      <point x="297" y="49"/>
      <point x="346" y="93" type="curve"/>
      <point x="307" y="176" type="line"/>
      <point x="286" y="181" type="line"/>
      <point x="219" y="144"/>
      <point x="190" y="132"/>
      <point x="173" y="132" type="curve" smooth="yes"/>
      <point x="162" y="132"/>
      <point x="159" y="140"/>
      <point x="159" y="145" type="curve" smooth="yes"/>
      <point x="159" y="192"/>
      <point x="359" y="224"/>
      <point x="359" y="358" type="curve" smooth="yes"/>
      <point x="359" y="434"/>
      <point x="295" y="483"/>
      <point x="193" y="483" type="curve"/>
      <point x="135" y="463"/>
      <point x="79" y="432"/>
      <point x="28" y="391" type="curve"/>
      <point x="64" y="309" type="line"/>
      <point x="85" y="305" type="line"/>
      <point x="161" y="334"/>
      <point x="174" y="338"/>
      <point x="186" y="338" type="curve" smooth="yes"/>
      <point x="195" y="338"/>
      <point x="201" y="334"/>
      <point x="201" y="326" type="curve" smooth="yes"/>
      <point x="201" y="279"/>
      <point x="1" y="248"/>
      <point x="1" y="112" type="curve" smooth="yes"/>
      <point x="1" y="35"/>
      <point x="65" y="-11"/>
    </contour>
  </outline>
</glyph>
<glyph name="ze-cy" format="2">
  <advance width="394"/>
  <unicode hex="0437"/>
  <anchor x="168" y="0" name="bottom"/>
  <anchor x="226" y="472" name="top"/>
  <outline>
    <contour>
      <point x="144" y="-12" type="curve" smooth="yes"/>
      <point x="271" y="-12"/>
      <point x="368" y="57"/>
      <point x="368" y="148" type="curve" smooth="yes"/>
      <point x="368" y="193"/>
      <point x="343" y="225"/>
      <point x="293" y="246" type="curve"/>
      <point x="293" y="251" type="line"/>
      <point x="355" y="278"/>
      <point x="390" y="322"/>
      <point x="390" y="374" type="curve" smooth="yes"/>
      <point x="390" y="439"/>
      <point x="329" y="484"/>
      <point x="243" y="484" type="curve" smooth="yes"/>
      <point x="158" y="484"/>
      <point x="91" y="454"/>
      <point x="27" y="388" type="curve"/>
      <point x="71" y="311" type="line"/>
      <point x="94" y="310" type="line"/>
      <point x="138" y="340"/>
      <point x="157" y="349"/>
      <point x="187" y="349" type="curve" smooth="yes"/>
      <point x="205" y="349"/>
      <point x="212" y="341"/>
      <point x="212" y="327" type="curve" smooth="yes"/>
      <point x="212" y="305"/>
      <point x="197" y="289"/>
      <point x="174" y="289" type="curve"/>
      <point x="106" y="291" type="line"/>
      <point x="84" y="189" type="line"/>
      <point x="90" y="178" type="line"/>
      <point x="182" y="179" type="line"/>
      <point x="198" y="180"/>
      <point x="205" y="174"/>
      <point x="205" y="159" type="curve" smooth="yes"/>
      <point x="205" y="138"/>
      <point x="181" y="123"/>
      <point x="149" y="123" type="curve" smooth="yes"/>
      <point x="109" y="123"/>
      <point x="94" y="128"/>
      <point x="62" y="150" type="curve"/>
      <point x="24" y="149" type="line"/>
      <point x="-17" y="20" type="line"/>
      <point x="27" y="0"/>
      <point x="86" y="-12"/>
    </contour>
  </outline>
</glyph>
<glyph name="ka-cy" format="2">
  <advance width="500"/>
  <unicode hex="043A"/>
  <anchor x="451" y="0" name="bottomright"/>
  <anchor x="279" y="472" name="top"/>
  <outline>
    <contour>
      <point x="519" y="472" type="line"/>
      <point x="330" y="472" type="line"/>
      <point x="303" y="416" type="line"/>
      <point x="208" y="259" type="line"/>
      <point x="207" y="249" type="line"/>
      <point x="226" y="167"/>
      <point x="251" y="84"/>
      <point x="280" y="2" type="curve"/>
      <point x="299" y="-12" type="line"/>
      <point x="356" y="-8"/>
      <point x="413" y="0"/>
      <point x="470" y="11" type="curve"/>
      <point x="472" y="28" type="line"/>
      <point x="438" y="104"/>
      <point x="408" y="181"/>
      <point x="380" y="259" type="curve"/>
    </contour>
    <contour>
      <point x="14" y="-4" type="line"/>
      <point x="192" y="7" type="line"/>
      <point x="197" y="116" type="line"/>
      <point x="243" y="476" type="line"/>
      <point x="65" y="465" type="line"/>
      <point x="61" y="352" type="line"/>
    </contour>
  </outline>
</glyph>
<glyph name="el-cy" format="2">
  <advance width="483"/>
  <unicode hex="043B"/>
  <outline>
    <contour>
      <point x="159" y="472" type="line"/>
      <point x="86" y="258" type="line" smooth="yes"/>
      <point x="60" y="181"/>
      <point x="41" y="159"/>
      <point x="-6" y="144" type="curve"/>
      <point x="-14" y="127" type="line"/>
      <point x="-3" y="-5" type="line"/>
      <point x="111" y="-21"/>
      <point x="168" y="18"/>
      <point x="203" y="134" type="curve" smooth="yes"/>
      <point x="304" y="472" type="line"/>
    </contour>
    <contour>
      <point x="189" y="472" type="line"/>
      <point x="202" y="289" type="line"/>
      <point x="266" y="289" type="line"/>
      <point x="277" y="87" type="line"/>
      <point x="277" y="-4" type="line"/>
      <point x="455" y="6" type="line"/>
      <point x="394" y="472" type="line"/>
    </contour>
  </outline>
</glyph>
<glyph name="sha-cy" format="2">
  <advance width="774"/>
  <unicode hex="0448"/>
  <anchor x="530" y="-4" name="bottomright"/>
  <outline>
    <contour>
      <point x="241" y="474" type="line"/>
      <point x="59" y="463" type="line"/>
      <point x="55" y="351" type="line"/>
      <point x="18" y="125" type="line"/>
      <point x="16" y="105" type="line"/>
      <point x="16" y="48"/>
      <point x="69" y="6"/>
      <point x="154" y="-4" type="curve"/>
      <point x="167" y="-3" type="line"/>
      <point x="206" y="34"/>
      <point x="238" y="72"/>
      <point x="271" y="116" type="curve"/>
      <point x="308" y="116" type="line"/>
      <point x="332" y="315" type="line"/>
      <point x="274" y="218"/>
      <point x="237" y="177"/>
      <point x="216" y="177" type="curve" smooth="yes"/>
      <point x="204" y="177"/>
      <point x="198" y="184"/>
      <point x="198" y="200" type="curve"/>
      <point x="199" y="213" type="line"/>
    </contour>
    <contour>
      <point x="503" y="474" type="line"/>
      <point x="321" y="463" type="line"/>
      <point x="317" y="351" type="line"/>
      <point x="283" y="125" type="line"/>
      <point x="283" y="105" type="line"/>
      <point x="283" y="48"/>
      <point x="331" y="6"/>
      <point x="416" y="-4" type="curve"/>
      <point x="429" y="-3" type="line"/>
      <point x="468" y="34"/>
      <point x="500" y="72"/>
      <point x="533" y="116" type="curve"/>
      <point x="570" y="116" type="line"/>
      <point x="594" y="315" type="line"/>
      <point x="536" y="218"/>
      <point x="499" y="177"/>
      <point x="478" y="177" type="curve" smooth="yes"/>
      <point x="466" y="177"/>
      <point x="460" y="184"/>
      <point x="460" y="200" type="curve"/>
      <point x="461" y="213" type="line"/>
    </contour>
    <contour>
      <point x="759" y="476" type="line"/>
      <point x="581" y="465" type="line"/>
      <point x="577" y="352" type="line"/>
      <point x="530" y="-4" type="line"/>
      <point x="708" y="7" type="line"/>
      <point x="712" y="116" type="line"/>
    </contour>
  </outline>
</glyph>
<glyph name="ereversed-cy" format="2">
  <advance width="400"/>
  <unicode hex="044D"/>
  <outline>
    <contour>
      <point x="118" y="-9" type="curve" smooth="yes"/>
      <point x="264" y="-9"/>
      <point x="392" y="112"/>
      <point x="392" y="283" type="curve" smooth="yes"/>
      <point x="392" y="403"/>
      <point x="339" y="463"/>
      <point x="216" y="480" type="curve"/>
      <point x="194" y="480" type="line"/>
      <point x="133" y="465"/>
      <point x="78" y="435"/>
      <point x="26" y="388" type="curve"/>
      <point x="72" y="311" type="line"/>
      <point x="95" y="310" type="line"/>
      <point x="125" y="337"/>
      <point x="153" y="351"/>
      <point x="179" y="351" type="curve" smooth="yes"/>
      <point x="215" y="351"/>
      <point x="227" y="328"/>
      <point x="227" y="259" type="curve" smooth="yes"/>
      <point x="227" y="161"/>
      <point x="200" y="117"/>
      <point x="140" y="117" type="curve" smooth="yes"/>
      <point x="110" y="117"/>
      <point x="89" y="128"/>
      <point x="61" y="157" type="curve"/>
      <point x="23" y="156" type="line"/>
      <point x="-17" y="41" type="line"/>
      <point x="-11" y="24" type="line"/>
      <point x="32" y="2"/>
      <point x="76" y="-9"/>
    </contour>
    <contour>
      <point x="97" y="179" type="line"/>
      <point x="155" y="180" type="line"/>
      <point x="303" y="181" type="line"/>
      <point x="314" y="290" type="line"/>
      <point x="175" y="290" type="line"/>
      <point x="112" y="292" type="line"/>
      <point x="91" y="190" type="line"/>
    </contour>
  </outline>
</glyph>
<glyph name="iu-cy" format="2">
  <advance width="694"/>
  <unicode hex="044E"/>
  <outline>
    <contour>
      <point x="243" y="476" type="line"/>
      <point x="65" y="465" type="line"/>
      <point x="61" y="352" type="line"/>
      <point x="14" y="-4" type="line"/>
      <point x="192" y="7" type="line"/>
      <point x="197" y="116" type="line"/>
    </contour>
    <contour>
      <point x="132" y="306" type="line"/>
      <point x="117" y="158" type="line"/>
      <point x="218" y="163" type="line"/>
      <point x="329" y="160" type="line"/>
      <point x="344" y="305" type="line"/>
      <point x="241" y="303" type="line"/>
    </contour>
    <contour>
      <point x="523" y="484" type="line"/>
      <point x="359" y="475"/>
      <point x="251" y="358"/>
      <point x="251" y="189" type="curve" smooth="yes"/>
      <point x="251" y="78"/>
      <point x="297" y="15"/>
      <point x="396" y="-10" type="curve"/>
      <point x="412" y="-12" type="line"/>
      <point x="576" y="-5"/>
      <point x="686" y="116"/>
      <point x="686" y="289" type="curve" smooth="yes"/>
      <point x="686" y="398"/>
      <point x="642" y="455"/>
      <point x="539" y="482" type="curve"/>
    </contour>
    <contour>
      <point x="484" y="347" type="curve" smooth="yes"/>
      <point x="509" y="347"/>
      <point x="513" y="338"/>
      <point x="513" y="280" type="curve" smooth="yes"/>
      <point x="513" y="155"/>
      <point x="500" y="121"/>
      <point x="452" y="121" type="curve" smooth="yes"/>
      <point x="426" y="121"/>
      <point x="422" y="130"/>
      <point x="422" y="188" type="curve" smooth="yes"/>
      <point x="422" y="311"/>
      <point x="436" y="347"/>
    </contour>
  </outline>
</glyph>
<glyph name="dje-cy" format="2">
  <advance width="528"/>
  <unicode hex="0452"/>
  <outline>
    <contour>
      <point x="257" y="-195" type="line"/>
      <point x="387" y="-143"/>
      <point x="451" y="-71"/>
      <point x="464" y="36" type="curve" smooth="yes"/>
      <point x="474" y="120" type="line"/>
      <point x="510" y="349" type="line"/>
      <point x="511" y="363" type="line"/>
      <point x="512" y="418"/>
      <point x="460" y="460"/>
      <point x="376" y="474" type="curve"/>
      <point x="363" y="473" type="line"/>
      <point x="323" y="435"/>
      <point x="287" y="393"/>
      <point x="250" y="346" type="curve"/>
      <point x="230" y="346" type="line"/>
      <point x="195" y="156" type="line"/>
      <point x="250" y="252"/>
      <point x="292" y="291"/>
      <point x="313" y="291" type="curve" smooth="yes"/>
      <point x="324" y="291"/>
      <point x="330" y="285"/>
      <point x="330" y="269" type="curve"/>
      <point x="328" y="259" type="line"/>
      <point x="294" y="26" type="line" smooth="yes"/>
      <point x="286" y="-35"/>
      <point x="256" y="-74"/>
      <point x="203" y="-99" type="curve"/>
      <point x="201" y="-115" type="line"/>
    </contour>
    <contour>
      <point x="20" y="-4" type="line"/>
      <point x="199" y="7" type="line"/>
      <point x="202" y="116" type="line"/>
      <point x="281" y="704" type="line"/>
      <point x="102" y="693" type="line"/>
      <point x="99" y="580" type="line"/>
    </contour>
    <contour>
      <point x="27" y="524" type="line"/>
      <point x="376" y="524" type="line"/>
      <point x="383" y="612" type="line"/>
      <point x="371" y="625" type="line"/>
      <point x="22" y="625" type="line"/>
      <point x="15" y="537" type="line"/>
    </contour>
  </outline>
</glyph>
<glyph name="lje-cy" format="2">
  <advance width="702"/>
  <unicode hex="0459"/>
  <outline>
    <contour>
      <point x="157" y="472" type="line"/>
      <point x="85" y="258" type="line" smooth="yes"/>
      <point x="59" y="181"/>
      <point x="41" y="159"/>
      <point x="-6" y="144" type="curve"/>
      <point x="-14" y="127" type="line"/>
      <point x="-3" y="-5" type="line"/>
      <point x="109" y="-21"/>
      <point x="168" y="19"/>
      <point x="202" y="134" type="curve" smooth="yes"/>
      <point x="302" y="472" type="line"/>
    </contour>
    <contour>
      <point x="187" y="472" type="line"/>
      <point x="200" y="289" type="line"/>
      <point x="264" y="289" type="line"/>
      <point x="274" y="87" type="line"/>
      <point x="274" y="16" type="line"/>
      <point x="451" y="16" type="line"/>
      <point x="392" y="472" type="line"/>
    </contour>
    <contour>
      <point x="450" y="-10" type="line"/>
      <point x="458" y="-10" type="line"/>
      <point x="597" y="22"/>
      <point x="697" y="118"/>
      <point x="697" y="218" type="curve" smooth="yes"/>
      <point x="697" y="291"/>
      <point x="644" y="354"/>
      <point x="574" y="366" type="curve"/>
      <point x="551" y="366" type="line"/>
      <point x="505" y="337"/>
      <point x="467" y="303"/>
      <point x="433" y="262" type="curve"/>
      <point x="405" y="262" type="line"/>
      <point x="387" y="95" type="line"/>
      <point x="448" y="185"/>
      <point x="492" y="232"/>
      <point x="513" y="232" type="curve" smooth="yes"/>
      <point x="527" y="232"/>
      <point x="537" y="212"/>
      <point x="537" y="185" type="curve" smooth="yes"/>
      <point x="537" y="144"/>
      <point x="512" y="110"/>
      <point x="482" y="110" type="curve"/>
      <point x="347" y="135" type="line"/>
      <point x="274" y="16" type="line"/>
    </contour>
  </outline>
</glyph>
<glyph name="nje-cy" format="2">
  <advance width="736"/>
  <unicode hex="045A"/>
  <outline>
    <contour>
      <point x="243" y="476" type="line"/>
      <point x="65" y="465" type="line"/>
      <point x="61" y="352" type="line"/>
      <point x="14" y="-4" type="line"/>
      <point x="192" y="7" type="line"/>
      <point x="197" y="116" type="line"/>
    </contour>
    <contour>
      <point x="136" y="306" type="line"/>
      <point x="118" y="158" type="line"/>
      <point x="252" y="163" type="line"/>
      <point x="388" y="160" type="line"/>
      <point x="406" y="305" type="line"/>
      <point x="279" y="303" type="line"/>
    </contour>
    <contour>
      <point x="484" y="-10" type="line"/>
      <point x="492" y="-10" type="line"/>
      <point x="622" y="18"/>
      <point x="731" y="120"/>
      <point x="731" y="211" type="curve" smooth="yes"/>
      <point x="731" y="291"/>
      <point x="681" y="345"/>
      <point x="598" y="359" type="curve"/>
      <point x="575" y="359" type="line"/>
      <point x="546" y="338"/>
      <point x="523" y="314"/>
      <point x="499" y="285" type="curve"/>
      <point x="471" y="285" type="line"/>
      <point x="445" y="128" type="line"/>
      <point x="501" y="204"/>
      <point x="532" y="232"/>
      <point x="548" y="232" type="curve" smooth="yes"/>
      <point x="560" y="232"/>
      <point x="571" y="214"/>
      <point x="571" y="181" type="curve" smooth="yes"/>
      <point x="571" y="146"/>
      <point x="546" y="110"/>
      <point x="516" y="110" type="curve"/>
      <point x="381" y="135" type="line"/>
      <point x="286" y="20" type="line"/>
    </contour>
    <contour>
      <point x="286" y="20" type="line"/>
      <point x="459" y="66" type="line"/>
      <point x="512" y="476" type="line"/>
      <point x="334" y="465" type="line"/>
      <point x="330" y="352" type="line"/>
    </contour>
  </outline>
</glyph>
<glyph name="Yat-cy" format="2">
  <advance width="692"/>
  <unicode hex="0462"/>
  <outline>
    <contour>
      <point x="186" y="-17" type="line"/>
      <point x="357" y="-17" type="line"/>
      <point x="551" y="-17"/>
      <point x="677" y="68"/>
      <point x="694" y="203" type="curve" smooth="yes"/>
      <point x="708" y="320"/>
      <point x="637" y="386"/>
      <point x="494" y="386" type="curve" smooth="yes"/>
      <point x="227" y="386" type="line"/>
      <point x="209" y="248" type="line"/>
      <point x="415" y="253" type="line" smooth="yes"/>
      <point x="462" y="254"/>
      <point x="483" y="232"/>
      <point x="478" y="197" type="curve" smooth="yes"/>
      <point x="473" y="156"/>
      <point x="447" y="125"/>
      <point x="408" y="114" type="curve"/>
      <point x="204" y="125" type="line"/>
    </contour>
    <contour>
      <point x="113" y="-17" type="line"/>
      <point x="317" y="-17" type="line"/>
      <point x="336" y="202" type="line"/>
      <point x="410" y="717" type="line"/>
      <point x="204" y="717" type="line"/>
      <point x="149" y="181" type="line"/>
    </contour>
    <contour>
      <point x="588" y="621" type="line"/>
      <point x="49" y="621" type="line"/>
      <point x="22" y="479" type="line"/>
      <point x="32" y="465" type="line"/>
      <point x="168" y="472" type="line"/>
      <point x="416" y="472" type="line"/>
      <point x="570" y="465" type="line"/>
      <point x="597" y="607" type="line"/>
    </contour>
  </outline>
</glyph>
<glyph name="Yusbig-cy" format="2">
  <advance width="892"/>
  <unicode hex="046A"/>
  <outline>
    <contour>
      <point x="156" y="-12" type="curve"/>
      <point x="178" y="-4" type="line"/>
      <point x="249" y="93"/>
      <point x="274" y="127"/>
      <point x="299" y="163" type="curve" smooth="yes"/>
      <point x="335" y="216"/>
      <point x="341" y="223"/>
      <point x="451" y="224" type="curve" smooth="yes"/>
      <point x="553" y="225"/>
      <point x="558" y="227"/>
      <point x="582" y="177" type="curve" smooth="yes"/>
      <point x="629" y="80"/>
      <point x="645" y="38"/>
      <point x="662" y="4" type="curve"/>
      <point x="683" y="-12" type="line"/>
      <point x="741" y="-6"/>
      <point x="802" y="3"/>
      <point x="881" y="19" type="curve"/>
      <point x="882" y="37" type="line"/>
      <point x="843" y="98"/>
      <point x="809" y="153"/>
      <point x="773" y="211" type="curve" smooth="yes"/>
      <point x="685" y="352"/>
      <point x="662" y="371"/>
      <point x="457" y="371" type="curve" smooth="yes"/>
      <point x="259" y="371"/>
      <point x="230" y="362"/>
      <point x="112" y="222" type="curve" smooth="yes"/>
      <point x="61" y="161"/>
      <point x="15" y="106"/>
      <point x="-39" y="45" type="curve"/>
      <point x="-34" y="21" type="line"/>
      <point x="36" y="4"/>
      <point x="91" y="-6"/>
    </contour>
    <contour>
      <point x="320" y="0" type="line"/>
      <point x="515" y="0" type="line"/>
      <point x="533" y="210" type="line"/>
      <point x="548" y="304" type="line"/>
      <point x="364" y="304" type="line"/>
      <point x="353" y="190" type="line"/>
    </contour>
    <contour>
      <point x="271" y="346" type="line"/>
      <point x="653" y="346" type="line"/>
      <point x="840" y="511" type="line"/>
      <point x="855" y="647" type="line"/>
      <point x="141" y="647" type="line"/>
      <point x="125" y="511" type="line"/>
    </contour>
    <contour>
      <point x="460" y="353" type="line"/>
      <point x="339" y="506" type="line"/>
      <point x="619" y="506" type="line"/>
    </contour>
  </outline>
</glyph>
<glyph name="yusbig-cy" format="2">
  <advance width="718"/>
  <unicode hex="046B"/>
  <outline>
    <contour>
      <point x="132" y="-9" type="curve"/>
      <point x="150" y="-3" type="line"/>
      <point x="187" y="51"/>
      <point x="205" y="76"/>
      <point x="225" y="104" type="curve" smooth="yes"/>
      <point x="246" y="146"/>
      <point x="259" y="150"/>
      <point x="346" y="151" type="curve" smooth="yes"/>
      <point x="438" y="152"/>
      <point x="453" y="151"/>
      <point x="470" y="121" type="curve" smooth="yes"/>
      <point x="486" y="75"/>
      <point x="507" y="27"/>
      <point x="515" y="5" type="curve"/>
      <point x="533" y="-9" type="line"/>
      <point x="571" y="-6"/>
      <point x="609" y="-1"/>
      <point x="701" y="16" type="curve"/>
      <point x="699" y="31" type="line"/>
      <point x="674" y="72"/>
      <point x="653" y="109"/>
      <point x="626" y="146" type="curve" smooth="yes"/>
      <point x="561" y="257"/>
      <point x="525" y="277"/>
      <point x="349" y="277" type="curve" smooth="yes"/>
      <point x="186" y="277"/>
      <point x="162" y="270"/>
      <point x="66" y="160" type="curve" smooth="yes"/>
      <point x="36" y="120"/>
      <point x="5" y="83"/>
      <point x="-33" y="39" type="curve"/>
      <point x="-27" y="18" type="line"/>
      <point x="33" y="4"/>
      <point x="78" y="-5"/>
    </contour>
    <contour>
      <point x="200" y="259" type="line"/>
      <point x="525" y="259" type="line"/>
      <point x="642" y="355" type="line"/>
      <point x="655" y="472" type="line"/>
      <point x="119" y="472" type="line"/>
      <point x="106" y="355" type="line"/>
    </contour>
    <contour>
      <point x="360" y="265" type="line"/>
      <point x="284" y="352" type="line"/>
      <point x="458" y="352" type="line"/>
    </contour>
    <contour>
      <point x="438" y="200" type="line"/>
      <point x="271" y="200" type="line"/>
      <point x="244" y="-4" type="line"/>
      <point x="422" y="7" type="line"/>
      <point x="427" y="116" type="line"/>
    </contour>
  </outline>
</glyph>
<glyph name="Izhitsa-cy" format="2">
  <advance width="604"/>
  <unicode hex="0474"/>
  <outline>
    <contour>
      <point x="141" y="0" type="line"/>
      <point x="376" y="0" type="line"/>
      <point x="542" y="412" type="line" smooth="yes"/>
      <point x="565" y="470"/>
      <point x="584" y="489"/>
      <point x="623" y="492" type="curve"/>
      <point x="629" y="507" type="line"/>
      <point x="619" y="654" type="line"/>
      <point x="498" y="654"/>
      <point x="451" y="621"/>
      <point x="406" y="502" type="curve" smooth="yes"/>
      <point x="288" y="179" type="line"/>
      <point x="278" y="179" type="line"/>
      <point x="255" y="540" type="line"/>
      <point x="251" y="647" type="line"/>
      <point x="55" y="647" type="line"/>
    </contour>
  </outline>
</glyph>
<glyph name="Ghestroke-cy" format="2">
  <advance width="505"/>
  <unicode hex="0492"/>
  <outline>
    <contour>
      <point x="340.75350000000003" y="680.15" type="line"/>
      <point x="122.7945" y="680.15" type="line"/>
      <point x="72.888" y="176.15" type="line"/>
      <point x="38.259" y="-32.8" type="line"/>
      <point x="253.1625" y="-32.8" type="line"/>
      <point x="272.514" y="198.20000000000002" type="line"/>
    </contour>
    <contour>
      <point x="559.731" y="680.15" type="line"/>
      <point x="270.477" y="680.15" type="line"/>
      <point x="253.1625" y="522.65" type="line"/>
      <point x="252.14399999999998" y="510.05000000000007" type="line"/>
      <point x="383.53049999999996" y="510.05000000000007" type="line"/>
      <point x="537.324" y="503.75" type="line"/>
      <point x="568.8975" y="664.4" type="line"/>
    </contour>
    <contour>
      <point x="391.7516" y="354.35" type="line"/>
      <point x="13.729999999999997" y="354.35" type="line"/>
      <point x="-5.361999999999998" y="251.45000000000002" type="line"/>
      <point x="3.2293999999999983" y="239.9" type="line"/>
      <point x="381.251" y="239.9" type="line"/>
      <point x="399.3884" y="342.8" type="line"/>
    </contour>
  </outline>
</glyph>
<glyph name="Zhedescender-cy" format="2">
  <advance width="999"/>
  <unicode hex="0496"/>
  <anchor x="675" y="0" name="bottomright"/>
  <anchor x="514" y="647" name="top"/>
  <outline>
    <contour>
      <point x="173" y="-12" type="curve"/>
      <point x="195" y="-4" type="line"/>
      <point x="266" y="105"/>
      <point x="336" y="214"/>
      <point x="402" y="328" type="curve"/>
      <point x="402" y="344" type="line"/>
      <point x="300" y="577" type="line"/>
      <point x="277" y="647" type="line"/>
      <point x="78" y="647" type="line"/>
      <point x="214" y="345" type="line"/>
      <point x="140" y="243"/>
      <point x="61" y="142"/>
      <point x="-18" y="45" type="curve"/>
      <point x="-12" y="21" type="line"/>
      <point x="49" y="6"/>
      <point x="111" y="-6"/>
    </contour>
    <contour>
      <point x="798" y="-147" type="line"/>
      <point x="940" y="-137" type="line"/>
      <point x="977" y="162" type="line"/>
      <point x="785" y="162" type="line"/>
    </contour>
    <contour>
      <point x="694" y="-11" type="line"/>
      <point x="947" y="0" type="line"/>
      <point x="977" y="162" type="line"/>
      <point x="754" y="162" type="line"/>
    </contour>
    <contour>
      <point x="695" y="-11" type="line"/>
      <point x="890" y="20" type="line"/>
      <point x="892" y="37" type="line"/>
      <point x="837" y="134"/>
      <point x="784" y="235"/>
      <point x="735" y="337" type="curve"/>
      <point x="951" y="647" type="line"/>
      <point x="747" y="647" type="line"/>
      <point x="706" y="577" type="line"/>
      <point x="548" y="344" type="line"/>
      <point x="549" y="336" type="line"/>
      <point x="588" y="222"/>
      <point x="630" y="113"/>
      <point x="677" y="4" type="curve"/>
    </contour>
    <contour>
      <point x="337" y="0" type="line"/>
      <point x="529" y="0" type="line"/>
      <point x="547" y="210" type="line"/>
      <point x="611" y="647" type="line"/>
      <point x="417" y="647" type="line"/>
      <point x="370" y="190" type="line"/>
    </contour>
  </outline>
</glyph>
<glyph name="zhedescender-cy" format="2">
  <advance width="772"/>
  <unicode hex="0497"/>
  <outline>
    <contour>
      <point x="149" y="-12" type="curve"/>
      <point x="167" y="-6" type="line"/>
      <point x="217" y="75"/>
      <point x="258" y="156"/>
      <point x="294" y="241" type="curve"/>
      <point x="293" y="257" type="line"/>
      <point x="234" y="416" type="line"/>
      <point x="223" y="472" type="line"/>
      <point x="39" y="472" type="line"/>
      <point x="123" y="267" type="line"/>
      <point x="78" y="190"/>
      <point x="30" y="114"/>
      <point x="-21" y="36" type="curve"/>
      <point x="-18" y="13" type="line"/>
      <point x="38" y="1"/>
      <point x="92" y="-6"/>
    </contour>
    <contour>
      <point x="531" y="0" type="line"/>
      <point x="708" y="12" type="line"/>
      <point x="709" y="28" type="line"/>
      <point x="675" y="106"/>
      <point x="644" y="182"/>
      <point x="618" y="259" type="curve"/>
      <point x="758" y="472" type="line"/>
      <point x="570" y="472" type="line"/>
      <point x="543" y="416" type="line"/>
      <point x="446" y="257" type="line"/>
      <point x="447" y="249" type="line"/>
      <point x="461" y="168"/>
      <point x="484" y="91"/>
      <point x="514" y="14" type="curve"/>
    </contour>
    <contour>
      <point x="255" y="-4" type="line"/>
      <point x="433" y="7" type="line"/>
      <point x="438" y="116" type="line"/>
      <point x="484" y="476" type="line"/>
      <point x="306" y="465" type="line"/>
      <point x="302" y="352" type="line"/>
    </contour>
    <contour>
      <point x="643" y="-197" type="line"/>
      <point x="686" y="-149"/>
      <point x="712" y="-94"/>
      <point x="725" y="-29" type="curve" smooth="yes"/>
      <point x="752" y="111" type="line"/>
      <point x="739" y="135" type="line"/>
      <point x="531" y="135" type="line"/>
      <point x="531" y="0" type="line"/>
      <point x="593" y="0" type="line"/>
      <point x="582" y="-16" type="line" smooth="yes"/>
      <point x="561" y="-47"/>
      <point x="528" y="-82"/>
      <point x="500" y="-103" type="curve"/>
      <point x="500" y="-129" type="line"/>
    </contour>
  </outline>
</glyph>
<glyph name="Zedescender-cy" format="2">
  <advance width="541"/>
  <unicode hex="0498"/>
  <outline>
    <contour>
      <point x="186.5" y="-24.6" type="curve" smooth="yes"/>
      <point x="408.05" y="-24.6"/>
      <point x="534.0500000000001" y="58.35000000000001"/>
      <point x="534.0500000000001" y="205.35000000000002" type="curve" smooth="yes"/>
      <point x="534.0500000000001" y="292.5"/>
      <point x="475.25" y="337.65000000000003"/>
      <point x="344.0" y="352.35" type="curve"/>
      <point x="355.55" y="316.65000000000003" type="line"/>
      <point x="476.3" y="339.75"/>
      <point x="549.8000000000001" y="412.20000000000005"/>
      <point x="549.8000000000001" y="513.0" type="curve" smooth="yes"/>
      <point x="549.8000000000001" y="619.0500000000001"/>
      <point x="453.20000000000005" y="678.9"/>
      <point x="275.75" y="678.9" type="curve" smooth="yes"/>
      <point x="212.75" y="678.9"/>
      <point x="151.85" y="672.6"/>
      <point x="95.15" y="658.95" type="curve"/>
      <point x="58.400000000000006" y="493.05" type="line"/>
      <point x="75.2" y="482.55" type="line"/>
      <point x="146.6" y="497.25"/>
      <point x="197.0" y="503.55000000000007"/>
      <point x="247.40000000000003" y="503.55000000000007" type="curve" smooth="yes"/>
      <point x="308.3" y="503.55000000000007"/>
      <point x="330.35" y="494.1"/>
      <point x="330.35" y="465.75" type="curve" smooth="yes"/>
      <point x="330.35" y="443.70000000000005"/>
      <point x="319.85" y="421.65000000000003"/>
      <point x="293.6" y="405.90000000000003" type="curve"/>
      <point x="142.4" y="408.0" type="line"/>
      <point x="113.0" y="267.3" type="line"/>
      <point x="122.45000000000002" y="252.60000000000002" type="line"/>
      <point x="290.45" y="252.60000000000002" type="line"/>
      <point x="311.45" y="242.10000000000002"/>
      <point x="321.95" y="228.45000000000002"/>
      <point x="321.95" y="210.60000000000002" type="curve" smooth="yes"/>
      <point x="321.95" y="170.70000000000002"/>
      <point x="278.90000000000003" y="147.6"/>
      <point x="206.45000000000002" y="147.6" type="curve" smooth="yes"/>
      <point x="153.95000000000002" y="147.6"/>
      <point x="93.05000000000001" y="160.20000000000002"/>
      <point x="51.05" y="180.15" type="curve"/>
      <point x="35.300000000000004" y="171.75" type="line"/>
      <point x="-21.4" y="4.800000000000001" type="line"/>
      <point x="30.050000000000004" y="-14.1"/>
      <point x="106.7" y="-24.6"/>
    </contour>
    <contour>
      <point x="134.4" y="-187.35" type="line"/>
      <point x="283.5" y="-176.85" type="line"/>
      <point x="343.35" y="95.10000000000001" type="line"/>
      <point x="141.75" y="95.10000000000001" type="line"/>
    </contour>
  </outline>
</glyph>
<glyph name="Kadescender-cy" format="2">
  <advance width="721"/>
  <unicode hex="049A"/>
  <outline>
    <contour>
      <point x="446" y="337" type="curve"/>
      <point x="680" y="647" type="line"/>
      <point x="464" y="647" type="line"/>
      <point x="419" y="577" type="line"/>
      <point x="246" y="344" type="line"/>
      <point x="247" y="336" type="line"/>
      <point x="292" y="222"/>
      <point x="340" y="103"/>
      <point x="390" y="-6" type="curve"/>
      <point x="410" y="-11" type="line"/>
      <point x="616" y="20" type="line"/>
      <point x="620" y="38" type="line"/>
      <point x="557" y="135"/>
      <point x="498" y="235"/>
    </contour>
    <contour>
      <point x="24" y="0" type="line"/>
      <point x="227" y="0" type="line"/>
      <point x="246" y="210" type="line"/>
      <point x="313" y="647" type="line"/>
      <point x="107" y="647" type="line"/>
      <point x="58" y="190" type="line"/>
    </contour>
    <contour>
      <point x="512" y="-147" type="line"/>
      <point x="659" y="-137" type="line"/>
      <point x="698" y="162" type="line"/>
      <point x="498" y="162" type="line"/>
    </contour>
    <contour>
      <point x="410" y="-11" type="line"/>
      <point x="667" y="0" type="line"/>
      <point x="698" y="162" type="line"/>
      <point x="473" y="162" type="line"/>
    </contour>
  </outline>
</glyph>
<glyph name="Kaverticalstroke-cy" format="2">
  <advance width="738"/>
  <unicode hex="049C"/>
  <anchor x="285" y="276" name="center"/>
  <outline>
    <contour>
      <point x="524" y="-12" type="line"/>
      <point x="580" y="-6"/>
      <point x="648" y="4"/>
      <point x="706" y="19" type="curve"/>
      <point x="706" y="38" type="line"/>
      <point x="656" y="135"/>
      <point x="609" y="235"/>
      <point x="566" y="337" type="curve"/>
      <point x="768" y="647" type="line"/>
      <point x="575" y="647" type="line"/>
      <point x="536" y="577" type="line"/>
      <point x="388" y="344" type="line"/>
      <point x="389" y="336" type="line"/>
      <point x="426" y="226"/>
      <point x="465" y="113"/>
      <point x="505" y="4" type="curve"/>
    </contour>
    <contour>
      <point x="31" y="0" type="line"/>
      <point x="226" y="0" type="line"/>
      <point x="244" y="210" type="line"/>
      <point x="309" y="647" type="line"/>
      <point x="111" y="647" type="line"/>
      <point x="64" y="190" type="line"/>
    </contour>
    <contour>
      <point x="175" y="256" type="line"/>
      <point x="487" y="256" type="line"/>
      <point x="505" y="408" type="line"/>
      <point x="194" y="408" type="line"/>
    </contour>
    <contour>
      <point x="287" y="118" type="line"/>
      <point x="375" y="123" type="line"/>
      <point x="426" y="544" type="line"/>
      <point x="417" y="552" type="line"/>
      <point x="329" y="546" type="line"/>
      <point x="278" y="126" type="line"/>
    </contour>
  </outline>
</glyph>
<glyph name="kabashkir-cy" format="2">
  <advance width="579"/>
  <unicode hex="04A1"/>
  <outline>
    <contour>
      <point x="598" y="472" type="line"/>
      <point x="409" y="472" type="line"/>
      <point x="382" y="416" type="line"/>
      <point x="287" y="259" type="line"/>
      <point x="286" y="249" type="line"/>
      <point x="305" y="167"/>
      <point x="330" y="84"/>
      <point x="359" y="2" type="curve"/>
      <point x="378" y="-12" type="line"/>
      <point x="435" y="-8"/>
      <point x="492" y="0"/>
      <point x="549" y="11" type="curve"/>
      <point x="551" y="28" type="line"/>
      <point x="517" y="104"/>
      <point x="487" y="181"/>
      <point x="459" y="259" type="curve"/>
    </contour>
    <contour>
      <point x="93" y="-4" type="line"/>
      <point x="271" y="7" type="line"/>
      <point x="276" y="116" type="line"/>
      <point x="322" y="476" type="line"/>
      <point x="144" y="465" type="line"/>
      <point x="140" y="352" type="line"/>
    </contour>
    <contour>
      <point x="24" y="334" type="line"/>
      <point x="91" y="340" type="line"/>
      <point x="264" y="340" type="line"/>
      <point x="280" y="472" type="line"/>
      <point x="39" y="472" type="line"/>
      <point x="15" y="346" type="line"/>
    </contour>
  </outline>
</glyph>
<glyph name="endescender-cy" format="2">
  <advance width="567"/>
  <unicode hex="04A3"/>
  <outline>
    <contour>
      <point x="243" y="476" type="line"/>
      <point x="65" y="465" type="line"/>
      <point x="61" y="352" type="line"/>
      <point x="14" y="-4" type="line"/>
      <point x="192" y="7" type="line"/>
      <point x="197" y="116" type="line"/>
    </contour>
    <contour>
      <point x="136" y="306" type="line"/>
      <point x="118" y="158" type="line"/>
      <point x="252" y="163" type="line"/>
      <point x="388" y="160" type="line"/>
      <point x="406" y="305" type="line"/>
      <point x="279" y="303" type="line"/>
    </contour>
    <component base="_part.stemDescender-cy" xOffset="268"/>
  </outline>
</glyph>
<glyph name="Enghe-cy" format="2">
  <advance width="857"/>
  <unicode hex="04A4"/>
  <outline>
    <contour>
      <point x="414" y="0" type="line"/>
      <point x="609" y="0" type="line"/>
      <point x="627" y="210" type="line"/>
      <point x="692" y="647" type="line"/>
      <point x="494" y="647" type="line"/>
      <point x="447" y="190" type="line"/>
    </contour>
    <contour>
      <point x="31" y="0" type="line"/>
      <point x="226" y="0" type="line"/>
      <point x="244" y="210" type="line"/>
      <point x="308" y="647" type="line"/>
      <point x="110" y="647" type="line"/>
      <point x="64" y="190" type="line"/>
    </contour>
    <contour>
      <point x="228" y="238" type="line"/>
      <point x="348" y="242" type="line"/>
      <point x="465" y="240" type="line"/>
      <point x="485" y="402" type="line"/>
      <point x="379" y="400" type="line"/>
      <point x="248" y="403" type="line"/>
    </contour>
    <contour>
      <point x="596" y="647" type="line"/>
      <point x="577" y="493" type="line"/>
      <point x="751" y="493" type="line"/>
      <point x="879" y="487" type="line"/>
      <point x="906" y="633" type="line"/>
      <point x="897" y="647" type="line"/>
    </contour>
  </outline>
</glyph>
<glyph name="ustrait-cy" format="2">
  <advance width="462"/>
  <unicode hex="04AF"/>
  <anchor x="173" y="-14" name="center"/>
  <outline>
    <contour>
      <point x="460" y="479" type="curve"/>
      <point x="297" y="459" type="line"/>
      <point x="289" y="442" type="line"/>
      <point x="298" y="424"/>
      <point x="302" y="405"/>
      <point x="302" y="386" type="curve" smooth="yes"/>
      <point x="302" y="358"/>
      <point x="293" y="328"/>
      <point x="277" y="291" type="curve" smooth="yes"/>
      <point x="230" y="183" type="line"/>
      <point x="216" y="183" type="line"/>
      <point x="206" y="385" type="line"/>
      <point x="206" y="476" type="line"/>
      <point x="28" y="467" type="line"/>
      <point x="105" y="-94" type="line"/>
      <point x="223" y="-94" type="line"/>
      <point x="427" y="260" type="line" smooth="yes"/>
      <point x="458" y="314"/>
      <point x="474" y="360"/>
      <point x="474" y="405" type="curve" smooth="yes"/>
      <point x="474" y="430"/>
      <point x="469" y="454"/>
    </contour>
    <contour>
      <point x="274" y="72" type="line"/>
      <point x="108" y="72" type="line"/>
      <point x="73" y="-196" type="line"/>
      <point x="251" y="-185" type="line"/>
      <point x="255" y="-76" type="line"/>
    </contour>
  </outline>
</glyph>
<glyph name="hadescender-cy" format="2">
  <advance width="517"/>
  <unicode hex="04B3"/>
  <outline>
    <contour>
      <point x="358" y="233" type="line"/>
      <point x="518" y="472" type="line"/>
      <point x="331" y="472" type="line"/>
      <point x="309" y="422" type="line"/>
      <point x="272" y="357" type="line"/>
      <point x="248" y="426" type="line"/>
      <point x="235" y="482" type="line"/>
      <point x="41" y="467" type="line"/>
      <point x="130" y="242" type="line"/>
      <point x="-30" y="0" type="line"/>
      <point x="164" y="0" type="line"/>
      <point x="191" y="65" type="line"/>
      <point x="228" y="128" type="line"/>
      <point x="249" y="60" type="line"/>
      <point x="259" y="0" type="line"/>
      <point x="462" y="4" type="line"/>
    </contour>
    <contour>
      <point x="384" y="-197" type="line"/>
      <point x="427" y="-149"/>
      <point x="453" y="-94"/>
      <point x="466" y="-29" type="curve" smooth="yes"/>
      <point x="493" y="111" type="line"/>
      <point x="480" y="135" type="line"/>
      <point x="259" y="135" type="line"/>
      <point x="259" y="0" type="line"/>
      <point x="334" y="0" type="line"/>
      <point x="323" y="-16" type="line" smooth="yes"/>
      <point x="302" y="-47"/>
      <point x="269" y="-82"/>
      <point x="241" y="-103" type="curve"/>
      <point x="241" y="-129" type="line"/>
    </contour>
  </outline>
</glyph>
<glyph name="Cheverticalstroke-cy" format="2">
  <advance width="669"/>
  <unicode hex="04B8"/>
  <outline>
    <contour>
      <point x="656" y="647" type="line"/>
      <point x="459" y="647" type="line"/>
      <point x="411" y="190" type="line"/>
      <point x="379" y="0" type="line"/>
      <point x="573" y="0" type="line"/>
      <point x="591" y="210" type="line"/>
    </contour>
    <contour>
      <point x="445" y="383" type="line"/>
      <point x="394" y="359"/>
      <point x="352" y="346"/>
      <point x="314" y="346" type="curve" smooth="yes"/>
      <point x="261" y="346"/>
      <point x="238" y="373"/>
      <point x="246" y="432" type="curve" smooth="yes"/>
      <point x="275" y="647" type="line"/>
      <point x="78" y="647" type="line"/>
      <point x="52" y="388" type="line" smooth="yes"/>
      <point x="38" y="249"/>
      <point x="107" y="178"/>
      <point x="265" y="177" type="curve"/>
      <point x="318" y="194"/>
      <point x="368" y="217"/>
      <point x="409" y="249" type="curve"/>
      <point x="435" y="252" type="line"/>
    </contour>
    <contour>
      <point x="265" y="93" type="line"/>
      <point x="352" y="98" type="line"/>
      <point x="401" y="509" type="line"/>
      <point x="392" y="517" type="line"/>
      <point x="304" y="511" type="line"/>
      <point x="255" y="101" type="line"/>
    </contour>
  </outline>
</glyph>
<glyph name="cheverticalstroke-cy" format="2">
  <advance width="538"/>
  <unicode hex="04B9"/>
  <outline>
    <contour>
      <point x="155" y="101" type="curve"/>
      <point x="171" y="102" type="line"/>
      <point x="216" y="125"/>
      <point x="255" y="150"/>
      <point x="308" y="180" type="curve"/>
      <point x="345" y="180" type="line"/>
      <point x="362" y="328" type="line"/>
      <point x="301" y="284"/>
      <point x="246" y="257"/>
      <point x="219" y="257" type="curve" smooth="yes"/>
      <point x="202" y="257"/>
      <point x="196" y="264"/>
      <point x="196" y="285" type="curve"/>
      <point x="197" y="297" type="line"/>
      <point x="224" y="476" type="line"/>
      <point x="46" y="465" type="line"/>
      <point x="42" y="351" type="line"/>
      <point x="24" y="228" type="line"/>
      <point x="22" y="208" type="line"/>
      <point x="24" y="146"/>
      <point x="68" y="110"/>
    </contour>
    <contour>
      <point x="294" y="-4" type="line"/>
      <point x="474" y="7" type="line"/>
      <point x="476" y="116" type="line"/>
      <point x="523" y="476" type="line"/>
      <point x="345" y="465" type="line"/>
      <point x="343" y="352" type="line"/>
    </contour>
    <contour>
      <point x="204" y="58" type="line"/>
      <point x="282" y="62" type="line"/>
      <point x="322" y="394" type="line"/>
      <point x="314" y="400" type="line"/>
      <point x="236" y="396" type="line"/>
      <point x="196" y="65" type="line"/>
    </contour>
  </outline>
</glyph>
<glyph name="obarred-cy" format="2">
  <advance width="462"/>
  <unicode hex="04E9"/>
  <outline>
    <contour>
      <point x="355" y="290" type="line"/>
      <point x="113" y="277" type="line"/>
      <point x="92" y="193" type="line"/>
      <point x="102" y="178" type="line"/>
      <point x="345" y="191" type="line"/>
      <point x="365" y="275" type="line"/>
    </contour>
    <component base="o" xOffset="-3"/>
  </outline>
</glyph>
<glyph name="gedescender-cy" format="2">
  <advance width="403"/>
  <unicode hex="04F7"/>
  <outline>
    <contour>
      <point x="169" y="-12" type="curve"/>
      <point x="249" y="8"/>
      <point x="319" y="48"/>
      <point x="368" y="102" type="curve"/>
      <point x="331" y="179" type="line"/>
      <point x="310" y="184" type="line"/>
      <point x="241" y="138"/>
      <point x="202" y="121"/>
      <point x="164" y="121" type="curve" smooth="yes"/>
      <point x="153" y="121"/>
      <point x="146" y="127"/>
      <point x="146" y="135" type="curve" smooth="yes"/>
      <point x="146" y="172"/>
      <point x="381" y="169"/>
      <point x="381" y="335" type="curve" smooth="yes"/>
      <point x="381" y="421"/>
      <point x="312" y="481"/>
      <point x="211" y="481" type="curve"/>
      <point x="139" y="464"/>
      <point x="77" y="431"/>
      <point x="28" y="384" type="curve"/>
      <point x="65" y="307" type="line"/>
      <point x="86" y="303" type="line"/>
      <point x="156" y="336"/>
      <point x="193" y="349"/>
      <point x="222" y="349" type="curve" smooth="yes"/>
      <point x="236" y="349"/>
      <point x="239" y="347"/>
      <point x="239" y="335" type="curve" smooth="yes"/>
      <point x="239" y="293"/>
      <point x="3" y="302"/>
      <point x="3" y="132" type="curve" smooth="yes"/>
      <point x="3" y="48"/>
      <point x="72" y="-11"/>
    </contour>
    <contour>
      <point x="260" y="-197" type="line"/>
      <point x="302" y="-150"/>
      <point x="329" y="-95"/>
      <point x="342" y="-29" type="curve" smooth="yes"/>
      <point x="368" y="102" type="line"/>
      <point x="262" y="102" type="line"/>
      <point x="202" y="-16" type="line" smooth="yes"/>
      <point x="186" y="-47"/>
      <point x="156" y="-78"/>
      <point x="117" y="-103" type="curve"/>
      <point x="117" y="-129" type="line"/>
    </contour>
  </outline>
</glyph>
<glyph name="pedescender-cy" format="2">
  <advance width="563"/>
  <unicode hex="0525"/>
  <anchor x="233" y="0" name="bottom"/>
  <anchor x="291" y="472" name="top"/>
  <outline>
    <contour>
      <point x="14" y="-4" type="line"/>
      <point x="192" y="7" type="line"/>
      <point x="196" y="116" type="line"/>
      <point x="243" y="476" type="line"/>
      <point x="65" y="465" type="line"/>
      <point x="61" y="352" type="line"/>
    </contour>
    <contour>
      <point x="532" y="135" type="line"/>
      <point x="481" y="135" type="line" smooth="yes"/>
      <point x="467" y="135"/>
      <point x="464" y="138"/>
      <point x="466" y="151" type="curve" smooth="yes"/>
      <point x="501" y="349" type="line"/>
      <point x="502" y="363" type="line"/>
      <point x="503" y="413"/>
      <point x="447" y="459"/>
      <point x="367" y="474" type="curve"/>
      <point x="354" y="473" type="line"/>
      <point x="317" y="438"/>
      <point x="282" y="399"/>
      <point x="241" y="346" type="curve"/>
      <point x="221" y="346" type="line"/>
      <point x="186" y="156" type="line"/>
      <point x="232" y="238"/>
      <point x="279" y="291"/>
      <point x="304" y="291" type="curve" smooth="yes"/>
      <point x="316" y="291"/>
      <point x="321" y="284"/>
      <point x="321" y="269" type="curve"/>
      <point x="320" y="259" type="line"/>
      <point x="291" y="96" type="line" smooth="yes"/>
      <point x="281" y="40"/>
      <point x="309" y="0"/>
      <point x="357" y="0" type="curve" smooth="yes"/>
      <point x="386" y="0" type="line"/>
      <point x="375" y="-16" type="line" smooth="yes"/>
      <point x="354" y="-47"/>
      <point x="321" y="-82"/>
      <point x="293" y="-103" type="curve"/>
      <point x="293" y="-129" type="line"/>
      <point x="436" y="-197" type="line"/>
      <point x="478" y="-150"/>
      <point x="505" y="-95"/>
      <point x="518" y="-29" type="curve" smooth="yes"/>
      <point x="545" y="111" type="line"/>
    </contour>
  </outline>
</glyph>
<glyph name="Germandbls" format="2">
  <advance width="712"/>
  <unicode hex="1E9E"/>
  <outline>
    <contour>
      <point x="414" y="659" type="curve" smooth="yes"/>
      <point x="207" y="659"/>
      <point x="91" y="558"/>
      <point x="75" y="404" type="curve" smooth="yes"/>
      <point x="53" y="190" type="line"/>
      <point x="19" y="0" type="line"/>
      <point x="220" y="0" type="line"/>
      <point x="238" y="210" type="line"/>
      <point x="267" y="404" type="line"/>
      <point x="275" y="472"/>
      <point x="302" y="501"/>
      <point x="374" y="501" type="curve" smooth="yes"/>
      <point x="401" y="501"/>
      <point x="420" y="497"/>
      <point x="442" y="489" type="curve"/>
      <point x="319" y="332" type="line"/>
      <point x="321" y="308" type="line"/>
      <point x="459" y="225"/>
      <point x="497" y="190"/>
      <point x="497" y="165" type="curve" smooth="yes"/>
      <point x="497" y="148"/>
      <point x="485" y="137"/>
      <point x="461" y="137" type="curve" smooth="yes"/>
      <point x="425" y="137"/>
      <point x="373" y="164"/>
      <point x="324" y="212" type="curve"/>
      <point x="302" y="200" type="line"/>
      <point x="252" y="26" type="line"/>
      <point x="305" y="2"/>
      <point x="369" y="-12"/>
      <point x="431" y="-12" type="curve" smooth="yes"/>
      <point x="571" y="-12"/>
      <point x="700" y="56"/>
      <point x="700" y="205" type="curve" smooth="yes"/>
      <point x="700" y="283"/>
      <point x="652" y="318"/>
      <point x="561" y="392" type="curve"/>
      <point x="697" y="563" type="line"/>
      <point x="692" y="586" type="line"/>
      <point x="593" y="634"/>
      <point x="516" y="659"/>
    </contour>
  </outline>
</glyph>
